%
M48
M72
T01C0.02362
T02C0.03200
T03C0.03600
T04C0.03937
T05C0.06299
T06C0.08661
T07C0.09843
%
T01
X42370Y55620
X27370Y80620
X27370Y90620
X42370Y105620
X57370Y90620
X57370Y80620
X137370Y80620
X147370Y80620
X147370Y70620
X147370Y60620
X147370Y50620
X147370Y90620
X157370Y90620
X167370Y90620
X162370Y110620
X177528Y120620
X187370Y110778
X197370Y110620
X197213Y120620
X212370Y110620
X237370Y110620
X237370Y90620
X247370Y90620
X227370Y90620
X277370Y120620
X297370Y135620
X317370Y145620
X282370Y155620
X252370Y160620
X242370Y150620
X232370Y150620
X212213Y150620
X202370Y140778
X192528Y150620
X177213Y150620
X167370Y140778
X157528Y150620
X147370Y145620
X137370Y145620
X127370Y145620
X117370Y145620
X97370Y145620
X87370Y145620
X62370Y155620
X37370Y140620
X27370Y140620
X27370Y130620
X27370Y180620
X37370Y180620
X37370Y190620
X27370Y190620
X27370Y210620
X17370Y210620
X37370Y210620
X137370Y210620
X147370Y210620
X142370Y190620
X182370Y195620
X227370Y195620
X227370Y205620
X262370Y195620
X287370Y195620
X287370Y205620
X302370Y205620
X327370Y170620
X372370Y130620
X377370Y105620
X387370Y105620
X327370Y120620
T02
X82370Y50620
X92370Y50620
X82370Y60620
X92370Y75620
X92370Y90620
X82370Y90620
X112370Y90620
X117370Y98120
X122370Y90620
X122370Y75620
X157370Y75620
X177370Y90620
X187370Y75620
X212370Y75620
X207370Y90620
X222370Y115620
X207370Y125620
X227370Y140620
X237370Y140620
X247370Y140620
X257370Y140620
X267370Y140620
X277370Y140620
X287370Y140620
X287370Y130620
X267370Y130620
X247370Y130620
X237370Y125620
X252370Y115620
X267370Y95620
X277370Y95620
X332370Y110620
X342370Y110620
X352370Y110620
X347370Y103120
X362370Y120620
X382370Y125620
X392370Y125620
X387370Y140620
X387370Y150620
X362370Y160620
X362370Y170620
X382370Y165620
X392370Y165620
X357370Y150620
X357370Y140620
X362370Y130620
X332370Y130620
X317370Y130620
X302370Y160620
X287370Y170620
X277370Y170620
X267370Y170620
X257370Y170620
X247370Y170620
X237370Y170620
X227370Y170620
X217370Y170620
X207370Y170620
X187370Y170620
X177370Y170620
X147370Y170620
X137370Y170620
X122370Y170620
X122370Y160620
X132370Y160620
X142370Y160620
X112370Y160620
X102370Y160620
X92370Y160620
X82370Y160620
X77370Y170620
X82370Y180620
X77370Y190620
X82370Y200620
X97370Y200620
X97370Y210620
X127370Y210620
X127370Y200620
X137370Y200620
X127370Y190620
X97370Y190620
X102370Y170620
X57370Y170620
X47370Y170620
X47370Y160620
X47370Y150620
X27370Y160620
X17370Y170620
X52370Y180620
X57370Y190620
X52370Y200620
X17370Y150620
X82370Y130620
X92370Y130620
X102370Y130620
X112370Y130620
X122370Y130620
X132370Y130620
X142370Y130620
X132370Y120620
X122370Y120620
X132370Y110620
X102370Y110620
X102370Y120620
X92370Y120620
X162370Y120620
X267370Y65620
X277370Y65620
X277370Y50620
X267370Y50620
X212370Y45620
X332370Y160620
X267370Y180620
X247370Y180620
X217370Y200620
X212370Y210620
X182370Y210620
X167370Y205620
X157370Y205620
X162370Y198120
T03
X312370Y195620
X322370Y195620
X332370Y195620
X342370Y195620
X352370Y195620
X362370Y195620
X372370Y195620
X382370Y195620
X382370Y205620
X372370Y205620
X362370Y205620
X352370Y205620
X342370Y205620
X332370Y205620
X322370Y205620
X312370Y205620
T04
X247213Y60305
X237370Y60305
X227528Y60305
X187213Y60305
X177370Y60305
X167528Y60305
X132213Y60305
X122370Y60305
X112528Y60305
T05
X64811Y57352
X19929Y57352
X19929Y107352
X64811Y107352
T06
X42370Y125581
T07
X302370Y92589
X342370Y92589
X382370Y92589
X382370Y69754
X382370Y48888
X342370Y48888
X342370Y69754
X302370Y69754
X302370Y48888
M30
