G75*
%MOIN*%
%OFA0B0*%
%FSLAX25Y25*%
%IPPOS*%
%LPD*%
%AMOC8*
5,1,8,0,0,1.08239X$1,22.5*
%
%ADD10C,0.00000*%
D10*
X0007370Y0040620D02*
X0007370Y0217785D01*
X0401071Y0217785D01*
X0401071Y0040620D01*
X0007370Y0040620D01*
X0038039Y0125581D02*
X0038041Y0125712D01*
X0038047Y0125844D01*
X0038057Y0125975D01*
X0038071Y0126106D01*
X0038089Y0126236D01*
X0038111Y0126365D01*
X0038136Y0126494D01*
X0038166Y0126622D01*
X0038200Y0126749D01*
X0038237Y0126876D01*
X0038278Y0127000D01*
X0038323Y0127124D01*
X0038372Y0127246D01*
X0038424Y0127367D01*
X0038480Y0127485D01*
X0038540Y0127603D01*
X0038603Y0127718D01*
X0038670Y0127831D01*
X0038740Y0127943D01*
X0038813Y0128052D01*
X0038889Y0128158D01*
X0038969Y0128263D01*
X0039052Y0128365D01*
X0039138Y0128464D01*
X0039227Y0128561D01*
X0039319Y0128655D01*
X0039414Y0128746D01*
X0039511Y0128835D01*
X0039611Y0128920D01*
X0039714Y0129002D01*
X0039819Y0129081D01*
X0039926Y0129157D01*
X0040036Y0129229D01*
X0040148Y0129298D01*
X0040262Y0129364D01*
X0040377Y0129426D01*
X0040495Y0129485D01*
X0040614Y0129540D01*
X0040735Y0129592D01*
X0040858Y0129639D01*
X0040982Y0129683D01*
X0041107Y0129724D01*
X0041233Y0129760D01*
X0041361Y0129793D01*
X0041489Y0129821D01*
X0041618Y0129846D01*
X0041748Y0129867D01*
X0041878Y0129884D01*
X0042009Y0129897D01*
X0042140Y0129906D01*
X0042271Y0129911D01*
X0042403Y0129912D01*
X0042534Y0129909D01*
X0042666Y0129902D01*
X0042797Y0129891D01*
X0042927Y0129876D01*
X0043057Y0129857D01*
X0043187Y0129834D01*
X0043315Y0129808D01*
X0043443Y0129777D01*
X0043570Y0129742D01*
X0043696Y0129704D01*
X0043820Y0129662D01*
X0043944Y0129616D01*
X0044065Y0129566D01*
X0044185Y0129513D01*
X0044304Y0129456D01*
X0044421Y0129396D01*
X0044535Y0129332D01*
X0044648Y0129264D01*
X0044759Y0129193D01*
X0044868Y0129119D01*
X0044974Y0129042D01*
X0045078Y0128961D01*
X0045179Y0128878D01*
X0045278Y0128791D01*
X0045374Y0128701D01*
X0045467Y0128608D01*
X0045558Y0128513D01*
X0045645Y0128415D01*
X0045730Y0128314D01*
X0045811Y0128211D01*
X0045889Y0128105D01*
X0045964Y0127997D01*
X0046036Y0127887D01*
X0046104Y0127775D01*
X0046169Y0127661D01*
X0046230Y0127544D01*
X0046288Y0127426D01*
X0046342Y0127306D01*
X0046393Y0127185D01*
X0046440Y0127062D01*
X0046483Y0126938D01*
X0046522Y0126813D01*
X0046558Y0126686D01*
X0046589Y0126558D01*
X0046617Y0126430D01*
X0046641Y0126301D01*
X0046661Y0126171D01*
X0046677Y0126040D01*
X0046689Y0125909D01*
X0046697Y0125778D01*
X0046701Y0125647D01*
X0046701Y0125515D01*
X0046697Y0125384D01*
X0046689Y0125253D01*
X0046677Y0125122D01*
X0046661Y0124991D01*
X0046641Y0124861D01*
X0046617Y0124732D01*
X0046589Y0124604D01*
X0046558Y0124476D01*
X0046522Y0124349D01*
X0046483Y0124224D01*
X0046440Y0124100D01*
X0046393Y0123977D01*
X0046342Y0123856D01*
X0046288Y0123736D01*
X0046230Y0123618D01*
X0046169Y0123501D01*
X0046104Y0123387D01*
X0046036Y0123275D01*
X0045964Y0123165D01*
X0045889Y0123057D01*
X0045811Y0122951D01*
X0045730Y0122848D01*
X0045645Y0122747D01*
X0045558Y0122649D01*
X0045467Y0122554D01*
X0045374Y0122461D01*
X0045278Y0122371D01*
X0045179Y0122284D01*
X0045078Y0122201D01*
X0044974Y0122120D01*
X0044868Y0122043D01*
X0044759Y0121969D01*
X0044648Y0121898D01*
X0044536Y0121830D01*
X0044421Y0121766D01*
X0044304Y0121706D01*
X0044185Y0121649D01*
X0044065Y0121596D01*
X0043944Y0121546D01*
X0043820Y0121500D01*
X0043696Y0121458D01*
X0043570Y0121420D01*
X0043443Y0121385D01*
X0043315Y0121354D01*
X0043187Y0121328D01*
X0043057Y0121305D01*
X0042927Y0121286D01*
X0042797Y0121271D01*
X0042666Y0121260D01*
X0042534Y0121253D01*
X0042403Y0121250D01*
X0042271Y0121251D01*
X0042140Y0121256D01*
X0042009Y0121265D01*
X0041878Y0121278D01*
X0041748Y0121295D01*
X0041618Y0121316D01*
X0041489Y0121341D01*
X0041361Y0121369D01*
X0041233Y0121402D01*
X0041107Y0121438D01*
X0040982Y0121479D01*
X0040858Y0121523D01*
X0040735Y0121570D01*
X0040614Y0121622D01*
X0040495Y0121677D01*
X0040377Y0121736D01*
X0040262Y0121798D01*
X0040148Y0121864D01*
X0040036Y0121933D01*
X0039926Y0122005D01*
X0039819Y0122081D01*
X0039714Y0122160D01*
X0039611Y0122242D01*
X0039511Y0122327D01*
X0039414Y0122416D01*
X0039319Y0122507D01*
X0039227Y0122601D01*
X0039138Y0122698D01*
X0039052Y0122797D01*
X0038969Y0122899D01*
X0038889Y0123004D01*
X0038813Y0123110D01*
X0038740Y0123219D01*
X0038670Y0123331D01*
X0038603Y0123444D01*
X0038540Y0123559D01*
X0038480Y0123677D01*
X0038424Y0123795D01*
X0038372Y0123916D01*
X0038323Y0124038D01*
X0038278Y0124162D01*
X0038237Y0124286D01*
X0038200Y0124413D01*
X0038166Y0124540D01*
X0038136Y0124668D01*
X0038111Y0124797D01*
X0038089Y0124926D01*
X0038071Y0125056D01*
X0038057Y0125187D01*
X0038047Y0125318D01*
X0038041Y0125450D01*
X0038039Y0125581D01*
M02*
