G75*
%MOIN*%
%OFA0B0*%
%FSLAX25Y25*%
%IPPOS*%
%LPD*%
%AMOC8*
5,1,8,0,0,1.08239X$1,22.5*
%
%ADD10C,0.00000*%
%ADD11OC8,0.06300*%
%ADD12C,0.06300*%
%ADD13OC8,0.04800*%
%ADD14C,0.04800*%
%ADD15C,0.08899*%
%ADD16C,0.08661*%
%ADD17C,0.12443*%
%ADD18C,0.03562*%
%ADD19C,0.06600*%
%ADD20OC8,0.05400*%
D10*
X0007370Y0040620D02*
X0007370Y0217785D01*
X0401071Y0217785D01*
X0401071Y0040620D01*
X0007370Y0040620D01*
X0038039Y0125581D02*
X0038041Y0125712D01*
X0038047Y0125844D01*
X0038057Y0125975D01*
X0038071Y0126106D01*
X0038089Y0126236D01*
X0038111Y0126365D01*
X0038136Y0126494D01*
X0038166Y0126622D01*
X0038200Y0126749D01*
X0038237Y0126876D01*
X0038278Y0127000D01*
X0038323Y0127124D01*
X0038372Y0127246D01*
X0038424Y0127367D01*
X0038480Y0127485D01*
X0038540Y0127603D01*
X0038603Y0127718D01*
X0038670Y0127831D01*
X0038740Y0127943D01*
X0038813Y0128052D01*
X0038889Y0128158D01*
X0038969Y0128263D01*
X0039052Y0128365D01*
X0039138Y0128464D01*
X0039227Y0128561D01*
X0039319Y0128655D01*
X0039414Y0128746D01*
X0039511Y0128835D01*
X0039611Y0128920D01*
X0039714Y0129002D01*
X0039819Y0129081D01*
X0039926Y0129157D01*
X0040036Y0129229D01*
X0040148Y0129298D01*
X0040262Y0129364D01*
X0040377Y0129426D01*
X0040495Y0129485D01*
X0040614Y0129540D01*
X0040735Y0129592D01*
X0040858Y0129639D01*
X0040982Y0129683D01*
X0041107Y0129724D01*
X0041233Y0129760D01*
X0041361Y0129793D01*
X0041489Y0129821D01*
X0041618Y0129846D01*
X0041748Y0129867D01*
X0041878Y0129884D01*
X0042009Y0129897D01*
X0042140Y0129906D01*
X0042271Y0129911D01*
X0042403Y0129912D01*
X0042534Y0129909D01*
X0042666Y0129902D01*
X0042797Y0129891D01*
X0042927Y0129876D01*
X0043057Y0129857D01*
X0043187Y0129834D01*
X0043315Y0129808D01*
X0043443Y0129777D01*
X0043570Y0129742D01*
X0043696Y0129704D01*
X0043820Y0129662D01*
X0043944Y0129616D01*
X0044065Y0129566D01*
X0044185Y0129513D01*
X0044304Y0129456D01*
X0044421Y0129396D01*
X0044535Y0129332D01*
X0044648Y0129264D01*
X0044759Y0129193D01*
X0044868Y0129119D01*
X0044974Y0129042D01*
X0045078Y0128961D01*
X0045179Y0128878D01*
X0045278Y0128791D01*
X0045374Y0128701D01*
X0045467Y0128608D01*
X0045558Y0128513D01*
X0045645Y0128415D01*
X0045730Y0128314D01*
X0045811Y0128211D01*
X0045889Y0128105D01*
X0045964Y0127997D01*
X0046036Y0127887D01*
X0046104Y0127775D01*
X0046169Y0127661D01*
X0046230Y0127544D01*
X0046288Y0127426D01*
X0046342Y0127306D01*
X0046393Y0127185D01*
X0046440Y0127062D01*
X0046483Y0126938D01*
X0046522Y0126813D01*
X0046558Y0126686D01*
X0046589Y0126558D01*
X0046617Y0126430D01*
X0046641Y0126301D01*
X0046661Y0126171D01*
X0046677Y0126040D01*
X0046689Y0125909D01*
X0046697Y0125778D01*
X0046701Y0125647D01*
X0046701Y0125515D01*
X0046697Y0125384D01*
X0046689Y0125253D01*
X0046677Y0125122D01*
X0046661Y0124991D01*
X0046641Y0124861D01*
X0046617Y0124732D01*
X0046589Y0124604D01*
X0046558Y0124476D01*
X0046522Y0124349D01*
X0046483Y0124224D01*
X0046440Y0124100D01*
X0046393Y0123977D01*
X0046342Y0123856D01*
X0046288Y0123736D01*
X0046230Y0123618D01*
X0046169Y0123501D01*
X0046104Y0123387D01*
X0046036Y0123275D01*
X0045964Y0123165D01*
X0045889Y0123057D01*
X0045811Y0122951D01*
X0045730Y0122848D01*
X0045645Y0122747D01*
X0045558Y0122649D01*
X0045467Y0122554D01*
X0045374Y0122461D01*
X0045278Y0122371D01*
X0045179Y0122284D01*
X0045078Y0122201D01*
X0044974Y0122120D01*
X0044868Y0122043D01*
X0044759Y0121969D01*
X0044648Y0121898D01*
X0044536Y0121830D01*
X0044421Y0121766D01*
X0044304Y0121706D01*
X0044185Y0121649D01*
X0044065Y0121596D01*
X0043944Y0121546D01*
X0043820Y0121500D01*
X0043696Y0121458D01*
X0043570Y0121420D01*
X0043443Y0121385D01*
X0043315Y0121354D01*
X0043187Y0121328D01*
X0043057Y0121305D01*
X0042927Y0121286D01*
X0042797Y0121271D01*
X0042666Y0121260D01*
X0042534Y0121253D01*
X0042403Y0121250D01*
X0042271Y0121251D01*
X0042140Y0121256D01*
X0042009Y0121265D01*
X0041878Y0121278D01*
X0041748Y0121295D01*
X0041618Y0121316D01*
X0041489Y0121341D01*
X0041361Y0121369D01*
X0041233Y0121402D01*
X0041107Y0121438D01*
X0040982Y0121479D01*
X0040858Y0121523D01*
X0040735Y0121570D01*
X0040614Y0121622D01*
X0040495Y0121677D01*
X0040377Y0121736D01*
X0040262Y0121798D01*
X0040148Y0121864D01*
X0040036Y0121933D01*
X0039926Y0122005D01*
X0039819Y0122081D01*
X0039714Y0122160D01*
X0039611Y0122242D01*
X0039511Y0122327D01*
X0039414Y0122416D01*
X0039319Y0122507D01*
X0039227Y0122601D01*
X0039138Y0122698D01*
X0039052Y0122797D01*
X0038969Y0122899D01*
X0038889Y0123004D01*
X0038813Y0123110D01*
X0038740Y0123219D01*
X0038670Y0123331D01*
X0038603Y0123444D01*
X0038540Y0123559D01*
X0038480Y0123677D01*
X0038424Y0123795D01*
X0038372Y0123916D01*
X0038323Y0124038D01*
X0038278Y0124162D01*
X0038237Y0124286D01*
X0038200Y0124413D01*
X0038166Y0124540D01*
X0038136Y0124668D01*
X0038111Y0124797D01*
X0038089Y0124926D01*
X0038071Y0125056D01*
X0038057Y0125187D01*
X0038047Y0125318D01*
X0038041Y0125450D01*
X0038039Y0125581D01*
D11*
X0382370Y0165620D03*
X0392370Y0125620D03*
D12*
X0382370Y0125620D03*
X0392370Y0165620D03*
D13*
X0332370Y0160620D03*
X0302370Y0160620D03*
X0267370Y0180620D03*
X0247370Y0180620D03*
X0217370Y0170620D03*
X0207370Y0170620D03*
X0187370Y0170620D03*
X0177370Y0170620D03*
X0147370Y0170620D03*
X0137370Y0170620D03*
X0122370Y0170620D03*
X0102370Y0170620D03*
X0077370Y0170620D03*
X0057370Y0170620D03*
X0047370Y0170620D03*
X0047370Y0160620D03*
X0047370Y0150620D03*
X0027370Y0160620D03*
X0017370Y0170620D03*
X0017370Y0150620D03*
X0092370Y0120620D03*
X0102370Y0120620D03*
X0102370Y0110620D03*
X0122370Y0120620D03*
X0132370Y0120620D03*
X0132370Y0110620D03*
X0117370Y0098120D03*
X0112370Y0090620D03*
X0122370Y0090620D03*
X0122370Y0075620D03*
X0092370Y0075620D03*
X0092370Y0090620D03*
X0082370Y0090620D03*
X0082370Y0060620D03*
X0082370Y0050620D03*
X0092370Y0050620D03*
X0157370Y0075620D03*
X0177370Y0090620D03*
X0187370Y0075620D03*
X0212370Y0075620D03*
X0207370Y0090620D03*
X0222370Y0115620D03*
X0207370Y0125620D03*
X0237370Y0125620D03*
X0247370Y0130620D03*
X0267370Y0130620D03*
X0252370Y0115620D03*
X0267370Y0095620D03*
X0277370Y0095620D03*
X0332370Y0110620D03*
X0342370Y0110620D03*
X0352370Y0110620D03*
X0347370Y0103120D03*
X0332370Y0130620D03*
X0277370Y0065620D03*
X0267370Y0065620D03*
X0267370Y0050620D03*
X0277370Y0050620D03*
X0212370Y0045620D03*
X0162370Y0120620D03*
X0127370Y0190620D03*
X0137370Y0200620D03*
X0127370Y0210620D03*
X0097370Y0210620D03*
X0082370Y0200620D03*
X0077370Y0190620D03*
X0057370Y0190620D03*
X0052370Y0200620D03*
X0097370Y0190620D03*
X0157370Y0205620D03*
X0167370Y0205620D03*
X0162370Y0198120D03*
X0182370Y0210620D03*
X0212370Y0210620D03*
X0217370Y0200620D03*
D14*
X0227370Y0173020D02*
X0227370Y0168220D01*
X0237370Y0168220D02*
X0237370Y0173020D01*
X0247370Y0173020D02*
X0247370Y0168220D01*
X0257370Y0168220D02*
X0257370Y0173020D01*
X0267370Y0173020D02*
X0267370Y0168220D01*
X0277370Y0168220D02*
X0277370Y0173020D01*
X0287370Y0173020D02*
X0287370Y0168220D01*
X0287370Y0143020D02*
X0287370Y0138220D01*
X0284970Y0130620D02*
X0289770Y0130620D01*
X0277370Y0138220D02*
X0277370Y0143020D01*
X0267370Y0143020D02*
X0267370Y0138220D01*
X0257370Y0138220D02*
X0257370Y0143020D01*
X0247370Y0143020D02*
X0247370Y0138220D01*
X0237370Y0138220D02*
X0237370Y0143020D01*
X0227370Y0143020D02*
X0227370Y0138220D01*
X0142370Y0133020D02*
X0142370Y0128220D01*
X0132370Y0128220D02*
X0132370Y0133020D01*
X0122370Y0133020D02*
X0122370Y0128220D01*
X0112370Y0128220D02*
X0112370Y0133020D01*
X0102370Y0133020D02*
X0102370Y0128220D01*
X0092370Y0128220D02*
X0092370Y0133020D01*
X0082370Y0133020D02*
X0082370Y0128220D01*
X0082370Y0158220D02*
X0082370Y0163020D01*
X0092370Y0163020D02*
X0092370Y0158220D01*
X0102370Y0158220D02*
X0102370Y0163020D01*
X0112370Y0163020D02*
X0112370Y0158220D01*
X0122370Y0158220D02*
X0122370Y0163020D01*
X0132370Y0163020D02*
X0132370Y0158220D01*
X0142370Y0158220D02*
X0142370Y0163020D01*
X0084770Y0180620D02*
X0079970Y0180620D01*
X0054770Y0180620D02*
X0049970Y0180620D01*
X0094970Y0200620D02*
X0099770Y0200620D01*
X0124970Y0200620D02*
X0129770Y0200620D01*
X0314970Y0130620D02*
X0319770Y0130620D01*
X0354970Y0140620D02*
X0359770Y0140620D01*
X0359770Y0150620D02*
X0354970Y0150620D01*
X0359970Y0160620D02*
X0364770Y0160620D01*
X0364770Y0170620D02*
X0359970Y0170620D01*
X0384970Y0150620D02*
X0389770Y0150620D01*
X0389770Y0140620D02*
X0384970Y0140620D01*
X0364770Y0130620D02*
X0359970Y0130620D01*
X0359970Y0120620D02*
X0364770Y0120620D01*
D15*
X0064811Y0111802D02*
X0064811Y0102903D01*
X0019929Y0102903D02*
X0019929Y0111802D01*
X0019929Y0061802D02*
X0019929Y0052903D01*
X0064811Y0052903D02*
X0064811Y0061802D01*
D16*
X0042370Y0125581D03*
D17*
X0296149Y0092589D02*
X0308591Y0092589D01*
X0336149Y0092589D02*
X0348591Y0092589D01*
X0376149Y0092589D02*
X0388591Y0092589D01*
X0388591Y0069754D02*
X0376149Y0069754D01*
X0348591Y0069754D02*
X0336149Y0069754D01*
X0308591Y0069754D02*
X0296149Y0069754D01*
X0296149Y0048888D02*
X0308591Y0048888D01*
X0336149Y0048888D02*
X0348591Y0048888D01*
X0376149Y0048888D02*
X0388591Y0048888D01*
D18*
X0202370Y0140778D03*
X0192528Y0150620D03*
X0177213Y0150620D03*
X0167370Y0140778D03*
X0157528Y0150620D03*
X0212213Y0150620D03*
X0197213Y0120620D03*
X0187370Y0110778D03*
X0177528Y0120620D03*
X0227370Y0195620D03*
X0227370Y0205620D03*
X0287370Y0205620D03*
X0287370Y0195620D03*
D19*
X0247213Y0063605D02*
X0247213Y0057005D01*
X0237370Y0057005D02*
X0237370Y0063605D01*
X0227528Y0063605D02*
X0227528Y0057005D01*
X0187213Y0057005D02*
X0187213Y0063605D01*
X0177370Y0063605D02*
X0177370Y0057005D01*
X0167528Y0057005D02*
X0167528Y0063605D01*
X0132213Y0063605D02*
X0132213Y0057005D01*
X0122370Y0057005D02*
X0122370Y0063605D01*
X0112528Y0063605D02*
X0112528Y0057005D01*
D20*
X0312370Y0195620D03*
X0322370Y0195620D03*
X0332370Y0195620D03*
X0342370Y0195620D03*
X0352370Y0195620D03*
X0362370Y0195620D03*
X0372370Y0195620D03*
X0382370Y0195620D03*
X0382370Y0205620D03*
X0372370Y0205620D03*
X0362370Y0205620D03*
X0352370Y0205620D03*
X0342370Y0205620D03*
X0332370Y0205620D03*
X0322370Y0205620D03*
X0312370Y0205620D03*
M02*
