G75*
%MOIN*%
%OFA0B0*%
%FSLAX25Y25*%
%IPPOS*%
%LPD*%
%AMOC8*
5,1,8,0,0,1.08239X$1,22.5*
%
%ADD10C,0.00000*%
%ADD11OC8,0.06300*%
%ADD12C,0.06300*%
%ADD13OC8,0.04800*%
%ADD14C,0.04800*%
%ADD15C,0.08899*%
%ADD16C,0.12443*%
%ADD17C,0.03562*%
%ADD18C,0.06600*%
%ADD19OC8,0.05400*%
%ADD20C,0.01600*%
%ADD21R,0.03562X0.03562*%
%ADD22OC8,0.03562*%
%ADD23C,0.05000*%
D10*
X0007370Y0040620D02*
X0007370Y0217785D01*
X0401071Y0217785D01*
X0401071Y0040620D01*
X0007370Y0040620D01*
X0038039Y0125581D02*
X0038041Y0125712D01*
X0038047Y0125844D01*
X0038057Y0125975D01*
X0038071Y0126106D01*
X0038089Y0126236D01*
X0038111Y0126365D01*
X0038136Y0126494D01*
X0038166Y0126622D01*
X0038200Y0126749D01*
X0038237Y0126876D01*
X0038278Y0127000D01*
X0038323Y0127124D01*
X0038372Y0127246D01*
X0038424Y0127367D01*
X0038480Y0127485D01*
X0038540Y0127603D01*
X0038603Y0127718D01*
X0038670Y0127831D01*
X0038740Y0127943D01*
X0038813Y0128052D01*
X0038889Y0128158D01*
X0038969Y0128263D01*
X0039052Y0128365D01*
X0039138Y0128464D01*
X0039227Y0128561D01*
X0039319Y0128655D01*
X0039414Y0128746D01*
X0039511Y0128835D01*
X0039611Y0128920D01*
X0039714Y0129002D01*
X0039819Y0129081D01*
X0039926Y0129157D01*
X0040036Y0129229D01*
X0040148Y0129298D01*
X0040262Y0129364D01*
X0040377Y0129426D01*
X0040495Y0129485D01*
X0040614Y0129540D01*
X0040735Y0129592D01*
X0040858Y0129639D01*
X0040982Y0129683D01*
X0041107Y0129724D01*
X0041233Y0129760D01*
X0041361Y0129793D01*
X0041489Y0129821D01*
X0041618Y0129846D01*
X0041748Y0129867D01*
X0041878Y0129884D01*
X0042009Y0129897D01*
X0042140Y0129906D01*
X0042271Y0129911D01*
X0042403Y0129912D01*
X0042534Y0129909D01*
X0042666Y0129902D01*
X0042797Y0129891D01*
X0042927Y0129876D01*
X0043057Y0129857D01*
X0043187Y0129834D01*
X0043315Y0129808D01*
X0043443Y0129777D01*
X0043570Y0129742D01*
X0043696Y0129704D01*
X0043820Y0129662D01*
X0043944Y0129616D01*
X0044065Y0129566D01*
X0044185Y0129513D01*
X0044304Y0129456D01*
X0044421Y0129396D01*
X0044535Y0129332D01*
X0044648Y0129264D01*
X0044759Y0129193D01*
X0044868Y0129119D01*
X0044974Y0129042D01*
X0045078Y0128961D01*
X0045179Y0128878D01*
X0045278Y0128791D01*
X0045374Y0128701D01*
X0045467Y0128608D01*
X0045558Y0128513D01*
X0045645Y0128415D01*
X0045730Y0128314D01*
X0045811Y0128211D01*
X0045889Y0128105D01*
X0045964Y0127997D01*
X0046036Y0127887D01*
X0046104Y0127775D01*
X0046169Y0127661D01*
X0046230Y0127544D01*
X0046288Y0127426D01*
X0046342Y0127306D01*
X0046393Y0127185D01*
X0046440Y0127062D01*
X0046483Y0126938D01*
X0046522Y0126813D01*
X0046558Y0126686D01*
X0046589Y0126558D01*
X0046617Y0126430D01*
X0046641Y0126301D01*
X0046661Y0126171D01*
X0046677Y0126040D01*
X0046689Y0125909D01*
X0046697Y0125778D01*
X0046701Y0125647D01*
X0046701Y0125515D01*
X0046697Y0125384D01*
X0046689Y0125253D01*
X0046677Y0125122D01*
X0046661Y0124991D01*
X0046641Y0124861D01*
X0046617Y0124732D01*
X0046589Y0124604D01*
X0046558Y0124476D01*
X0046522Y0124349D01*
X0046483Y0124224D01*
X0046440Y0124100D01*
X0046393Y0123977D01*
X0046342Y0123856D01*
X0046288Y0123736D01*
X0046230Y0123618D01*
X0046169Y0123501D01*
X0046104Y0123387D01*
X0046036Y0123275D01*
X0045964Y0123165D01*
X0045889Y0123057D01*
X0045811Y0122951D01*
X0045730Y0122848D01*
X0045645Y0122747D01*
X0045558Y0122649D01*
X0045467Y0122554D01*
X0045374Y0122461D01*
X0045278Y0122371D01*
X0045179Y0122284D01*
X0045078Y0122201D01*
X0044974Y0122120D01*
X0044868Y0122043D01*
X0044759Y0121969D01*
X0044648Y0121898D01*
X0044536Y0121830D01*
X0044421Y0121766D01*
X0044304Y0121706D01*
X0044185Y0121649D01*
X0044065Y0121596D01*
X0043944Y0121546D01*
X0043820Y0121500D01*
X0043696Y0121458D01*
X0043570Y0121420D01*
X0043443Y0121385D01*
X0043315Y0121354D01*
X0043187Y0121328D01*
X0043057Y0121305D01*
X0042927Y0121286D01*
X0042797Y0121271D01*
X0042666Y0121260D01*
X0042534Y0121253D01*
X0042403Y0121250D01*
X0042271Y0121251D01*
X0042140Y0121256D01*
X0042009Y0121265D01*
X0041878Y0121278D01*
X0041748Y0121295D01*
X0041618Y0121316D01*
X0041489Y0121341D01*
X0041361Y0121369D01*
X0041233Y0121402D01*
X0041107Y0121438D01*
X0040982Y0121479D01*
X0040858Y0121523D01*
X0040735Y0121570D01*
X0040614Y0121622D01*
X0040495Y0121677D01*
X0040377Y0121736D01*
X0040262Y0121798D01*
X0040148Y0121864D01*
X0040036Y0121933D01*
X0039926Y0122005D01*
X0039819Y0122081D01*
X0039714Y0122160D01*
X0039611Y0122242D01*
X0039511Y0122327D01*
X0039414Y0122416D01*
X0039319Y0122507D01*
X0039227Y0122601D01*
X0039138Y0122698D01*
X0039052Y0122797D01*
X0038969Y0122899D01*
X0038889Y0123004D01*
X0038813Y0123110D01*
X0038740Y0123219D01*
X0038670Y0123331D01*
X0038603Y0123444D01*
X0038540Y0123559D01*
X0038480Y0123677D01*
X0038424Y0123795D01*
X0038372Y0123916D01*
X0038323Y0124038D01*
X0038278Y0124162D01*
X0038237Y0124286D01*
X0038200Y0124413D01*
X0038166Y0124540D01*
X0038136Y0124668D01*
X0038111Y0124797D01*
X0038089Y0124926D01*
X0038071Y0125056D01*
X0038057Y0125187D01*
X0038047Y0125318D01*
X0038041Y0125450D01*
X0038039Y0125581D01*
D11*
X0382370Y0165620D03*
X0392370Y0125620D03*
D12*
X0382370Y0125620D03*
X0392370Y0165620D03*
D13*
X0332370Y0160620D03*
X0302370Y0160620D03*
X0267370Y0180620D03*
X0247370Y0180620D03*
X0217370Y0170620D03*
X0207370Y0170620D03*
X0187370Y0170620D03*
X0177370Y0170620D03*
X0147370Y0170620D03*
X0137370Y0170620D03*
X0122370Y0170620D03*
X0102370Y0170620D03*
X0077370Y0170620D03*
X0057370Y0170620D03*
X0047370Y0170620D03*
X0047370Y0160620D03*
X0047370Y0150620D03*
X0027370Y0160620D03*
X0017370Y0170620D03*
X0017370Y0150620D03*
X0092370Y0120620D03*
X0102370Y0120620D03*
X0102370Y0110620D03*
X0122370Y0120620D03*
X0132370Y0120620D03*
X0132370Y0110620D03*
X0117370Y0098120D03*
X0112370Y0090620D03*
X0122370Y0090620D03*
X0122370Y0075620D03*
X0092370Y0075620D03*
X0092370Y0090620D03*
X0082370Y0090620D03*
X0082370Y0060620D03*
X0082370Y0050620D03*
X0092370Y0050620D03*
X0157370Y0075620D03*
X0177370Y0090620D03*
X0187370Y0075620D03*
X0212370Y0075620D03*
X0207370Y0090620D03*
X0222370Y0115620D03*
X0207370Y0125620D03*
X0237370Y0125620D03*
X0247370Y0130620D03*
X0267370Y0130620D03*
X0252370Y0115620D03*
X0267370Y0095620D03*
X0277370Y0095620D03*
X0332370Y0110620D03*
X0342370Y0110620D03*
X0352370Y0110620D03*
X0347370Y0103120D03*
X0332370Y0130620D03*
X0277370Y0065620D03*
X0267370Y0065620D03*
X0267370Y0050620D03*
X0277370Y0050620D03*
X0212370Y0045620D03*
X0162370Y0120620D03*
X0127370Y0190620D03*
X0137370Y0200620D03*
X0127370Y0210620D03*
X0097370Y0210620D03*
X0082370Y0200620D03*
X0077370Y0190620D03*
X0057370Y0190620D03*
X0052370Y0200620D03*
X0097370Y0190620D03*
X0157370Y0205620D03*
X0167370Y0205620D03*
X0162370Y0198120D03*
X0182370Y0210620D03*
X0212370Y0210620D03*
X0217370Y0200620D03*
D14*
X0227370Y0173020D02*
X0227370Y0168220D01*
X0237370Y0168220D02*
X0237370Y0173020D01*
X0247370Y0173020D02*
X0247370Y0168220D01*
X0257370Y0168220D02*
X0257370Y0173020D01*
X0267370Y0173020D02*
X0267370Y0168220D01*
X0277370Y0168220D02*
X0277370Y0173020D01*
X0287370Y0173020D02*
X0287370Y0168220D01*
X0287370Y0143020D02*
X0287370Y0138220D01*
X0284970Y0130620D02*
X0289770Y0130620D01*
X0277370Y0138220D02*
X0277370Y0143020D01*
X0267370Y0143020D02*
X0267370Y0138220D01*
X0257370Y0138220D02*
X0257370Y0143020D01*
X0247370Y0143020D02*
X0247370Y0138220D01*
X0237370Y0138220D02*
X0237370Y0143020D01*
X0227370Y0143020D02*
X0227370Y0138220D01*
X0142370Y0133020D02*
X0142370Y0128220D01*
X0132370Y0128220D02*
X0132370Y0133020D01*
X0122370Y0133020D02*
X0122370Y0128220D01*
X0112370Y0128220D02*
X0112370Y0133020D01*
X0102370Y0133020D02*
X0102370Y0128220D01*
X0092370Y0128220D02*
X0092370Y0133020D01*
X0082370Y0133020D02*
X0082370Y0128220D01*
X0082370Y0158220D02*
X0082370Y0163020D01*
X0092370Y0163020D02*
X0092370Y0158220D01*
X0102370Y0158220D02*
X0102370Y0163020D01*
X0112370Y0163020D02*
X0112370Y0158220D01*
X0122370Y0158220D02*
X0122370Y0163020D01*
X0132370Y0163020D02*
X0132370Y0158220D01*
X0142370Y0158220D02*
X0142370Y0163020D01*
X0084770Y0180620D02*
X0079970Y0180620D01*
X0054770Y0180620D02*
X0049970Y0180620D01*
X0094970Y0200620D02*
X0099770Y0200620D01*
X0124970Y0200620D02*
X0129770Y0200620D01*
X0314970Y0130620D02*
X0319770Y0130620D01*
X0354970Y0140620D02*
X0359770Y0140620D01*
X0359770Y0150620D02*
X0354970Y0150620D01*
X0359970Y0160620D02*
X0364770Y0160620D01*
X0364770Y0170620D02*
X0359970Y0170620D01*
X0384970Y0150620D02*
X0389770Y0150620D01*
X0389770Y0140620D02*
X0384970Y0140620D01*
X0364770Y0130620D02*
X0359970Y0130620D01*
X0359970Y0120620D02*
X0364770Y0120620D01*
D15*
X0064811Y0111802D02*
X0064811Y0102903D01*
X0019929Y0102903D02*
X0019929Y0111802D01*
X0019929Y0061802D02*
X0019929Y0052903D01*
X0064811Y0052903D02*
X0064811Y0061802D01*
D16*
X0296149Y0069754D02*
X0308591Y0069754D01*
X0336149Y0069754D02*
X0348591Y0069754D01*
X0376149Y0069754D02*
X0388591Y0069754D01*
X0388591Y0048888D02*
X0376149Y0048888D01*
X0348591Y0048888D02*
X0336149Y0048888D01*
X0308591Y0048888D02*
X0296149Y0048888D01*
X0296149Y0092589D02*
X0308591Y0092589D01*
X0336149Y0092589D02*
X0348591Y0092589D01*
X0376149Y0092589D02*
X0388591Y0092589D01*
D17*
X0387370Y0105620D03*
X0377370Y0105620D03*
X0372370Y0130620D03*
X0327370Y0120620D03*
X0297370Y0135620D03*
X0317370Y0145620D03*
X0282370Y0155620D03*
X0252370Y0160620D03*
X0242370Y0150620D03*
X0232370Y0150620D03*
X0212213Y0150620D03*
X0202370Y0140778D03*
X0192528Y0150620D03*
X0177213Y0150620D03*
X0167370Y0140778D03*
X0157528Y0150620D03*
X0147370Y0145620D03*
X0137370Y0145620D03*
X0127370Y0145620D03*
X0117370Y0145620D03*
X0097370Y0145620D03*
X0087370Y0145620D03*
X0062370Y0155620D03*
X0037370Y0140620D03*
X0027370Y0140620D03*
X0027370Y0130620D03*
X0042370Y0105620D03*
X0027370Y0090620D03*
X0027370Y0080620D03*
X0057370Y0080620D03*
X0057370Y0090620D03*
X0042370Y0055620D03*
X0137370Y0080620D03*
X0147370Y0080620D03*
X0147370Y0070620D03*
X0147370Y0060620D03*
X0147370Y0050620D03*
X0147370Y0090620D03*
X0157370Y0090620D03*
X0167370Y0090620D03*
X0162370Y0110620D03*
X0177528Y0120620D03*
X0187370Y0110778D03*
X0197213Y0120620D03*
X0212370Y0110620D03*
X0237370Y0110620D03*
X0237370Y0090620D03*
X0247370Y0090620D03*
X0227370Y0090620D03*
X0327370Y0170620D03*
X0287370Y0195620D03*
X0287370Y0205620D03*
X0302370Y0205620D03*
X0262370Y0195620D03*
X0227370Y0195620D03*
X0227370Y0205620D03*
X0182370Y0195620D03*
X0147370Y0210620D03*
X0137370Y0210620D03*
X0142370Y0190620D03*
X0037370Y0190620D03*
X0027370Y0190620D03*
X0027370Y0180620D03*
X0037370Y0180620D03*
X0037370Y0210620D03*
X0027370Y0210620D03*
X0017370Y0210620D03*
D18*
X0112528Y0063605D02*
X0112528Y0057005D01*
X0122370Y0057005D02*
X0122370Y0063605D01*
X0132213Y0063605D02*
X0132213Y0057005D01*
X0167528Y0057005D02*
X0167528Y0063605D01*
X0177370Y0063605D02*
X0177370Y0057005D01*
X0187213Y0057005D02*
X0187213Y0063605D01*
X0227528Y0063605D02*
X0227528Y0057005D01*
X0237370Y0057005D02*
X0237370Y0063605D01*
X0247213Y0063605D02*
X0247213Y0057005D01*
D19*
X0312370Y0195620D03*
X0322370Y0195620D03*
X0332370Y0195620D03*
X0342370Y0195620D03*
X0352370Y0195620D03*
X0362370Y0195620D03*
X0372370Y0195620D03*
X0382370Y0195620D03*
X0382370Y0205620D03*
X0372370Y0205620D03*
X0362370Y0205620D03*
X0352370Y0205620D03*
X0342370Y0205620D03*
X0332370Y0205620D03*
X0322370Y0205620D03*
X0312370Y0205620D03*
D20*
X0309416Y0208464D02*
X0288817Y0208464D01*
X0289172Y0208317D02*
X0288003Y0208801D01*
X0286737Y0208801D01*
X0285568Y0208317D01*
X0284673Y0207422D01*
X0284189Y0206253D01*
X0284189Y0204987D01*
X0284673Y0203818D01*
X0285568Y0202923D01*
X0286737Y0202439D01*
X0288003Y0202439D01*
X0289172Y0202923D01*
X0290067Y0203818D01*
X0290551Y0204987D01*
X0290551Y0206253D01*
X0290067Y0207422D01*
X0289172Y0208317D01*
X0290298Y0206865D02*
X0308270Y0206865D01*
X0308270Y0207318D02*
X0308270Y0203922D01*
X0310672Y0201520D01*
X0314068Y0201520D01*
X0316470Y0203922D01*
X0316470Y0207318D01*
X0314068Y0209720D01*
X0310672Y0209720D01*
X0308270Y0207318D01*
X0308270Y0205267D02*
X0290551Y0205267D01*
X0289917Y0203668D02*
X0308524Y0203668D01*
X0310122Y0202070D02*
X0221170Y0202070D01*
X0221170Y0202194D02*
X0218944Y0204420D01*
X0215796Y0204420D01*
X0214196Y0202820D01*
X0176459Y0202820D01*
X0175170Y0201531D01*
X0173959Y0200320D01*
X0165544Y0200320D01*
X0163944Y0201920D01*
X0160796Y0201920D01*
X0159570Y0200694D01*
X0159570Y0202446D01*
X0161170Y0204046D01*
X0161170Y0207194D01*
X0158944Y0209420D01*
X0155796Y0209420D01*
X0153570Y0207194D01*
X0153570Y0204046D01*
X0155170Y0202446D01*
X0155170Y0194709D01*
X0160170Y0189709D01*
X0161459Y0188420D01*
X0188281Y0188420D01*
X0193281Y0193420D01*
X0225071Y0193420D01*
X0225568Y0192923D01*
X0226737Y0192439D01*
X0228003Y0192439D01*
X0229172Y0192923D01*
X0230067Y0193818D01*
X0230551Y0194987D01*
X0230551Y0196253D01*
X0230067Y0197422D01*
X0229172Y0198317D01*
X0228003Y0198801D01*
X0226737Y0198801D01*
X0225568Y0198317D01*
X0225071Y0197820D01*
X0219944Y0197820D01*
X0221170Y0199046D01*
X0221170Y0202194D01*
X0221170Y0200471D02*
X0378470Y0200471D01*
X0378470Y0198873D02*
X0375481Y0198873D01*
X0374234Y0200120D02*
X0372470Y0200120D01*
X0372470Y0195720D01*
X0372270Y0195720D01*
X0372270Y0195520D01*
X0372470Y0195520D01*
X0372470Y0191236D01*
X0360161Y0178926D01*
X0360161Y0178926D01*
X0359064Y0177829D01*
X0358470Y0176396D01*
X0358470Y0174112D01*
X0357818Y0173842D01*
X0356749Y0172773D01*
X0356270Y0171617D01*
X0356270Y0176396D01*
X0355676Y0177829D01*
X0354579Y0178926D01*
X0349579Y0183926D01*
X0348146Y0184520D01*
X0263985Y0184520D01*
X0260676Y0187829D01*
X0259579Y0188926D01*
X0254579Y0193926D01*
X0253146Y0194520D01*
X0236594Y0194520D01*
X0235161Y0193926D01*
X0225755Y0184520D01*
X0126594Y0184520D01*
X0125161Y0183926D01*
X0124064Y0182829D01*
X0119064Y0177829D01*
X0115161Y0173926D01*
X0115161Y0173926D01*
X0110161Y0168926D01*
X0109064Y0167829D01*
X0108470Y0166396D01*
X0108470Y0159844D01*
X0108570Y0159603D01*
X0108570Y0157464D01*
X0109149Y0156068D01*
X0110218Y0154999D01*
X0111614Y0154420D01*
X0113126Y0154420D01*
X0114523Y0154999D01*
X0115592Y0156068D01*
X0116170Y0157464D01*
X0116170Y0159603D01*
X0116270Y0159844D01*
X0116270Y0164005D01*
X0118986Y0166720D01*
X0121373Y0166720D01*
X0120218Y0166242D01*
X0119149Y0165173D01*
X0118570Y0163776D01*
X0118570Y0157464D01*
X0119149Y0156068D01*
X0120218Y0154999D01*
X0121614Y0154420D01*
X0123126Y0154420D01*
X0124523Y0154999D01*
X0125592Y0156068D01*
X0126170Y0157464D01*
X0126170Y0163776D01*
X0125592Y0165173D01*
X0124523Y0166242D01*
X0123257Y0166766D01*
X0123387Y0166820D01*
X0123944Y0166820D01*
X0124338Y0167214D01*
X0124579Y0167314D01*
X0125676Y0168411D01*
X0125776Y0168652D01*
X0126170Y0169046D01*
X0126170Y0169603D01*
X0126270Y0169844D01*
X0126270Y0174005D01*
X0128986Y0176720D01*
X0226373Y0176720D01*
X0225218Y0176242D01*
X0224149Y0175173D01*
X0223570Y0173776D01*
X0223570Y0172820D01*
X0220544Y0172820D01*
X0218944Y0174420D01*
X0215796Y0174420D01*
X0213570Y0172194D01*
X0213570Y0169046D01*
X0215796Y0166820D01*
X0218944Y0166820D01*
X0220544Y0168420D01*
X0223570Y0168420D01*
X0223570Y0167464D01*
X0224149Y0166068D01*
X0225218Y0164999D01*
X0226614Y0164420D01*
X0228126Y0164420D01*
X0229523Y0164999D01*
X0230592Y0166068D01*
X0231170Y0167464D01*
X0231170Y0173776D01*
X0230592Y0175173D01*
X0229523Y0176242D01*
X0228257Y0176766D01*
X0229579Y0177314D01*
X0230676Y0178411D01*
X0238986Y0186720D01*
X0250755Y0186720D01*
X0253470Y0184005D01*
X0253470Y0169844D01*
X0253570Y0169603D01*
X0253570Y0167464D01*
X0254149Y0166068D01*
X0255218Y0164999D01*
X0256614Y0164420D01*
X0258126Y0164420D01*
X0259523Y0164999D01*
X0260592Y0166068D01*
X0261170Y0167464D01*
X0261170Y0169603D01*
X0261270Y0169844D01*
X0261270Y0174005D01*
X0263985Y0176720D01*
X0266373Y0176720D01*
X0265218Y0176242D01*
X0264149Y0175173D01*
X0263570Y0173776D01*
X0263570Y0167464D01*
X0264149Y0166068D01*
X0265218Y0164999D01*
X0266614Y0164420D01*
X0268126Y0164420D01*
X0269523Y0164999D01*
X0270592Y0166068D01*
X0271170Y0167464D01*
X0271170Y0173776D01*
X0270592Y0175173D01*
X0269523Y0176242D01*
X0268367Y0176720D01*
X0276373Y0176720D01*
X0275218Y0176242D01*
X0274149Y0175173D01*
X0273570Y0173776D01*
X0273570Y0167464D01*
X0274149Y0166068D01*
X0275170Y0165046D01*
X0275170Y0161531D01*
X0266459Y0152820D01*
X0265170Y0151531D01*
X0265170Y0146194D01*
X0264149Y0145173D01*
X0263570Y0143776D01*
X0263570Y0137464D01*
X0264149Y0136068D01*
X0265218Y0134999D01*
X0266614Y0134420D01*
X0268126Y0134420D01*
X0269523Y0134999D01*
X0270592Y0136068D01*
X0271170Y0137464D01*
X0271170Y0143776D01*
X0270592Y0145173D01*
X0269570Y0146194D01*
X0269570Y0149709D01*
X0279570Y0159709D01*
X0279570Y0165046D01*
X0280592Y0166068D01*
X0281170Y0167464D01*
X0281170Y0168420D01*
X0283570Y0168420D01*
X0283570Y0167464D01*
X0284149Y0166068D01*
X0285218Y0164999D01*
X0286614Y0164420D01*
X0288126Y0164420D01*
X0289523Y0164999D01*
X0290592Y0166068D01*
X0291170Y0167464D01*
X0291170Y0168420D01*
X0291459Y0168420D01*
X0298570Y0161309D01*
X0298570Y0159046D01*
X0300170Y0157446D01*
X0300170Y0149709D01*
X0305170Y0144709D01*
X0305170Y0124709D01*
X0310170Y0119709D01*
X0310170Y0119709D01*
X0311459Y0118420D01*
X0316459Y0118420D01*
X0320170Y0114709D01*
X0320170Y0089709D01*
X0325170Y0084709D01*
X0325170Y0074709D01*
X0326459Y0073420D01*
X0328551Y0071327D01*
X0328528Y0071270D01*
X0328528Y0068238D01*
X0328997Y0067104D01*
X0319570Y0076531D01*
X0319570Y0101531D01*
X0299570Y0121531D01*
X0298281Y0122820D01*
X0288281Y0122820D01*
X0284570Y0126531D01*
X0284281Y0126820D01*
X0290526Y0126820D01*
X0291923Y0127399D01*
X0292992Y0128468D01*
X0293570Y0129864D01*
X0293570Y0131376D01*
X0292992Y0132773D01*
X0291923Y0133842D01*
X0290526Y0134420D01*
X0284214Y0134420D01*
X0282818Y0133842D01*
X0281749Y0132773D01*
X0281170Y0131376D01*
X0281170Y0129864D01*
X0281749Y0128468D01*
X0282396Y0127820D01*
X0269944Y0127820D01*
X0271170Y0129046D01*
X0271170Y0132194D01*
X0268944Y0134420D01*
X0265796Y0134420D01*
X0263570Y0132194D01*
X0263570Y0129046D01*
X0264796Y0127820D01*
X0250510Y0127820D01*
X0251570Y0128880D01*
X0251570Y0130620D01*
X0247370Y0130620D01*
X0243170Y0130620D01*
X0243170Y0128880D01*
X0244230Y0127820D01*
X0240544Y0127820D01*
X0239570Y0128794D01*
X0239570Y0135046D01*
X0240592Y0136068D01*
X0241170Y0137464D01*
X0241170Y0143776D01*
X0240592Y0145173D01*
X0239523Y0146242D01*
X0238126Y0146820D01*
X0236614Y0146820D01*
X0235218Y0146242D01*
X0234149Y0145173D01*
X0233570Y0143776D01*
X0233570Y0142820D01*
X0231170Y0142820D01*
X0231170Y0143776D01*
X0230592Y0145173D01*
X0229523Y0146242D01*
X0228126Y0146820D01*
X0226614Y0146820D01*
X0225218Y0146242D01*
X0224149Y0145173D01*
X0223570Y0143776D01*
X0223570Y0137531D01*
X0223281Y0137820D01*
X0213729Y0147372D01*
X0213909Y0147447D01*
X0214495Y0147838D01*
X0214994Y0148337D01*
X0215386Y0148924D01*
X0215656Y0149576D01*
X0215794Y0150267D01*
X0215794Y0150620D01*
X0212213Y0150620D01*
X0212213Y0150620D01*
X0215794Y0150620D01*
X0215794Y0150973D01*
X0215656Y0151665D01*
X0215386Y0152316D01*
X0214994Y0152903D01*
X0214495Y0153402D01*
X0213909Y0153794D01*
X0213257Y0154064D01*
X0212565Y0154201D01*
X0212213Y0154201D01*
X0212213Y0150620D01*
X0212370Y0150778D01*
X0212370Y0165620D01*
X0207370Y0170620D01*
X0207370Y0170620D01*
X0207370Y0166420D01*
X0205630Y0166420D01*
X0203170Y0168880D01*
X0203170Y0170620D01*
X0207370Y0170620D01*
X0207370Y0170620D01*
X0207370Y0166420D01*
X0209110Y0166420D01*
X0211570Y0168880D01*
X0211570Y0170620D01*
X0207370Y0170620D01*
X0203170Y0170620D01*
X0203170Y0172360D01*
X0205630Y0174820D01*
X0207370Y0174820D01*
X0207370Y0170620D01*
X0207370Y0170620D01*
X0207370Y0170620D01*
X0211570Y0170620D01*
X0211570Y0172360D01*
X0209110Y0174820D01*
X0207370Y0174820D01*
X0207370Y0170620D01*
X0207370Y0170099D02*
X0207370Y0170099D01*
X0207370Y0168501D02*
X0207370Y0168501D01*
X0207370Y0166902D02*
X0207370Y0166902D01*
X0205148Y0166902D02*
X0189026Y0166902D01*
X0188944Y0166820D02*
X0191170Y0169046D01*
X0191170Y0172194D01*
X0188944Y0174420D01*
X0185796Y0174420D01*
X0183570Y0172194D01*
X0183570Y0169046D01*
X0185796Y0166820D01*
X0188944Y0166820D01*
X0190625Y0168501D02*
X0203549Y0168501D01*
X0203170Y0170099D02*
X0191170Y0170099D01*
X0191170Y0171698D02*
X0203170Y0171698D01*
X0204107Y0173297D02*
X0190068Y0173297D01*
X0184673Y0173297D02*
X0180068Y0173297D01*
X0181170Y0172194D02*
X0178944Y0174420D01*
X0175796Y0174420D01*
X0173570Y0172194D01*
X0173570Y0169046D01*
X0175796Y0166820D01*
X0178944Y0166820D01*
X0181170Y0169046D01*
X0181170Y0172194D01*
X0181170Y0171698D02*
X0183570Y0171698D01*
X0183570Y0170099D02*
X0181170Y0170099D01*
X0180625Y0168501D02*
X0184115Y0168501D01*
X0185714Y0166902D02*
X0179026Y0166902D01*
X0175714Y0166902D02*
X0169199Y0166902D01*
X0170797Y0165304D02*
X0224912Y0165304D01*
X0223803Y0166902D02*
X0219026Y0166902D01*
X0215714Y0166902D02*
X0209592Y0166902D01*
X0211191Y0168501D02*
X0214115Y0168501D01*
X0213570Y0170099D02*
X0211570Y0170099D01*
X0211570Y0171698D02*
X0213570Y0171698D01*
X0214673Y0173297D02*
X0210633Y0173297D01*
X0207370Y0173297D02*
X0207370Y0173297D01*
X0207370Y0171698D02*
X0207370Y0171698D01*
X0217370Y0170620D02*
X0227370Y0170620D01*
X0231170Y0170099D02*
X0233570Y0170099D01*
X0233570Y0168501D02*
X0231170Y0168501D01*
X0230937Y0166902D02*
X0233803Y0166902D01*
X0233570Y0167464D02*
X0234149Y0166068D01*
X0235218Y0164999D01*
X0236614Y0164420D01*
X0238126Y0164420D01*
X0239523Y0164999D01*
X0240592Y0166068D01*
X0241170Y0167464D01*
X0241170Y0173776D01*
X0240592Y0175173D01*
X0239523Y0176242D01*
X0238126Y0176820D01*
X0236614Y0176820D01*
X0235218Y0176242D01*
X0234149Y0175173D01*
X0233570Y0173776D01*
X0233570Y0167464D01*
X0234912Y0165304D02*
X0229828Y0165304D01*
X0239828Y0165304D02*
X0244912Y0165304D01*
X0245218Y0164999D02*
X0246614Y0164420D01*
X0248126Y0164420D01*
X0249523Y0164999D01*
X0250592Y0166068D01*
X0251170Y0167464D01*
X0251170Y0173776D01*
X0250592Y0175173D01*
X0249523Y0176242D01*
X0249092Y0176420D01*
X0249110Y0176420D01*
X0251570Y0178880D01*
X0251570Y0180620D01*
X0247370Y0180620D01*
X0243170Y0180620D01*
X0243170Y0178880D01*
X0245630Y0176420D01*
X0245649Y0176420D01*
X0245218Y0176242D01*
X0244149Y0175173D01*
X0243570Y0173776D01*
X0243570Y0167464D01*
X0244149Y0166068D01*
X0245218Y0164999D01*
X0243803Y0166902D02*
X0240937Y0166902D01*
X0241170Y0168501D02*
X0243570Y0168501D01*
X0243570Y0170099D02*
X0241170Y0170099D01*
X0241170Y0171698D02*
X0243570Y0171698D01*
X0243570Y0173297D02*
X0241170Y0173297D01*
X0240707Y0174895D02*
X0244034Y0174895D01*
X0245557Y0176494D02*
X0238914Y0176494D01*
X0235826Y0176494D02*
X0228914Y0176494D01*
X0230357Y0178092D02*
X0243958Y0178092D01*
X0243170Y0179691D02*
X0231956Y0179691D01*
X0230676Y0178411D02*
X0230676Y0178411D01*
X0233554Y0181289D02*
X0243170Y0181289D01*
X0243170Y0180620D02*
X0247370Y0180620D01*
X0247370Y0180620D01*
X0247370Y0180620D01*
X0247370Y0184820D01*
X0245630Y0184820D01*
X0243170Y0182360D01*
X0243170Y0180620D01*
X0243698Y0182888D02*
X0235153Y0182888D01*
X0236752Y0184486D02*
X0245296Y0184486D01*
X0247370Y0184486D02*
X0247370Y0184486D01*
X0247370Y0184820D02*
X0249110Y0184820D01*
X0251570Y0182360D01*
X0251570Y0180620D01*
X0247370Y0180620D01*
X0247370Y0180620D01*
X0247370Y0184820D01*
X0247370Y0182888D02*
X0247370Y0182888D01*
X0247370Y0181289D02*
X0247370Y0181289D01*
X0251042Y0182888D02*
X0253470Y0182888D01*
X0253470Y0181289D02*
X0251570Y0181289D01*
X0251570Y0179691D02*
X0253470Y0179691D01*
X0253470Y0178092D02*
X0250782Y0178092D01*
X0249183Y0176494D02*
X0253470Y0176494D01*
X0253470Y0174895D02*
X0250707Y0174895D01*
X0251170Y0173297D02*
X0253470Y0173297D01*
X0253470Y0171698D02*
X0251170Y0171698D01*
X0251170Y0170099D02*
X0253470Y0170099D01*
X0253570Y0168501D02*
X0251170Y0168501D01*
X0250937Y0166902D02*
X0253803Y0166902D01*
X0254912Y0165304D02*
X0249828Y0165304D01*
X0259828Y0165304D02*
X0264912Y0165304D01*
X0263803Y0166902D02*
X0260937Y0166902D01*
X0261170Y0168501D02*
X0263570Y0168501D01*
X0263570Y0170099D02*
X0261270Y0170099D01*
X0261270Y0171698D02*
X0263570Y0171698D01*
X0263570Y0173297D02*
X0261270Y0173297D01*
X0262160Y0174895D02*
X0264034Y0174895D01*
X0263759Y0176494D02*
X0265826Y0176494D01*
X0268914Y0176494D02*
X0275826Y0176494D01*
X0274034Y0174895D02*
X0270707Y0174895D01*
X0271170Y0173297D02*
X0273570Y0173297D01*
X0273570Y0171698D02*
X0271170Y0171698D01*
X0271170Y0170099D02*
X0273570Y0170099D01*
X0273570Y0168501D02*
X0271170Y0168501D01*
X0270937Y0166902D02*
X0273803Y0166902D01*
X0274912Y0165304D02*
X0269828Y0165304D01*
X0275170Y0163705D02*
X0172396Y0163705D01*
X0173994Y0162107D02*
X0275170Y0162107D01*
X0274147Y0160508D02*
X0175593Y0160508D01*
X0177191Y0158910D02*
X0272549Y0158910D01*
X0270950Y0157311D02*
X0178790Y0157311D01*
X0178281Y0157820D02*
X0163281Y0172820D01*
X0150544Y0172820D01*
X0148944Y0174420D01*
X0145796Y0174420D01*
X0143570Y0172194D01*
X0143570Y0169046D01*
X0145796Y0166820D01*
X0148944Y0166820D01*
X0150544Y0168420D01*
X0161459Y0168420D01*
X0175170Y0154709D01*
X0175170Y0153076D01*
X0174516Y0152422D01*
X0174031Y0151253D01*
X0174031Y0150550D01*
X0167440Y0143959D01*
X0166737Y0143959D01*
X0165568Y0143474D01*
X0164673Y0142580D01*
X0164189Y0141410D01*
X0164189Y0140145D01*
X0164673Y0138976D01*
X0165568Y0138081D01*
X0166737Y0137596D01*
X0168003Y0137596D01*
X0169172Y0138081D01*
X0170067Y0138976D01*
X0170551Y0140145D01*
X0170551Y0140847D01*
X0177143Y0147439D01*
X0177845Y0147439D01*
X0179015Y0147923D01*
X0179909Y0148818D01*
X0180394Y0149987D01*
X0180394Y0151253D01*
X0179909Y0152422D01*
X0179570Y0152761D01*
X0179570Y0156531D01*
X0178281Y0157820D01*
X0177370Y0155620D02*
X0177370Y0150778D01*
X0177213Y0150620D01*
X0167370Y0140778D01*
X0165019Y0142925D02*
X0159570Y0142925D01*
X0159570Y0144523D02*
X0168005Y0144523D01*
X0169603Y0146122D02*
X0159570Y0146122D01*
X0159570Y0147720D02*
X0171202Y0147720D01*
X0172800Y0149319D02*
X0160432Y0149319D01*
X0160224Y0148818D02*
X0160709Y0149987D01*
X0160709Y0151253D01*
X0160224Y0152422D01*
X0159330Y0153317D01*
X0158160Y0153801D01*
X0157300Y0153801D01*
X0149570Y0161531D01*
X0148281Y0162820D01*
X0146170Y0162820D01*
X0146170Y0163776D01*
X0145592Y0165173D01*
X0144523Y0166242D01*
X0143126Y0166820D01*
X0141614Y0166820D01*
X0140218Y0166242D01*
X0139149Y0165173D01*
X0138570Y0163776D01*
X0138570Y0157464D01*
X0139149Y0156068D01*
X0140218Y0154999D01*
X0141614Y0154420D01*
X0143126Y0154420D01*
X0144523Y0154999D01*
X0145592Y0156068D01*
X0146170Y0157464D01*
X0146170Y0158420D01*
X0146459Y0158420D01*
X0154346Y0150532D01*
X0154346Y0149987D01*
X0154831Y0148818D01*
X0155170Y0148479D01*
X0155170Y0116531D01*
X0138959Y0100320D01*
X0120544Y0100320D01*
X0118944Y0101920D01*
X0115796Y0101920D01*
X0113570Y0099694D01*
X0113570Y0096546D01*
X0115796Y0094320D01*
X0118944Y0094320D01*
X0120544Y0095920D01*
X0140781Y0095920D01*
X0158281Y0113420D01*
X0159570Y0114709D01*
X0159570Y0118046D01*
X0160796Y0116820D01*
X0163944Y0116820D01*
X0166170Y0119046D01*
X0166170Y0122194D01*
X0163944Y0124420D01*
X0160796Y0124420D01*
X0159570Y0123194D01*
X0159570Y0148164D01*
X0160224Y0148818D01*
X0160709Y0150917D02*
X0174031Y0150917D01*
X0174610Y0152516D02*
X0160131Y0152516D01*
X0157528Y0150620D02*
X0157370Y0150620D01*
X0147370Y0160620D01*
X0142370Y0160620D01*
X0138570Y0160508D02*
X0136170Y0160508D01*
X0136170Y0158910D02*
X0138570Y0158910D01*
X0138633Y0157311D02*
X0136107Y0157311D01*
X0136170Y0157464D02*
X0136170Y0163776D01*
X0135592Y0165173D01*
X0134523Y0166242D01*
X0133126Y0166820D01*
X0131614Y0166820D01*
X0130218Y0166242D01*
X0129149Y0165173D01*
X0128570Y0163776D01*
X0128570Y0157464D01*
X0129149Y0156068D01*
X0130218Y0154999D01*
X0131614Y0154420D01*
X0133126Y0154420D01*
X0134523Y0154999D01*
X0135592Y0156068D01*
X0136170Y0157464D01*
X0135237Y0155713D02*
X0139503Y0155713D01*
X0145237Y0155713D02*
X0149166Y0155713D01*
X0147567Y0157311D02*
X0146107Y0157311D01*
X0150764Y0154114D02*
X0056987Y0154114D01*
X0058586Y0152516D02*
X0152363Y0152516D01*
X0153962Y0150917D02*
X0060184Y0150917D01*
X0061783Y0149319D02*
X0154623Y0149319D01*
X0155170Y0147720D02*
X0063381Y0147720D01*
X0063281Y0147820D02*
X0051170Y0159931D01*
X0051170Y0162194D01*
X0049570Y0163794D01*
X0049570Y0167446D01*
X0051170Y0169046D01*
X0051170Y0172194D01*
X0048944Y0174420D01*
X0045796Y0174420D01*
X0043570Y0172194D01*
X0043570Y0169046D01*
X0045170Y0167446D01*
X0045170Y0163794D01*
X0043570Y0162194D01*
X0043570Y0159046D01*
X0045796Y0156820D01*
X0048059Y0156820D01*
X0060170Y0144709D01*
X0060170Y0129709D01*
X0061459Y0128420D01*
X0090170Y0099709D01*
X0090170Y0093794D01*
X0088570Y0092194D01*
X0088570Y0089046D01*
X0090796Y0086820D01*
X0093944Y0086820D01*
X0095170Y0088046D01*
X0095170Y0081531D01*
X0093059Y0079420D01*
X0090796Y0079420D01*
X0088570Y0077194D01*
X0088570Y0074046D01*
X0090796Y0071820D01*
X0093944Y0071820D01*
X0096170Y0074046D01*
X0096170Y0076309D01*
X0098281Y0078420D01*
X0099570Y0079709D01*
X0099570Y0106531D01*
X0094570Y0111531D01*
X0094570Y0117446D01*
X0096170Y0119046D01*
X0096170Y0122194D01*
X0094570Y0123794D01*
X0094570Y0125046D01*
X0095592Y0126068D01*
X0096170Y0127464D01*
X0096170Y0133776D01*
X0095592Y0135173D01*
X0094523Y0136242D01*
X0093126Y0136820D01*
X0091614Y0136820D01*
X0090218Y0136242D01*
X0089149Y0135173D01*
X0088570Y0133776D01*
X0088570Y0127464D01*
X0089149Y0126068D01*
X0090170Y0125046D01*
X0090170Y0123794D01*
X0088570Y0122194D01*
X0088570Y0119046D01*
X0090170Y0117446D01*
X0090170Y0109709D01*
X0091459Y0108420D01*
X0095170Y0104709D01*
X0095170Y0093194D01*
X0094570Y0093794D01*
X0094570Y0101531D01*
X0064570Y0131531D01*
X0064570Y0146531D01*
X0063281Y0147820D01*
X0064570Y0146122D02*
X0155170Y0146122D01*
X0155170Y0144523D02*
X0064570Y0144523D01*
X0064570Y0142925D02*
X0155170Y0142925D01*
X0155170Y0141326D02*
X0064570Y0141326D01*
X0064570Y0139728D02*
X0155170Y0139728D01*
X0155170Y0138129D02*
X0064570Y0138129D01*
X0064570Y0136531D02*
X0080916Y0136531D01*
X0081614Y0136820D02*
X0080218Y0136242D01*
X0079149Y0135173D01*
X0078570Y0133776D01*
X0078570Y0127464D01*
X0079149Y0126068D01*
X0080218Y0124999D01*
X0081614Y0124420D01*
X0083126Y0124420D01*
X0084523Y0124999D01*
X0085592Y0126068D01*
X0086170Y0127464D01*
X0086170Y0133776D01*
X0085592Y0135173D01*
X0084523Y0136242D01*
X0083126Y0136820D01*
X0081614Y0136820D01*
X0083824Y0136531D02*
X0090916Y0136531D01*
X0089049Y0134932D02*
X0085691Y0134932D01*
X0086170Y0133334D02*
X0088570Y0133334D01*
X0088570Y0131735D02*
X0086170Y0131735D01*
X0086170Y0130137D02*
X0088570Y0130137D01*
X0088570Y0128538D02*
X0086170Y0128538D01*
X0085953Y0126940D02*
X0088787Y0126940D01*
X0089875Y0125341D02*
X0084865Y0125341D01*
X0090119Y0123743D02*
X0072359Y0123743D01*
X0070760Y0125341D02*
X0079875Y0125341D01*
X0078787Y0126940D02*
X0069162Y0126940D01*
X0067563Y0128538D02*
X0078570Y0128538D01*
X0078570Y0130137D02*
X0065965Y0130137D01*
X0064570Y0131735D02*
X0078570Y0131735D01*
X0078570Y0133334D02*
X0064570Y0133334D01*
X0064570Y0134932D02*
X0079049Y0134932D01*
X0092370Y0130620D02*
X0092370Y0120620D01*
X0092370Y0110620D01*
X0097370Y0105620D01*
X0097370Y0080620D01*
X0092370Y0075620D01*
X0088570Y0075787D02*
X0010170Y0075787D01*
X0010170Y0074189D02*
X0088570Y0074189D01*
X0090026Y0072590D02*
X0010170Y0072590D01*
X0010170Y0070992D02*
X0108887Y0070992D01*
X0110328Y0069551D02*
X0110328Y0067781D01*
X0109865Y0067590D01*
X0108543Y0066267D01*
X0107828Y0064540D01*
X0107828Y0056070D01*
X0108543Y0054343D01*
X0109865Y0053021D01*
X0111593Y0052305D01*
X0113462Y0052305D01*
X0115190Y0053021D01*
X0116512Y0054343D01*
X0117228Y0056070D01*
X0117228Y0064540D01*
X0116512Y0066267D01*
X0115190Y0067590D01*
X0114728Y0067781D01*
X0114728Y0071374D01*
X0104570Y0081531D01*
X0104570Y0107446D01*
X0106170Y0109046D01*
X0106170Y0112194D01*
X0103944Y0114420D01*
X0100796Y0114420D01*
X0098570Y0112194D01*
X0098570Y0109046D01*
X0100170Y0107446D01*
X0100170Y0079709D01*
X0110328Y0069551D01*
X0110328Y0069393D02*
X0010170Y0069393D01*
X0010170Y0067795D02*
X0063031Y0067795D01*
X0063348Y0067898D02*
X0062412Y0067594D01*
X0061536Y0067147D01*
X0060740Y0066569D01*
X0060044Y0065873D01*
X0059466Y0065077D01*
X0059019Y0064201D01*
X0058715Y0063265D01*
X0058561Y0062294D01*
X0058561Y0058127D01*
X0064036Y0058127D01*
X0064036Y0056578D01*
X0058561Y0056578D01*
X0058561Y0052411D01*
X0058715Y0051439D01*
X0059019Y0050504D01*
X0059466Y0049627D01*
X0060044Y0048831D01*
X0060740Y0048136D01*
X0061536Y0047558D01*
X0062412Y0047111D01*
X0063348Y0046807D01*
X0064036Y0046698D01*
X0064036Y0056577D01*
X0065586Y0056577D01*
X0065586Y0046698D01*
X0066274Y0046807D01*
X0067210Y0047111D01*
X0068087Y0047558D01*
X0068882Y0048136D01*
X0069578Y0048831D01*
X0070156Y0049627D01*
X0070603Y0050504D01*
X0070907Y0051439D01*
X0071061Y0052411D01*
X0071061Y0056578D01*
X0065586Y0056578D01*
X0065586Y0058127D01*
X0071061Y0058127D01*
X0071061Y0062294D01*
X0070907Y0063265D01*
X0070603Y0064201D01*
X0070156Y0065077D01*
X0069578Y0065873D01*
X0068882Y0066569D01*
X0068087Y0067147D01*
X0067210Y0067594D01*
X0066274Y0067898D01*
X0065586Y0068007D01*
X0065586Y0058127D01*
X0064036Y0058127D01*
X0064036Y0068007D01*
X0063348Y0067898D01*
X0064036Y0067795D02*
X0065586Y0067795D01*
X0066591Y0067795D02*
X0110328Y0067795D01*
X0108514Y0066196D02*
X0069255Y0066196D01*
X0070401Y0064598D02*
X0107851Y0064598D01*
X0107828Y0062999D02*
X0085365Y0062999D01*
X0086170Y0062194D02*
X0083944Y0064420D01*
X0080796Y0064420D01*
X0078570Y0062194D01*
X0078570Y0059046D01*
X0080170Y0057446D01*
X0080170Y0053794D01*
X0078570Y0052194D01*
X0078570Y0049046D01*
X0080796Y0046820D01*
X0083944Y0046820D01*
X0086170Y0049046D01*
X0086170Y0052194D01*
X0084570Y0053794D01*
X0084570Y0057446D01*
X0086170Y0059046D01*
X0086170Y0062194D01*
X0086170Y0061401D02*
X0107828Y0061401D01*
X0107828Y0059802D02*
X0086170Y0059802D01*
X0085328Y0058204D02*
X0107828Y0058204D01*
X0107828Y0056605D02*
X0084570Y0056605D01*
X0084570Y0055007D02*
X0108268Y0055007D01*
X0109478Y0053408D02*
X0095522Y0053408D01*
X0096570Y0052360D02*
X0094110Y0054820D01*
X0092370Y0054820D01*
X0090630Y0054820D01*
X0088170Y0052360D01*
X0088170Y0050620D01*
X0088170Y0048880D01*
X0090630Y0046420D01*
X0092370Y0046420D01*
X0092370Y0050620D01*
X0092370Y0050620D01*
X0088170Y0050620D01*
X0092370Y0050620D01*
X0092370Y0050620D01*
X0087370Y0045620D01*
X0077370Y0045620D01*
X0072370Y0050620D01*
X0072370Y0055620D01*
X0070638Y0057352D01*
X0064811Y0057352D01*
X0055638Y0057352D01*
X0042370Y0070620D01*
X0042370Y0090620D01*
X0025638Y0107352D01*
X0019929Y0107352D01*
X0019929Y0118061D01*
X0017370Y0120620D01*
X0017370Y0150620D01*
X0017370Y0150620D01*
X0017370Y0146420D01*
X0015630Y0146420D01*
X0013170Y0148880D01*
X0013170Y0150620D01*
X0017370Y0150620D01*
X0017370Y0150620D01*
X0017370Y0195620D01*
X0022370Y0200620D01*
X0052370Y0200620D01*
X0052370Y0200620D01*
X0052370Y0196420D01*
X0050630Y0196420D01*
X0048170Y0198880D01*
X0048170Y0200620D01*
X0052370Y0200620D01*
X0052370Y0200620D01*
X0052370Y0205620D01*
X0057370Y0210620D01*
X0097370Y0210620D01*
X0097370Y0210620D01*
X0097370Y0206420D01*
X0095630Y0206420D01*
X0093170Y0208880D01*
X0093170Y0210620D01*
X0097370Y0210620D01*
X0097370Y0210620D01*
X0102370Y0210620D01*
X0107370Y0205620D01*
X0107370Y0175620D01*
X0102370Y0170620D01*
X0098170Y0170620D01*
X0098170Y0168880D01*
X0100630Y0166420D01*
X0100649Y0166420D01*
X0100218Y0166242D01*
X0099149Y0165173D01*
X0098570Y0163776D01*
X0098570Y0157464D01*
X0099149Y0156068D01*
X0100218Y0154999D01*
X0101614Y0154420D01*
X0103126Y0154420D01*
X0104523Y0154999D01*
X0105592Y0156068D01*
X0106170Y0157464D01*
X0106170Y0163776D01*
X0105592Y0165173D01*
X0104523Y0166242D01*
X0104092Y0166420D01*
X0104110Y0166420D01*
X0106570Y0168880D01*
X0106570Y0170620D01*
X0102370Y0170620D01*
X0102370Y0170620D01*
X0107370Y0165620D01*
X0107370Y0140620D01*
X0102370Y0135620D01*
X0102370Y0120620D01*
X0102370Y0120620D01*
X0102370Y0116420D01*
X0100630Y0116420D01*
X0098170Y0118880D01*
X0098170Y0120620D01*
X0102370Y0120620D01*
X0102370Y0120620D01*
X0102370Y0116420D01*
X0104110Y0116420D01*
X0106570Y0118880D01*
X0106570Y0120620D01*
X0102370Y0120620D01*
X0098170Y0120620D01*
X0098170Y0122360D01*
X0100347Y0124537D01*
X0100169Y0124628D01*
X0099634Y0125016D01*
X0099166Y0125484D01*
X0098778Y0126019D01*
X0098478Y0126608D01*
X0098273Y0127237D01*
X0098170Y0127890D01*
X0098170Y0130620D01*
X0102370Y0130620D01*
X0102370Y0130620D01*
X0102370Y0130620D01*
X0102370Y0120620D01*
X0102370Y0120620D01*
X0102370Y0120620D01*
X0106570Y0120620D01*
X0106570Y0122360D01*
X0104393Y0124537D01*
X0104571Y0124628D01*
X0105106Y0125016D01*
X0105574Y0125484D01*
X0105962Y0126019D01*
X0106262Y0126608D01*
X0106467Y0127237D01*
X0106570Y0127890D01*
X0106570Y0130620D01*
X0102370Y0130620D01*
X0098170Y0130620D01*
X0098170Y0133351D01*
X0098273Y0134004D01*
X0098478Y0134632D01*
X0098778Y0135221D01*
X0099166Y0135756D01*
X0099634Y0136224D01*
X0100169Y0136612D01*
X0100758Y0136912D01*
X0101387Y0137117D01*
X0102040Y0137220D01*
X0102370Y0137220D01*
X0102370Y0130620D01*
X0102370Y0124820D01*
X0102370Y0120620D01*
X0102370Y0120546D02*
X0102370Y0120546D01*
X0102370Y0122144D02*
X0102370Y0122144D01*
X0102370Y0123743D02*
X0102370Y0123743D01*
X0102370Y0125341D02*
X0102370Y0125341D01*
X0102370Y0126940D02*
X0102370Y0126940D01*
X0102370Y0128538D02*
X0102370Y0128538D01*
X0102370Y0130137D02*
X0102370Y0130137D01*
X0102370Y0130620D02*
X0102370Y0130620D01*
X0102370Y0130620D01*
X0106570Y0130620D01*
X0106570Y0133351D01*
X0106467Y0134004D01*
X0106262Y0134632D01*
X0105962Y0135221D01*
X0105574Y0135756D01*
X0105106Y0136224D01*
X0104571Y0136612D01*
X0103982Y0136912D01*
X0103354Y0137117D01*
X0102701Y0137220D01*
X0102370Y0137220D01*
X0102370Y0130620D01*
X0102370Y0131735D02*
X0102370Y0131735D01*
X0102370Y0133334D02*
X0102370Y0133334D01*
X0102370Y0134932D02*
X0102370Y0134932D01*
X0102370Y0136531D02*
X0102370Y0136531D01*
X0100057Y0136531D02*
X0093824Y0136531D01*
X0095691Y0134932D02*
X0098631Y0134932D01*
X0098170Y0133334D02*
X0096170Y0133334D01*
X0096170Y0131735D02*
X0098170Y0131735D01*
X0098170Y0130137D02*
X0096170Y0130137D01*
X0096170Y0128538D02*
X0098170Y0128538D01*
X0098370Y0126940D02*
X0095953Y0126940D01*
X0094865Y0125341D02*
X0099309Y0125341D01*
X0099553Y0123743D02*
X0094621Y0123743D01*
X0096170Y0122144D02*
X0098170Y0122144D01*
X0098170Y0120546D02*
X0096170Y0120546D01*
X0096071Y0118947D02*
X0098170Y0118947D01*
X0099702Y0117349D02*
X0094570Y0117349D01*
X0094570Y0115750D02*
X0130170Y0115750D01*
X0130170Y0114152D02*
X0104213Y0114152D01*
X0105811Y0112553D02*
X0128929Y0112553D01*
X0128570Y0112194D02*
X0128570Y0109046D01*
X0130796Y0106820D01*
X0133944Y0106820D01*
X0136170Y0109046D01*
X0136170Y0112194D01*
X0134570Y0113794D01*
X0134570Y0117446D01*
X0136170Y0119046D01*
X0136170Y0122194D01*
X0134570Y0123794D01*
X0134570Y0125046D01*
X0135592Y0126068D01*
X0136170Y0127464D01*
X0136170Y0133776D01*
X0135592Y0135173D01*
X0134523Y0136242D01*
X0133126Y0136820D01*
X0131614Y0136820D01*
X0130218Y0136242D01*
X0129149Y0135173D01*
X0128570Y0133776D01*
X0128570Y0127464D01*
X0129149Y0126068D01*
X0130170Y0125046D01*
X0130170Y0123794D01*
X0128570Y0122194D01*
X0128570Y0119046D01*
X0130170Y0117446D01*
X0130170Y0113794D01*
X0128570Y0112194D01*
X0128570Y0110955D02*
X0106170Y0110955D01*
X0106170Y0109356D02*
X0128570Y0109356D01*
X0129859Y0107758D02*
X0104882Y0107758D01*
X0104570Y0106159D02*
X0144798Y0106159D01*
X0146396Y0107758D02*
X0134882Y0107758D01*
X0136170Y0109356D02*
X0147995Y0109356D01*
X0149593Y0110955D02*
X0136170Y0110955D01*
X0135811Y0112553D02*
X0151192Y0112553D01*
X0152790Y0114152D02*
X0134570Y0114152D01*
X0134570Y0115750D02*
X0154389Y0115750D01*
X0155170Y0117349D02*
X0134570Y0117349D01*
X0136071Y0118947D02*
X0155170Y0118947D01*
X0155170Y0120546D02*
X0136170Y0120546D01*
X0136170Y0122144D02*
X0155170Y0122144D01*
X0155170Y0123743D02*
X0134621Y0123743D01*
X0134865Y0125341D02*
X0139875Y0125341D01*
X0140218Y0124999D02*
X0139149Y0126068D01*
X0138570Y0127464D01*
X0138570Y0133776D01*
X0139149Y0135173D01*
X0140218Y0136242D01*
X0141614Y0136820D01*
X0143126Y0136820D01*
X0144523Y0136242D01*
X0145592Y0135173D01*
X0146170Y0133776D01*
X0146170Y0127464D01*
X0145592Y0126068D01*
X0144523Y0124999D01*
X0143126Y0124420D01*
X0141614Y0124420D01*
X0140218Y0124999D01*
X0138787Y0126940D02*
X0135953Y0126940D01*
X0136170Y0128538D02*
X0138570Y0128538D01*
X0138570Y0130137D02*
X0136170Y0130137D01*
X0136170Y0131735D02*
X0138570Y0131735D01*
X0138570Y0133334D02*
X0136170Y0133334D01*
X0135691Y0134932D02*
X0139049Y0134932D01*
X0140916Y0136531D02*
X0133824Y0136531D01*
X0130916Y0136531D02*
X0124683Y0136531D01*
X0124571Y0136612D02*
X0123982Y0136912D01*
X0123354Y0137117D01*
X0122701Y0137220D01*
X0122370Y0137220D01*
X0122040Y0137220D01*
X0121387Y0137117D01*
X0120758Y0136912D01*
X0120169Y0136612D01*
X0119634Y0136224D01*
X0119166Y0135756D01*
X0118778Y0135221D01*
X0118478Y0134632D01*
X0118273Y0134004D01*
X0118170Y0133351D01*
X0118170Y0130620D01*
X0118170Y0127890D01*
X0118273Y0127237D01*
X0118478Y0126608D01*
X0118778Y0126019D01*
X0119166Y0125484D01*
X0119634Y0125016D01*
X0120169Y0124628D01*
X0120722Y0124346D01*
X0118570Y0122194D01*
X0118570Y0119046D01*
X0120796Y0116820D01*
X0123944Y0116820D01*
X0126170Y0119046D01*
X0126170Y0122194D01*
X0124018Y0124346D01*
X0124571Y0124628D01*
X0125106Y0125016D01*
X0125574Y0125484D01*
X0125962Y0126019D01*
X0126262Y0126608D01*
X0126467Y0127237D01*
X0126570Y0127890D01*
X0126570Y0130620D01*
X0122370Y0130620D01*
X0118170Y0130620D01*
X0122370Y0130620D01*
X0122370Y0130620D01*
X0122370Y0135620D01*
X0117370Y0140620D01*
X0107370Y0140620D01*
X0104683Y0136531D02*
X0110916Y0136531D01*
X0111614Y0136820D02*
X0110218Y0136242D01*
X0109149Y0135173D01*
X0108570Y0133776D01*
X0108570Y0127464D01*
X0109149Y0126068D01*
X0110218Y0124999D01*
X0111614Y0124420D01*
X0113126Y0124420D01*
X0114523Y0124999D01*
X0115592Y0126068D01*
X0116170Y0127464D01*
X0116170Y0133776D01*
X0115592Y0135173D01*
X0114523Y0136242D01*
X0113126Y0136820D01*
X0111614Y0136820D01*
X0113824Y0136531D02*
X0120057Y0136531D01*
X0118631Y0134932D02*
X0115691Y0134932D01*
X0116170Y0133334D02*
X0118170Y0133334D01*
X0118170Y0131735D02*
X0116170Y0131735D01*
X0116170Y0130137D02*
X0118170Y0130137D01*
X0118170Y0128538D02*
X0116170Y0128538D01*
X0115953Y0126940D02*
X0118370Y0126940D01*
X0119309Y0125341D02*
X0114865Y0125341D01*
X0109875Y0125341D02*
X0105431Y0125341D01*
X0105187Y0123743D02*
X0120119Y0123743D01*
X0118570Y0122144D02*
X0106570Y0122144D01*
X0106570Y0120546D02*
X0118570Y0120546D01*
X0118669Y0118947D02*
X0106570Y0118947D01*
X0105038Y0117349D02*
X0120268Y0117349D01*
X0124473Y0117349D02*
X0130170Y0117349D01*
X0128669Y0118947D02*
X0126071Y0118947D01*
X0126170Y0120546D02*
X0128570Y0120546D01*
X0128570Y0122144D02*
X0126170Y0122144D01*
X0124621Y0123743D02*
X0130119Y0123743D01*
X0129875Y0125341D02*
X0125431Y0125341D01*
X0126370Y0126940D02*
X0128787Y0126940D01*
X0128570Y0128538D02*
X0126570Y0128538D01*
X0126570Y0130137D02*
X0128570Y0130137D01*
X0128570Y0131735D02*
X0126570Y0131735D01*
X0126570Y0130620D02*
X0126570Y0133351D01*
X0126467Y0134004D01*
X0126262Y0134632D01*
X0125962Y0135221D01*
X0125574Y0135756D01*
X0125106Y0136224D01*
X0124571Y0136612D01*
X0122370Y0136531D02*
X0122370Y0136531D01*
X0122370Y0137220D02*
X0122370Y0130620D01*
X0122370Y0130620D01*
X0122370Y0130620D01*
X0126570Y0130620D01*
X0126570Y0133334D02*
X0128570Y0133334D01*
X0129049Y0134932D02*
X0126110Y0134932D01*
X0122370Y0134932D02*
X0122370Y0134932D01*
X0122370Y0133334D02*
X0122370Y0133334D01*
X0122370Y0131735D02*
X0122370Y0131735D01*
X0122370Y0130620D02*
X0122370Y0137220D01*
X0132370Y0130620D02*
X0132370Y0120620D01*
X0132370Y0110620D01*
X0143199Y0104561D02*
X0104570Y0104561D01*
X0104570Y0102962D02*
X0141601Y0102962D01*
X0140002Y0101364D02*
X0119501Y0101364D01*
X0115240Y0101364D02*
X0104570Y0101364D01*
X0104570Y0099765D02*
X0113641Y0099765D01*
X0113570Y0098166D02*
X0104570Y0098166D01*
X0104570Y0096568D02*
X0113570Y0096568D01*
X0113944Y0094420D02*
X0110796Y0094420D01*
X0108570Y0092194D01*
X0108570Y0089046D01*
X0110796Y0086820D01*
X0113944Y0086820D01*
X0116170Y0089046D01*
X0116170Y0092194D01*
X0113944Y0094420D01*
X0115147Y0094969D02*
X0104570Y0094969D01*
X0104570Y0093371D02*
X0109747Y0093371D01*
X0108570Y0091772D02*
X0104570Y0091772D01*
X0104570Y0090174D02*
X0108570Y0090174D01*
X0109041Y0088575D02*
X0104570Y0088575D01*
X0104570Y0086977D02*
X0110639Y0086977D01*
X0114101Y0086977D02*
X0120639Y0086977D01*
X0120796Y0086820D02*
X0123944Y0086820D01*
X0126170Y0089046D01*
X0126170Y0092194D01*
X0123944Y0094420D01*
X0120796Y0094420D01*
X0118570Y0092194D01*
X0118570Y0089046D01*
X0120796Y0086820D01*
X0119041Y0088575D02*
X0115699Y0088575D01*
X0116170Y0090174D02*
X0118570Y0090174D01*
X0118570Y0091772D02*
X0116170Y0091772D01*
X0114993Y0093371D02*
X0119747Y0093371D01*
X0119593Y0094969D02*
X0175328Y0094969D01*
X0175328Y0093952D02*
X0173570Y0092194D01*
X0173570Y0089046D01*
X0175796Y0086820D01*
X0178944Y0086820D01*
X0181170Y0089046D01*
X0181170Y0092194D01*
X0179728Y0093637D01*
X0179728Y0118321D01*
X0180224Y0118818D01*
X0180709Y0119987D01*
X0180709Y0121253D01*
X0180224Y0122422D01*
X0179330Y0123317D01*
X0178160Y0123801D01*
X0176895Y0123801D01*
X0175726Y0123317D01*
X0174831Y0122422D01*
X0174346Y0121253D01*
X0174346Y0119987D01*
X0174831Y0118818D01*
X0175328Y0118321D01*
X0175328Y0093952D01*
X0174747Y0093371D02*
X0124993Y0093371D01*
X0126170Y0091772D02*
X0173570Y0091772D01*
X0173570Y0090174D02*
X0126170Y0090174D01*
X0125699Y0088575D02*
X0174041Y0088575D01*
X0175639Y0086977D02*
X0124101Y0086977D01*
X0123944Y0079420D02*
X0120796Y0079420D01*
X0118570Y0077194D01*
X0118570Y0074046D01*
X0120170Y0072446D01*
X0120170Y0067781D01*
X0119708Y0067590D01*
X0118386Y0066267D01*
X0117670Y0064540D01*
X0117670Y0056070D01*
X0118386Y0054343D01*
X0119708Y0053021D01*
X0121435Y0052305D01*
X0123305Y0052305D01*
X0125032Y0053021D01*
X0126355Y0054343D01*
X0127070Y0056070D01*
X0127070Y0058105D01*
X0127513Y0058105D01*
X0127513Y0056070D01*
X0128228Y0054343D01*
X0129550Y0053021D01*
X0131278Y0052305D01*
X0133147Y0052305D01*
X0134875Y0053021D01*
X0136197Y0054343D01*
X0136913Y0056070D01*
X0136913Y0064540D01*
X0136197Y0066267D01*
X0134875Y0067590D01*
X0133147Y0068305D01*
X0131278Y0068305D01*
X0129550Y0067590D01*
X0128228Y0066267D01*
X0127513Y0064540D01*
X0127513Y0062505D01*
X0127070Y0062505D01*
X0127070Y0064540D01*
X0126355Y0066267D01*
X0125032Y0067590D01*
X0124570Y0067781D01*
X0124570Y0072446D01*
X0126170Y0074046D01*
X0126170Y0077194D01*
X0123944Y0079420D01*
X0124380Y0078984D02*
X0155360Y0078984D01*
X0155796Y0079420D02*
X0153570Y0077194D01*
X0153570Y0074046D01*
X0155796Y0071820D01*
X0158944Y0071820D01*
X0160544Y0073420D01*
X0173281Y0073420D01*
X0178281Y0078420D01*
X0184796Y0078420D01*
X0183570Y0077194D01*
X0183570Y0074046D01*
X0185170Y0072446D01*
X0185170Y0067846D01*
X0184550Y0067590D01*
X0183228Y0066267D01*
X0182513Y0064540D01*
X0182513Y0062820D01*
X0182070Y0062820D01*
X0182070Y0064540D01*
X0181355Y0066267D01*
X0180032Y0067590D01*
X0178305Y0068305D01*
X0176435Y0068305D01*
X0174708Y0067590D01*
X0173386Y0066267D01*
X0172670Y0064540D01*
X0172670Y0056070D01*
X0173386Y0054343D01*
X0174708Y0053021D01*
X0176435Y0052305D01*
X0178305Y0052305D01*
X0180032Y0053021D01*
X0181355Y0054343D01*
X0182070Y0056070D01*
X0182070Y0058420D01*
X0182513Y0058420D01*
X0182513Y0056070D01*
X0183228Y0054343D01*
X0184550Y0053021D01*
X0186278Y0052305D01*
X0188147Y0052305D01*
X0189875Y0053021D01*
X0191197Y0054343D01*
X0191913Y0056070D01*
X0191913Y0064540D01*
X0191197Y0066267D01*
X0189875Y0067590D01*
X0189570Y0067716D01*
X0189570Y0072446D01*
X0191170Y0074046D01*
X0191170Y0077194D01*
X0189113Y0079251D01*
X0189570Y0079709D01*
X0199570Y0089709D01*
X0199570Y0107439D01*
X0199731Y0107439D01*
X0200551Y0108259D01*
X0200551Y0112981D01*
X0199731Y0113801D01*
X0195009Y0113801D01*
X0194189Y0112981D01*
X0194189Y0108259D01*
X0195009Y0107439D01*
X0195170Y0107439D01*
X0195170Y0091531D01*
X0186459Y0082820D01*
X0176459Y0082820D01*
X0171459Y0077820D01*
X0160544Y0077820D01*
X0158944Y0079420D01*
X0155796Y0079420D01*
X0153762Y0077386D02*
X0125978Y0077386D01*
X0126170Y0075787D02*
X0153570Y0075787D01*
X0153570Y0074189D02*
X0126170Y0074189D01*
X0124714Y0072590D02*
X0155026Y0072590D01*
X0157370Y0075620D02*
X0172370Y0075620D01*
X0177370Y0080620D01*
X0187370Y0080620D01*
X0197370Y0090620D01*
X0197370Y0110620D01*
X0194189Y0110955D02*
X0190551Y0110955D01*
X0190551Y0111410D02*
X0190067Y0112580D01*
X0189172Y0113474D01*
X0188003Y0113959D01*
X0186737Y0113959D01*
X0185568Y0113474D01*
X0184673Y0112580D01*
X0184189Y0111410D01*
X0184189Y0110145D01*
X0184673Y0108976D01*
X0185568Y0108081D01*
X0186737Y0107596D01*
X0188003Y0107596D01*
X0189172Y0108081D01*
X0190067Y0108976D01*
X0190551Y0110145D01*
X0190551Y0111410D01*
X0190078Y0112553D02*
X0194189Y0112553D01*
X0200551Y0112553D02*
X0220063Y0112553D01*
X0220796Y0111820D02*
X0223944Y0111820D01*
X0226170Y0114046D01*
X0226170Y0117194D01*
X0224570Y0118794D01*
X0224570Y0135646D01*
X0225218Y0134999D01*
X0226614Y0134420D01*
X0228126Y0134420D01*
X0229523Y0134999D01*
X0230592Y0136068D01*
X0231170Y0137464D01*
X0231170Y0138420D01*
X0233570Y0138420D01*
X0233570Y0137464D01*
X0234149Y0136068D01*
X0235170Y0135046D01*
X0235170Y0128794D01*
X0233570Y0127194D01*
X0233570Y0124046D01*
X0235796Y0121820D01*
X0238944Y0121820D01*
X0240544Y0123420D01*
X0275671Y0123420D01*
X0275071Y0122820D01*
X0261459Y0122820D01*
X0256459Y0117820D01*
X0256001Y0117363D01*
X0253944Y0119420D01*
X0250796Y0119420D01*
X0248570Y0117194D01*
X0248570Y0114046D01*
X0250796Y0111820D01*
X0253944Y0111820D01*
X0255170Y0113046D01*
X0255170Y0091531D01*
X0235170Y0071531D01*
X0235170Y0067781D01*
X0234708Y0067590D01*
X0233386Y0066267D01*
X0232670Y0064540D01*
X0232670Y0056070D01*
X0233386Y0054343D01*
X0234708Y0053021D01*
X0236435Y0052305D01*
X0238305Y0052305D01*
X0240032Y0053021D01*
X0241355Y0054343D01*
X0242070Y0056070D01*
X0242070Y0064540D01*
X0241355Y0066267D01*
X0240032Y0067590D01*
X0239570Y0067781D01*
X0239570Y0069709D01*
X0259570Y0089709D01*
X0259570Y0114709D01*
X0263281Y0118420D01*
X0275071Y0118420D01*
X0276052Y0117439D01*
X0278688Y0117439D01*
X0280551Y0119302D01*
X0280551Y0121938D01*
X0279069Y0123420D01*
X0281459Y0123420D01*
X0285170Y0119709D01*
X0286459Y0118420D01*
X0296459Y0118420D01*
X0315170Y0099709D01*
X0315170Y0096621D01*
X0315052Y0096906D01*
X0312908Y0099050D01*
X0310107Y0100210D01*
X0294633Y0100210D01*
X0291832Y0099050D01*
X0289688Y0096906D01*
X0288528Y0094105D01*
X0288528Y0091073D01*
X0289688Y0088271D01*
X0291832Y0086128D01*
X0294633Y0084967D01*
X0310107Y0084967D01*
X0312908Y0086128D01*
X0315052Y0088271D01*
X0315170Y0088556D01*
X0315170Y0074709D01*
X0316459Y0073420D01*
X0330170Y0059709D01*
X0330170Y0059709D01*
X0331459Y0058420D01*
X0358281Y0058420D01*
X0359570Y0059709D01*
X0367415Y0067554D01*
X0368811Y0067554D01*
X0369688Y0065437D01*
X0371832Y0063293D01*
X0374633Y0062133D01*
X0390107Y0062133D01*
X0392908Y0063293D01*
X0395052Y0065437D01*
X0396213Y0068238D01*
X0396213Y0071270D01*
X0395052Y0074071D01*
X0392908Y0076215D01*
X0390107Y0077375D01*
X0374633Y0077375D01*
X0371832Y0076215D01*
X0369688Y0074071D01*
X0368811Y0071954D01*
X0365593Y0071954D01*
X0356459Y0062820D01*
X0351767Y0062820D01*
X0352908Y0063293D01*
X0355052Y0065437D01*
X0356213Y0068238D01*
X0356213Y0071270D01*
X0355052Y0074071D01*
X0352908Y0076215D01*
X0350107Y0077375D01*
X0334633Y0077375D01*
X0331832Y0076215D01*
X0330859Y0075242D01*
X0329570Y0076531D01*
X0329570Y0086531D01*
X0324570Y0091531D01*
X0324570Y0116531D01*
X0323281Y0117820D01*
X0318281Y0122820D01*
X0313281Y0122820D01*
X0309570Y0126531D01*
X0309570Y0146531D01*
X0304570Y0151531D01*
X0304570Y0157446D01*
X0306170Y0159046D01*
X0306170Y0162194D01*
X0303944Y0164420D01*
X0301681Y0164420D01*
X0293281Y0172820D01*
X0291170Y0172820D01*
X0291170Y0173776D01*
X0290592Y0175173D01*
X0289523Y0176242D01*
X0288367Y0176720D01*
X0345755Y0176720D01*
X0348470Y0174005D01*
X0348470Y0164844D01*
X0349064Y0163411D01*
X0354064Y0158411D01*
X0355161Y0157314D01*
X0356594Y0156720D01*
X0365755Y0156720D01*
X0369064Y0153411D01*
X0369064Y0153411D01*
X0370161Y0152314D01*
X0374064Y0148411D01*
X0375161Y0147314D01*
X0376594Y0146720D01*
X0388146Y0146720D01*
X0388387Y0146820D01*
X0390526Y0146820D01*
X0391923Y0147399D01*
X0392992Y0148468D01*
X0393570Y0149864D01*
X0393570Y0151376D01*
X0392992Y0152773D01*
X0391923Y0153842D01*
X0390526Y0154420D01*
X0388387Y0154420D01*
X0388146Y0154520D01*
X0378986Y0154520D01*
X0376270Y0157235D01*
X0376270Y0159005D01*
X0378986Y0161720D01*
X0379835Y0161720D01*
X0380485Y0161070D01*
X0384255Y0161070D01*
X0386920Y0163735D01*
X0386920Y0167505D01*
X0384255Y0170170D01*
X0380485Y0170170D01*
X0379835Y0169520D01*
X0371594Y0169520D01*
X0370161Y0168926D01*
X0369064Y0167829D01*
X0365755Y0164520D01*
X0358986Y0164520D01*
X0356270Y0167236D01*
X0356270Y0169623D01*
X0356749Y0168468D01*
X0357818Y0167399D01*
X0359214Y0166820D01*
X0361353Y0166820D01*
X0361594Y0166720D01*
X0363146Y0166720D01*
X0363387Y0166820D01*
X0365526Y0166820D01*
X0366923Y0167399D01*
X0367992Y0168468D01*
X0368570Y0169864D01*
X0368570Y0171376D01*
X0367992Y0172773D01*
X0366923Y0173842D01*
X0366346Y0174080D01*
X0383785Y0191520D01*
X0384068Y0191520D01*
X0386470Y0193922D01*
X0386470Y0197318D01*
X0386270Y0197518D01*
X0386270Y0203722D01*
X0386470Y0203922D01*
X0386470Y0207318D01*
X0384068Y0209720D01*
X0380672Y0209720D01*
X0378270Y0207318D01*
X0378270Y0203922D01*
X0378470Y0203722D01*
X0378470Y0197518D01*
X0378270Y0197318D01*
X0378270Y0197035D01*
X0376755Y0195520D01*
X0372470Y0195520D01*
X0372470Y0195720D01*
X0376870Y0195720D01*
X0376870Y0197484D01*
X0374234Y0200120D01*
X0374234Y0201120D02*
X0376870Y0203756D01*
X0376870Y0205520D01*
X0372470Y0205520D01*
X0372470Y0201120D01*
X0374234Y0201120D01*
X0375184Y0202070D02*
X0378470Y0202070D01*
X0378470Y0203668D02*
X0376782Y0203668D01*
X0376870Y0205267D02*
X0378270Y0205267D01*
X0376870Y0205720D02*
X0376870Y0207484D01*
X0374234Y0210120D01*
X0372470Y0210120D01*
X0372470Y0205720D01*
X0376870Y0205720D01*
X0376870Y0206865D02*
X0378270Y0206865D01*
X0379416Y0208464D02*
X0375890Y0208464D01*
X0374292Y0210062D02*
X0398271Y0210062D01*
X0398271Y0208464D02*
X0385325Y0208464D01*
X0386470Y0206865D02*
X0398271Y0206865D01*
X0398271Y0205267D02*
X0386470Y0205267D01*
X0386270Y0203668D02*
X0398271Y0203668D01*
X0398271Y0202070D02*
X0386270Y0202070D01*
X0386270Y0200471D02*
X0398271Y0200471D01*
X0398271Y0198873D02*
X0386270Y0198873D01*
X0386470Y0197274D02*
X0398271Y0197274D01*
X0398271Y0195676D02*
X0386470Y0195676D01*
X0386470Y0194077D02*
X0398271Y0194077D01*
X0398271Y0192479D02*
X0385027Y0192479D01*
X0383146Y0190880D02*
X0398271Y0190880D01*
X0398271Y0189282D02*
X0381547Y0189282D01*
X0379949Y0187683D02*
X0398271Y0187683D01*
X0398271Y0186085D02*
X0378350Y0186085D01*
X0376752Y0184486D02*
X0398271Y0184486D01*
X0398271Y0182888D02*
X0375153Y0182888D01*
X0373554Y0181289D02*
X0398271Y0181289D01*
X0398271Y0179691D02*
X0371956Y0179691D01*
X0370357Y0178092D02*
X0398271Y0178092D01*
X0398271Y0176494D02*
X0368759Y0176494D01*
X0367160Y0174895D02*
X0398271Y0174895D01*
X0398271Y0173297D02*
X0367468Y0173297D01*
X0368437Y0171698D02*
X0398271Y0171698D01*
X0398271Y0170099D02*
X0394482Y0170099D01*
X0394270Y0170207D02*
X0393529Y0170448D01*
X0392760Y0170570D01*
X0392370Y0170570D01*
X0391980Y0170570D01*
X0391211Y0170448D01*
X0390470Y0170207D01*
X0389776Y0169854D01*
X0389145Y0169396D01*
X0388594Y0168845D01*
X0388136Y0168214D01*
X0387783Y0167520D01*
X0387542Y0166779D01*
X0387420Y0166010D01*
X0387420Y0165620D01*
X0387420Y0165230D01*
X0387542Y0164461D01*
X0387783Y0163720D01*
X0388136Y0163026D01*
X0388594Y0162395D01*
X0389145Y0161844D01*
X0389776Y0161386D01*
X0390470Y0161033D01*
X0391211Y0160792D01*
X0391980Y0160670D01*
X0392370Y0160670D01*
X0392370Y0165620D01*
X0392370Y0165620D01*
X0387420Y0165620D01*
X0392370Y0165620D01*
X0392370Y0165620D01*
X0392370Y0205620D01*
X0387370Y0210620D01*
X0377370Y0210620D01*
X0372370Y0205620D01*
X0362370Y0205620D01*
X0362370Y0195620D01*
X0352370Y0195620D01*
X0352370Y0205620D01*
X0347370Y0210620D01*
X0212370Y0210620D01*
X0212370Y0210620D01*
X0212370Y0206420D01*
X0210630Y0206420D01*
X0208170Y0208880D01*
X0208170Y0210620D01*
X0212370Y0210620D01*
X0212370Y0210620D01*
X0212370Y0206420D01*
X0214110Y0206420D01*
X0216570Y0208880D01*
X0216570Y0210620D01*
X0212370Y0210620D01*
X0208170Y0210620D01*
X0208170Y0212360D01*
X0210630Y0214820D01*
X0212370Y0214820D01*
X0212370Y0210620D01*
X0212370Y0210620D01*
X0212370Y0210620D01*
X0216570Y0210620D01*
X0216570Y0212360D01*
X0214110Y0214820D01*
X0212370Y0214820D01*
X0212370Y0210620D01*
X0212370Y0210062D02*
X0212370Y0210062D01*
X0212370Y0208464D02*
X0212370Y0208464D01*
X0212370Y0206865D02*
X0212370Y0206865D01*
X0210185Y0206865D02*
X0183989Y0206865D01*
X0183944Y0206820D02*
X0186170Y0209046D01*
X0186170Y0212194D01*
X0183944Y0214420D01*
X0180796Y0214420D01*
X0178570Y0212194D01*
X0178570Y0209046D01*
X0180796Y0206820D01*
X0183944Y0206820D01*
X0185588Y0208464D02*
X0208587Y0208464D01*
X0208170Y0210062D02*
X0186170Y0210062D01*
X0186170Y0211661D02*
X0208170Y0211661D01*
X0209070Y0213259D02*
X0185105Y0213259D01*
X0179635Y0213259D02*
X0130105Y0213259D01*
X0131170Y0212194D02*
X0128944Y0214420D01*
X0125796Y0214420D01*
X0123570Y0212194D01*
X0123570Y0209046D01*
X0125170Y0207446D01*
X0125170Y0204420D01*
X0124214Y0204420D01*
X0122818Y0203842D01*
X0121749Y0202773D01*
X0121170Y0201376D01*
X0121170Y0199864D01*
X0121749Y0198468D01*
X0122818Y0197399D01*
X0124214Y0196820D01*
X0130526Y0196820D01*
X0131923Y0197399D01*
X0132992Y0198468D01*
X0133570Y0199864D01*
X0133570Y0201376D01*
X0132992Y0202773D01*
X0131923Y0203842D01*
X0130526Y0204420D01*
X0129570Y0204420D01*
X0129570Y0207446D01*
X0131170Y0209046D01*
X0131170Y0212194D01*
X0131170Y0211661D02*
X0178570Y0211661D01*
X0178570Y0210062D02*
X0131170Y0210062D01*
X0130588Y0208464D02*
X0154840Y0208464D01*
X0153570Y0206865D02*
X0129570Y0206865D01*
X0129570Y0205267D02*
X0153570Y0205267D01*
X0153948Y0203668D02*
X0139696Y0203668D01*
X0138944Y0204420D02*
X0141170Y0202194D01*
X0141170Y0199046D01*
X0138944Y0196820D01*
X0135796Y0196820D01*
X0133570Y0199046D01*
X0133570Y0202194D01*
X0135796Y0204420D01*
X0138944Y0204420D01*
X0141170Y0202070D02*
X0155170Y0202070D01*
X0155170Y0200471D02*
X0141170Y0200471D01*
X0140997Y0198873D02*
X0155170Y0198873D01*
X0155170Y0197274D02*
X0139398Y0197274D01*
X0135342Y0197274D02*
X0131622Y0197274D01*
X0133159Y0198873D02*
X0133743Y0198873D01*
X0133570Y0200471D02*
X0133570Y0200471D01*
X0133570Y0202070D02*
X0133283Y0202070D01*
X0132096Y0203668D02*
X0135044Y0203668D01*
X0127370Y0200620D02*
X0127370Y0210620D01*
X0123570Y0210062D02*
X0101570Y0210062D01*
X0101570Y0210620D02*
X0097370Y0210620D01*
X0097370Y0206420D01*
X0099110Y0206420D01*
X0101570Y0208880D01*
X0101570Y0210620D01*
X0101570Y0212360D01*
X0099110Y0214820D01*
X0097370Y0214820D01*
X0095630Y0214820D01*
X0093170Y0212360D01*
X0093170Y0210620D01*
X0097370Y0210620D01*
X0097370Y0210620D01*
X0097370Y0214820D01*
X0097370Y0210620D01*
X0097370Y0210620D01*
X0101570Y0210620D01*
X0101570Y0211661D02*
X0123570Y0211661D01*
X0124635Y0213259D02*
X0100671Y0213259D01*
X0097370Y0213259D02*
X0097370Y0213259D01*
X0097370Y0211661D02*
X0097370Y0211661D01*
X0097370Y0210062D02*
X0097370Y0210062D01*
X0097370Y0208464D02*
X0097370Y0208464D01*
X0097370Y0206865D02*
X0097370Y0206865D01*
X0095185Y0206865D02*
X0094236Y0206865D01*
X0094570Y0206531D02*
X0093281Y0207820D01*
X0071459Y0207820D01*
X0066459Y0202820D01*
X0065170Y0201531D01*
X0065170Y0191531D01*
X0057201Y0183563D01*
X0056923Y0183842D01*
X0055526Y0184420D01*
X0049214Y0184420D01*
X0047818Y0183842D01*
X0046749Y0182773D01*
X0046170Y0181376D01*
X0046170Y0179864D01*
X0046749Y0178468D01*
X0047818Y0177399D01*
X0049214Y0176820D01*
X0050170Y0176820D01*
X0050170Y0174709D01*
X0051459Y0173420D01*
X0053570Y0171309D01*
X0053570Y0169046D01*
X0055796Y0166820D01*
X0058059Y0166820D01*
X0060170Y0164709D01*
X0060170Y0164709D01*
X0061459Y0163420D01*
X0071459Y0163420D01*
X0075170Y0159709D01*
X0076459Y0158420D01*
X0078570Y0158420D01*
X0078570Y0157464D01*
X0079149Y0156068D01*
X0080218Y0154999D01*
X0081614Y0154420D01*
X0083126Y0154420D01*
X0084523Y0154999D01*
X0085592Y0156068D01*
X0086170Y0157464D01*
X0086170Y0163776D01*
X0085592Y0165173D01*
X0084523Y0166242D01*
X0083126Y0166820D01*
X0081614Y0166820D01*
X0080218Y0166242D01*
X0079149Y0165173D01*
X0078570Y0163776D01*
X0078570Y0162820D01*
X0078281Y0162820D01*
X0073281Y0167820D01*
X0063281Y0167820D01*
X0061170Y0169931D01*
X0061170Y0172194D01*
X0058944Y0174420D01*
X0056681Y0174420D01*
X0054570Y0176531D01*
X0054570Y0176820D01*
X0055526Y0176820D01*
X0056923Y0177399D01*
X0057944Y0178420D01*
X0058281Y0178420D01*
X0059570Y0179709D01*
X0069570Y0189709D01*
X0069570Y0199709D01*
X0073281Y0203420D01*
X0079796Y0203420D01*
X0078570Y0202194D01*
X0078570Y0199931D01*
X0075170Y0196531D01*
X0075170Y0193794D01*
X0073570Y0192194D01*
X0073570Y0189046D01*
X0075796Y0186820D01*
X0078944Y0186820D01*
X0081170Y0189046D01*
X0081170Y0192194D01*
X0079570Y0193794D01*
X0079570Y0194709D01*
X0081681Y0196820D01*
X0083944Y0196820D01*
X0086170Y0199046D01*
X0086170Y0202194D01*
X0084944Y0203420D01*
X0091459Y0203420D01*
X0091927Y0202951D01*
X0091749Y0202773D01*
X0091170Y0201376D01*
X0091170Y0199864D01*
X0091749Y0198468D01*
X0092818Y0197399D01*
X0094214Y0196820D01*
X0100526Y0196820D01*
X0101923Y0197399D01*
X0102992Y0198468D01*
X0103570Y0199864D01*
X0103570Y0201376D01*
X0102992Y0202773D01*
X0101923Y0203842D01*
X0100526Y0204420D01*
X0096681Y0204420D01*
X0094570Y0206531D01*
X0095835Y0205267D02*
X0125170Y0205267D01*
X0125170Y0206865D02*
X0099555Y0206865D01*
X0101153Y0208464D02*
X0124152Y0208464D01*
X0122644Y0203668D02*
X0102096Y0203668D01*
X0103283Y0202070D02*
X0121457Y0202070D01*
X0121170Y0200471D02*
X0103570Y0200471D01*
X0103159Y0198873D02*
X0121581Y0198873D01*
X0123118Y0197274D02*
X0101622Y0197274D01*
X0098944Y0194420D02*
X0095796Y0194420D01*
X0093570Y0192194D01*
X0093570Y0189931D01*
X0087201Y0183563D01*
X0086923Y0183842D01*
X0085526Y0184420D01*
X0079214Y0184420D01*
X0077818Y0183842D01*
X0076749Y0182773D01*
X0076170Y0181376D01*
X0076170Y0179864D01*
X0076749Y0178468D01*
X0077818Y0177399D01*
X0079214Y0176820D01*
X0080170Y0176820D01*
X0080170Y0176531D01*
X0078059Y0174420D01*
X0075796Y0174420D01*
X0073570Y0172194D01*
X0073570Y0169046D01*
X0075796Y0166820D01*
X0078944Y0166820D01*
X0080544Y0168420D01*
X0086459Y0168420D01*
X0089427Y0165451D01*
X0089149Y0165173D01*
X0088570Y0163776D01*
X0088570Y0157464D01*
X0089149Y0156068D01*
X0090218Y0154999D01*
X0091614Y0154420D01*
X0093126Y0154420D01*
X0094523Y0154999D01*
X0095592Y0156068D01*
X0096170Y0157464D01*
X0096170Y0163776D01*
X0095592Y0165173D01*
X0094570Y0166194D01*
X0094570Y0166531D01*
X0093281Y0167820D01*
X0088281Y0172820D01*
X0082681Y0172820D01*
X0084570Y0174709D01*
X0084570Y0176820D01*
X0085526Y0176820D01*
X0086923Y0177399D01*
X0087944Y0178420D01*
X0088281Y0178420D01*
X0089570Y0179709D01*
X0096681Y0186820D01*
X0098944Y0186820D01*
X0101170Y0189046D01*
X0101170Y0192194D01*
X0098944Y0194420D01*
X0099287Y0194077D02*
X0125453Y0194077D01*
X0125796Y0194420D02*
X0123570Y0192194D01*
X0123570Y0189046D01*
X0125796Y0186820D01*
X0128944Y0186820D01*
X0131170Y0189046D01*
X0131170Y0192194D01*
X0128944Y0194420D01*
X0125796Y0194420D01*
X0123855Y0192479D02*
X0100885Y0192479D01*
X0101170Y0190880D02*
X0123570Y0190880D01*
X0123570Y0189282D02*
X0101170Y0189282D01*
X0099807Y0187683D02*
X0124933Y0187683D01*
X0126512Y0184486D02*
X0094347Y0184486D01*
X0092749Y0182888D02*
X0124122Y0182888D01*
X0122524Y0181289D02*
X0091150Y0181289D01*
X0089552Y0179691D02*
X0120925Y0179691D01*
X0119327Y0178092D02*
X0087616Y0178092D01*
X0087370Y0180620D02*
X0082370Y0180620D01*
X0082370Y0175620D01*
X0077370Y0170620D01*
X0087370Y0170620D01*
X0092370Y0165620D01*
X0092370Y0160620D01*
X0088570Y0160508D02*
X0086170Y0160508D01*
X0086170Y0158910D02*
X0088570Y0158910D01*
X0088633Y0157311D02*
X0086107Y0157311D01*
X0085237Y0155713D02*
X0089503Y0155713D01*
X0095237Y0155713D02*
X0099503Y0155713D01*
X0098633Y0157311D02*
X0096107Y0157311D01*
X0096170Y0158910D02*
X0098570Y0158910D01*
X0098570Y0160508D02*
X0096170Y0160508D01*
X0096170Y0162107D02*
X0098570Y0162107D01*
X0098570Y0163705D02*
X0096170Y0163705D01*
X0095460Y0165304D02*
X0099280Y0165304D01*
X0100148Y0166902D02*
X0094199Y0166902D01*
X0092600Y0168501D02*
X0098549Y0168501D01*
X0098170Y0170099D02*
X0091002Y0170099D01*
X0089403Y0171698D02*
X0098170Y0171698D01*
X0098170Y0172360D02*
X0098170Y0170620D01*
X0102370Y0170620D01*
X0102370Y0170620D01*
X0102370Y0174820D01*
X0100630Y0174820D01*
X0098170Y0172360D01*
X0099107Y0173297D02*
X0083158Y0173297D01*
X0084570Y0174895D02*
X0116130Y0174895D01*
X0117728Y0176494D02*
X0084570Y0176494D01*
X0080132Y0176494D02*
X0054608Y0176494D01*
X0056206Y0174895D02*
X0078534Y0174895D01*
X0074673Y0173297D02*
X0060068Y0173297D01*
X0061170Y0171698D02*
X0073570Y0171698D01*
X0073570Y0170099D02*
X0061170Y0170099D01*
X0062600Y0168501D02*
X0074115Y0168501D01*
X0074199Y0166902D02*
X0075714Y0166902D01*
X0075797Y0165304D02*
X0079280Y0165304D01*
X0079026Y0166902D02*
X0087976Y0166902D01*
X0089280Y0165304D02*
X0085460Y0165304D01*
X0086170Y0163705D02*
X0088570Y0163705D01*
X0088570Y0162107D02*
X0086170Y0162107D01*
X0082370Y0160620D02*
X0077370Y0160620D01*
X0072370Y0165620D01*
X0062370Y0165620D01*
X0057370Y0170620D01*
X0052370Y0175620D01*
X0052370Y0180620D01*
X0057370Y0180620D01*
X0067370Y0190620D01*
X0067370Y0200620D01*
X0072370Y0205620D01*
X0092370Y0205620D01*
X0097370Y0200620D01*
X0093118Y0197274D02*
X0084398Y0197274D01*
X0085997Y0198873D02*
X0091581Y0198873D01*
X0091170Y0200471D02*
X0086170Y0200471D01*
X0086170Y0202070D02*
X0091457Y0202070D01*
X0093587Y0208464D02*
X0010170Y0208464D01*
X0010170Y0210062D02*
X0093170Y0210062D01*
X0093170Y0211661D02*
X0010170Y0211661D01*
X0010170Y0213259D02*
X0094070Y0213259D01*
X0078570Y0202070D02*
X0071931Y0202070D01*
X0070332Y0200471D02*
X0078570Y0200471D01*
X0077511Y0198873D02*
X0069570Y0198873D01*
X0069570Y0197274D02*
X0075913Y0197274D01*
X0075170Y0195676D02*
X0069570Y0195676D01*
X0069570Y0194077D02*
X0075170Y0194077D01*
X0073855Y0192479D02*
X0069570Y0192479D01*
X0069570Y0190880D02*
X0073570Y0190880D01*
X0073570Y0189282D02*
X0069143Y0189282D01*
X0067544Y0187683D02*
X0074933Y0187683D01*
X0077370Y0190620D02*
X0077370Y0195620D01*
X0082370Y0200620D01*
X0080537Y0195676D02*
X0155170Y0195676D01*
X0155802Y0194077D02*
X0129287Y0194077D01*
X0130885Y0192479D02*
X0157400Y0192479D01*
X0158999Y0190880D02*
X0131170Y0190880D01*
X0131170Y0189282D02*
X0160597Y0189282D01*
X0162370Y0190620D02*
X0187370Y0190620D01*
X0192370Y0195620D01*
X0227370Y0195620D01*
X0230551Y0195676D02*
X0284189Y0195676D01*
X0284189Y0196253D02*
X0284189Y0194987D01*
X0284673Y0193818D01*
X0285568Y0192923D01*
X0286737Y0192439D01*
X0288003Y0192439D01*
X0289172Y0192923D01*
X0290067Y0193818D01*
X0290551Y0194987D01*
X0290551Y0196253D01*
X0290067Y0197422D01*
X0289172Y0198317D01*
X0288003Y0198801D01*
X0286737Y0198801D01*
X0285568Y0198317D01*
X0284673Y0197422D01*
X0284189Y0196253D01*
X0284612Y0197274D02*
X0230128Y0197274D01*
X0230174Y0194077D02*
X0235525Y0194077D01*
X0233713Y0192479D02*
X0228099Y0192479D01*
X0226642Y0192479D02*
X0192340Y0192479D01*
X0190741Y0190880D02*
X0232115Y0190880D01*
X0230516Y0189282D02*
X0189143Y0189282D01*
X0186459Y0192820D02*
X0163281Y0192820D01*
X0161781Y0194320D01*
X0163944Y0194320D01*
X0165544Y0195920D01*
X0175781Y0195920D01*
X0178281Y0198420D01*
X0214196Y0198420D01*
X0214796Y0197820D01*
X0191459Y0197820D01*
X0186459Y0192820D01*
X0187716Y0194077D02*
X0162024Y0194077D01*
X0162370Y0190620D02*
X0157370Y0195620D01*
X0157370Y0205620D01*
X0159900Y0208464D02*
X0164840Y0208464D01*
X0165796Y0209420D02*
X0163570Y0207194D01*
X0163570Y0204046D01*
X0165796Y0201820D01*
X0168944Y0201820D01*
X0171170Y0204046D01*
X0171170Y0207194D01*
X0168944Y0209420D01*
X0165796Y0209420D01*
X0163570Y0206865D02*
X0161170Y0206865D01*
X0161170Y0205267D02*
X0163570Y0205267D01*
X0163948Y0203668D02*
X0160792Y0203668D01*
X0159570Y0202070D02*
X0165546Y0202070D01*
X0165393Y0200471D02*
X0174110Y0200471D01*
X0175708Y0202070D02*
X0169194Y0202070D01*
X0170792Y0203668D02*
X0215044Y0203668D01*
X0217370Y0200620D02*
X0177370Y0200620D01*
X0174870Y0198120D01*
X0162370Y0198120D01*
X0165300Y0195676D02*
X0189314Y0195676D01*
X0190913Y0197274D02*
X0177135Y0197274D01*
X0171170Y0205267D02*
X0224189Y0205267D01*
X0224189Y0204987D02*
X0224673Y0203818D01*
X0225568Y0202923D01*
X0226737Y0202439D01*
X0228003Y0202439D01*
X0229172Y0202923D01*
X0230067Y0203818D01*
X0230551Y0204987D01*
X0230551Y0206253D01*
X0230067Y0207422D01*
X0229172Y0208317D01*
X0228003Y0208801D01*
X0226737Y0208801D01*
X0225568Y0208317D01*
X0224673Y0207422D01*
X0224189Y0206253D01*
X0224189Y0204987D01*
X0224823Y0203668D02*
X0219696Y0203668D01*
X0220997Y0198873D02*
X0309824Y0198873D01*
X0310672Y0199720D02*
X0308270Y0197318D01*
X0308270Y0193922D01*
X0310672Y0191520D01*
X0314068Y0191520D01*
X0316470Y0193922D01*
X0316470Y0197318D01*
X0314068Y0199720D01*
X0310672Y0199720D01*
X0308270Y0197274D02*
X0290128Y0197274D01*
X0290551Y0195676D02*
X0308270Y0195676D01*
X0308270Y0194077D02*
X0290174Y0194077D01*
X0288099Y0192479D02*
X0309713Y0192479D01*
X0315027Y0192479D02*
X0319713Y0192479D01*
X0320672Y0191520D02*
X0318270Y0193922D01*
X0318270Y0197318D01*
X0320672Y0199720D01*
X0324068Y0199720D01*
X0326470Y0197318D01*
X0326470Y0193922D01*
X0324068Y0191520D01*
X0320672Y0191520D01*
X0318270Y0194077D02*
X0316470Y0194077D01*
X0316470Y0195676D02*
X0318270Y0195676D01*
X0318270Y0197274D02*
X0316470Y0197274D01*
X0314916Y0198873D02*
X0319824Y0198873D01*
X0320672Y0201520D02*
X0324068Y0201520D01*
X0326470Y0203922D01*
X0326470Y0207318D01*
X0324068Y0209720D01*
X0320672Y0209720D01*
X0318270Y0207318D01*
X0318270Y0203922D01*
X0320672Y0201520D01*
X0320122Y0202070D02*
X0314618Y0202070D01*
X0316216Y0203668D02*
X0318524Y0203668D01*
X0318270Y0205267D02*
X0316470Y0205267D01*
X0316470Y0206865D02*
X0318270Y0206865D01*
X0319416Y0208464D02*
X0315325Y0208464D01*
X0325325Y0208464D02*
X0329416Y0208464D01*
X0328270Y0207318D02*
X0330672Y0209720D01*
X0334068Y0209720D01*
X0336470Y0207318D01*
X0336470Y0203922D01*
X0334068Y0201520D01*
X0330672Y0201520D01*
X0328270Y0203922D01*
X0328270Y0207318D01*
X0328270Y0206865D02*
X0326470Y0206865D01*
X0326470Y0205267D02*
X0328270Y0205267D01*
X0328524Y0203668D02*
X0326216Y0203668D01*
X0324618Y0202070D02*
X0330122Y0202070D01*
X0334618Y0202070D02*
X0340122Y0202070D01*
X0340672Y0201520D02*
X0338270Y0203922D01*
X0338270Y0207318D01*
X0340672Y0209720D01*
X0344068Y0209720D01*
X0346470Y0207318D01*
X0346470Y0203922D01*
X0344068Y0201520D01*
X0340672Y0201520D01*
X0340672Y0199720D02*
X0338270Y0197318D01*
X0338270Y0193922D01*
X0340672Y0191520D01*
X0344068Y0191520D01*
X0346470Y0193922D01*
X0346470Y0197318D01*
X0344068Y0199720D01*
X0340672Y0199720D01*
X0339824Y0198873D02*
X0334916Y0198873D01*
X0334068Y0199720D02*
X0330672Y0199720D01*
X0328270Y0197318D01*
X0328270Y0193922D01*
X0330672Y0191520D01*
X0334068Y0191520D01*
X0336470Y0193922D01*
X0336470Y0197318D01*
X0334068Y0199720D01*
X0336470Y0197274D02*
X0338270Y0197274D01*
X0338270Y0195676D02*
X0336470Y0195676D01*
X0336470Y0194077D02*
X0338270Y0194077D01*
X0339713Y0192479D02*
X0335027Y0192479D01*
X0329713Y0192479D02*
X0325027Y0192479D01*
X0326470Y0194077D02*
X0328270Y0194077D01*
X0328270Y0195676D02*
X0326470Y0195676D01*
X0326470Y0197274D02*
X0328270Y0197274D01*
X0329824Y0198873D02*
X0324916Y0198873D01*
X0336216Y0203668D02*
X0338524Y0203668D01*
X0338270Y0205267D02*
X0336470Y0205267D01*
X0336470Y0206865D02*
X0338270Y0206865D01*
X0339416Y0208464D02*
X0335325Y0208464D01*
X0345325Y0208464D02*
X0348850Y0208464D01*
X0347870Y0207484D02*
X0347870Y0205720D01*
X0352270Y0205720D01*
X0352270Y0205520D01*
X0352470Y0205520D01*
X0352470Y0201120D01*
X0354234Y0201120D01*
X0356870Y0203756D01*
X0356870Y0205520D01*
X0352470Y0205520D01*
X0352470Y0205720D01*
X0356870Y0205720D01*
X0356870Y0207484D01*
X0354234Y0210120D01*
X0352470Y0210120D01*
X0352470Y0205720D01*
X0352270Y0205720D01*
X0352270Y0210120D01*
X0350506Y0210120D01*
X0347870Y0207484D01*
X0347870Y0206865D02*
X0346470Y0206865D01*
X0346470Y0205267D02*
X0347870Y0205267D01*
X0347870Y0205520D02*
X0347870Y0203756D01*
X0350506Y0201120D01*
X0352270Y0201120D01*
X0352270Y0205520D01*
X0347870Y0205520D01*
X0347958Y0203668D02*
X0346216Y0203668D01*
X0344618Y0202070D02*
X0349556Y0202070D01*
X0350506Y0200120D02*
X0347870Y0197484D01*
X0347870Y0195720D01*
X0352270Y0195720D01*
X0352270Y0195520D01*
X0352470Y0195520D01*
X0352470Y0191120D01*
X0354234Y0191120D01*
X0356870Y0193756D01*
X0356870Y0195520D01*
X0352470Y0195520D01*
X0352470Y0195720D01*
X0356870Y0195720D01*
X0356870Y0197484D01*
X0354234Y0200120D01*
X0352470Y0200120D01*
X0352470Y0195720D01*
X0352270Y0195720D01*
X0352270Y0200120D01*
X0350506Y0200120D01*
X0349259Y0198873D02*
X0344916Y0198873D01*
X0346470Y0197274D02*
X0347870Y0197274D01*
X0347870Y0195520D02*
X0347870Y0193756D01*
X0350506Y0191120D01*
X0352270Y0191120D01*
X0352270Y0195520D01*
X0347870Y0195520D01*
X0346470Y0195676D02*
X0352270Y0195676D01*
X0352470Y0195676D02*
X0362270Y0195676D01*
X0362270Y0195720D02*
X0362270Y0195520D01*
X0362470Y0195520D01*
X0362470Y0191120D01*
X0364234Y0191120D01*
X0366870Y0193756D01*
X0366870Y0195520D01*
X0362470Y0195520D01*
X0362470Y0195720D01*
X0366870Y0195720D01*
X0366870Y0197484D01*
X0364234Y0200120D01*
X0362470Y0200120D01*
X0362470Y0195720D01*
X0362270Y0195720D01*
X0357870Y0195720D01*
X0357870Y0197484D01*
X0360506Y0200120D01*
X0362270Y0200120D01*
X0362270Y0195720D01*
X0362370Y0195620D02*
X0372370Y0195620D01*
X0372370Y0205620D01*
X0372270Y0205520D02*
X0372470Y0205520D01*
X0372470Y0205720D01*
X0372270Y0205720D01*
X0372270Y0205520D01*
X0372270Y0201120D01*
X0370506Y0201120D01*
X0367870Y0203756D01*
X0367870Y0205520D01*
X0372270Y0205520D01*
X0372270Y0205720D02*
X0367870Y0205720D01*
X0367870Y0207484D01*
X0370506Y0210120D01*
X0372270Y0210120D01*
X0372270Y0205720D01*
X0372270Y0205267D02*
X0372470Y0205267D01*
X0372470Y0206865D02*
X0372270Y0206865D01*
X0372270Y0208464D02*
X0372470Y0208464D01*
X0372470Y0210062D02*
X0372270Y0210062D01*
X0370448Y0210062D02*
X0364292Y0210062D01*
X0364234Y0210120D02*
X0362470Y0210120D01*
X0362470Y0205720D01*
X0366870Y0205720D01*
X0366870Y0207484D01*
X0364234Y0210120D01*
X0362470Y0210062D02*
X0362270Y0210062D01*
X0362270Y0210120D02*
X0360506Y0210120D01*
X0357870Y0207484D01*
X0357870Y0205720D01*
X0362270Y0205720D01*
X0362270Y0205520D01*
X0362470Y0205520D01*
X0362470Y0201120D01*
X0364234Y0201120D01*
X0366870Y0203756D01*
X0366870Y0205520D01*
X0362470Y0205520D01*
X0362470Y0205720D01*
X0362270Y0205720D01*
X0362270Y0210120D01*
X0362270Y0208464D02*
X0362470Y0208464D01*
X0362470Y0206865D02*
X0362270Y0206865D01*
X0362370Y0205620D02*
X0352370Y0205620D01*
X0352270Y0205267D02*
X0352470Y0205267D01*
X0352470Y0206865D02*
X0352270Y0206865D01*
X0352270Y0208464D02*
X0352470Y0208464D01*
X0352470Y0210062D02*
X0352270Y0210062D01*
X0350448Y0210062D02*
X0216570Y0210062D01*
X0216570Y0211661D02*
X0398271Y0211661D01*
X0398271Y0213259D02*
X0215671Y0213259D01*
X0212370Y0213259D02*
X0212370Y0213259D01*
X0212370Y0211661D02*
X0212370Y0211661D01*
X0216153Y0208464D02*
X0225923Y0208464D01*
X0224443Y0206865D02*
X0214555Y0206865D01*
X0228817Y0208464D02*
X0285923Y0208464D01*
X0284443Y0206865D02*
X0230298Y0206865D01*
X0230551Y0205267D02*
X0284189Y0205267D01*
X0284823Y0203668D02*
X0229917Y0203668D01*
X0254215Y0194077D02*
X0284566Y0194077D01*
X0286642Y0192479D02*
X0256027Y0192479D01*
X0257625Y0190880D02*
X0372115Y0190880D01*
X0372270Y0191120D02*
X0370506Y0191120D01*
X0367870Y0193756D01*
X0367870Y0195520D01*
X0372270Y0195520D01*
X0372270Y0191120D01*
X0372270Y0192479D02*
X0372470Y0192479D01*
X0372470Y0194077D02*
X0372270Y0194077D01*
X0372270Y0195676D02*
X0362470Y0195676D01*
X0362270Y0195520D02*
X0362270Y0191120D01*
X0360506Y0191120D01*
X0357870Y0193756D01*
X0357870Y0195520D01*
X0362270Y0195520D01*
X0362270Y0194077D02*
X0362470Y0194077D01*
X0362470Y0192479D02*
X0362270Y0192479D01*
X0359148Y0192479D02*
X0355593Y0192479D01*
X0356870Y0194077D02*
X0357870Y0194077D01*
X0357870Y0197274D02*
X0356870Y0197274D01*
X0355481Y0198873D02*
X0359259Y0198873D01*
X0360506Y0201120D02*
X0362270Y0201120D01*
X0362270Y0205520D01*
X0357870Y0205520D01*
X0357870Y0203756D01*
X0360506Y0201120D01*
X0359556Y0202070D02*
X0355184Y0202070D01*
X0356782Y0203668D02*
X0357958Y0203668D01*
X0357870Y0205267D02*
X0356870Y0205267D01*
X0356870Y0206865D02*
X0357870Y0206865D01*
X0358850Y0208464D02*
X0355890Y0208464D01*
X0354292Y0210062D02*
X0360448Y0210062D01*
X0365890Y0208464D02*
X0368850Y0208464D01*
X0367870Y0206865D02*
X0366870Y0206865D01*
X0366870Y0205267D02*
X0367870Y0205267D01*
X0367958Y0203668D02*
X0366782Y0203668D01*
X0365184Y0202070D02*
X0369556Y0202070D01*
X0370506Y0200120D02*
X0367870Y0197484D01*
X0367870Y0195720D01*
X0372270Y0195720D01*
X0372270Y0200120D01*
X0370506Y0200120D01*
X0369259Y0198873D02*
X0365481Y0198873D01*
X0366870Y0197274D02*
X0367870Y0197274D01*
X0367870Y0194077D02*
X0366870Y0194077D01*
X0365593Y0192479D02*
X0369148Y0192479D01*
X0370516Y0189282D02*
X0259224Y0189282D01*
X0260676Y0187829D02*
X0260676Y0187829D01*
X0260822Y0187683D02*
X0368918Y0187683D01*
X0367319Y0186085D02*
X0262421Y0186085D01*
X0252989Y0184486D02*
X0249444Y0184486D01*
X0251390Y0186085D02*
X0238350Y0186085D01*
X0228918Y0187683D02*
X0129807Y0187683D01*
X0128759Y0176494D02*
X0225826Y0176494D01*
X0224034Y0174895D02*
X0127160Y0174895D01*
X0126270Y0173297D02*
X0134673Y0173297D01*
X0133570Y0172194D02*
X0133570Y0169046D01*
X0135796Y0166820D01*
X0138944Y0166820D01*
X0141170Y0169046D01*
X0141170Y0172194D01*
X0138944Y0174420D01*
X0135796Y0174420D01*
X0133570Y0172194D01*
X0133570Y0171698D02*
X0126270Y0171698D01*
X0126270Y0170099D02*
X0133570Y0170099D01*
X0134115Y0168501D02*
X0125714Y0168501D01*
X0124026Y0166902D02*
X0135714Y0166902D01*
X0135460Y0165304D02*
X0139280Y0165304D01*
X0139026Y0166902D02*
X0145714Y0166902D01*
X0145460Y0165304D02*
X0164575Y0165304D01*
X0166173Y0163705D02*
X0146170Y0163705D01*
X0148994Y0162107D02*
X0167772Y0162107D01*
X0169370Y0160508D02*
X0150593Y0160508D01*
X0152191Y0158910D02*
X0170969Y0158910D01*
X0172567Y0157311D02*
X0153790Y0157311D01*
X0155389Y0155713D02*
X0174166Y0155713D01*
X0175170Y0154114D02*
X0156987Y0154114D01*
X0157528Y0150620D02*
X0157370Y0150463D01*
X0157370Y0115620D01*
X0139870Y0098120D01*
X0117370Y0098120D01*
X0100170Y0098166D02*
X0099570Y0098166D01*
X0099570Y0096568D02*
X0100170Y0096568D01*
X0100170Y0094969D02*
X0099570Y0094969D01*
X0099570Y0093371D02*
X0100170Y0093371D01*
X0100170Y0091772D02*
X0099570Y0091772D01*
X0099570Y0090174D02*
X0100170Y0090174D01*
X0100170Y0088575D02*
X0099570Y0088575D01*
X0099570Y0086977D02*
X0100170Y0086977D01*
X0100170Y0085378D02*
X0099570Y0085378D01*
X0099570Y0083780D02*
X0100170Y0083780D01*
X0100170Y0082181D02*
X0099570Y0082181D01*
X0099570Y0080583D02*
X0100170Y0080583D01*
X0100895Y0078984D02*
X0098846Y0078984D01*
X0097247Y0077386D02*
X0102493Y0077386D01*
X0104092Y0075787D02*
X0096170Y0075787D01*
X0096170Y0074189D02*
X0105690Y0074189D01*
X0107289Y0072590D02*
X0094714Y0072590D01*
X0088762Y0077386D02*
X0010170Y0077386D01*
X0010170Y0078984D02*
X0090360Y0078984D01*
X0094222Y0080583D02*
X0010170Y0080583D01*
X0010170Y0082181D02*
X0095170Y0082181D01*
X0095170Y0083780D02*
X0010170Y0083780D01*
X0010170Y0085378D02*
X0095170Y0085378D01*
X0095170Y0086977D02*
X0094101Y0086977D01*
X0090639Y0086977D02*
X0084101Y0086977D01*
X0083944Y0086820D02*
X0086170Y0089046D01*
X0086170Y0092194D01*
X0083944Y0094420D01*
X0080796Y0094420D01*
X0078570Y0092194D01*
X0078570Y0089046D01*
X0080796Y0086820D01*
X0083944Y0086820D01*
X0085699Y0088575D02*
X0089041Y0088575D01*
X0088570Y0090174D02*
X0086170Y0090174D01*
X0086170Y0091772D02*
X0088570Y0091772D01*
X0089747Y0093371D02*
X0084993Y0093371D01*
X0090170Y0094969D02*
X0010170Y0094969D01*
X0010170Y0093371D02*
X0079747Y0093371D01*
X0078570Y0091772D02*
X0010170Y0091772D01*
X0010170Y0090174D02*
X0078570Y0090174D01*
X0079041Y0088575D02*
X0010170Y0088575D01*
X0010170Y0086977D02*
X0080639Y0086977D01*
X0092370Y0090620D02*
X0092370Y0100620D01*
X0062370Y0130620D01*
X0062370Y0145620D01*
X0047370Y0160620D01*
X0047370Y0170620D01*
X0044673Y0173297D02*
X0020633Y0173297D01*
X0021570Y0172360D02*
X0019110Y0174820D01*
X0017370Y0174820D01*
X0015630Y0174820D01*
X0013170Y0172360D01*
X0013170Y0170620D01*
X0013170Y0168880D01*
X0015630Y0166420D01*
X0017370Y0166420D01*
X0017370Y0170620D01*
X0017370Y0170620D01*
X0013170Y0170620D01*
X0017370Y0170620D01*
X0017370Y0170620D01*
X0017370Y0166420D01*
X0019110Y0166420D01*
X0021570Y0168880D01*
X0021570Y0170620D01*
X0017370Y0170620D01*
X0017370Y0170620D01*
X0017370Y0174820D01*
X0017370Y0170620D01*
X0017370Y0170620D01*
X0021570Y0170620D01*
X0021570Y0172360D01*
X0021570Y0171698D02*
X0043570Y0171698D01*
X0043570Y0170099D02*
X0021570Y0170099D01*
X0021191Y0168501D02*
X0044115Y0168501D01*
X0045170Y0166902D02*
X0019592Y0166902D01*
X0017370Y0166902D02*
X0017370Y0166902D01*
X0017370Y0168501D02*
X0017370Y0168501D01*
X0017370Y0170099D02*
X0017370Y0170099D01*
X0017370Y0171698D02*
X0017370Y0171698D01*
X0017370Y0173297D02*
X0017370Y0173297D01*
X0014107Y0173297D02*
X0010170Y0173297D01*
X0010170Y0174895D02*
X0050170Y0174895D01*
X0050170Y0176494D02*
X0010170Y0176494D01*
X0010170Y0178092D02*
X0047124Y0178092D01*
X0046242Y0179691D02*
X0010170Y0179691D01*
X0010170Y0181289D02*
X0046170Y0181289D01*
X0046864Y0182888D02*
X0010170Y0182888D01*
X0010170Y0184486D02*
X0058125Y0184486D01*
X0059723Y0186085D02*
X0010170Y0186085D01*
X0010170Y0187683D02*
X0054933Y0187683D01*
X0055796Y0186820D02*
X0058944Y0186820D01*
X0061170Y0189046D01*
X0061170Y0192194D01*
X0058944Y0194420D01*
X0055796Y0194420D01*
X0053570Y0192194D01*
X0053570Y0189046D01*
X0055796Y0186820D01*
X0053570Y0189282D02*
X0010170Y0189282D01*
X0010170Y0190880D02*
X0053570Y0190880D01*
X0053855Y0192479D02*
X0010170Y0192479D01*
X0010170Y0194077D02*
X0055453Y0194077D01*
X0054110Y0196420D02*
X0056570Y0198880D01*
X0056570Y0200620D01*
X0052370Y0200620D01*
X0052370Y0196420D01*
X0054110Y0196420D01*
X0054964Y0197274D02*
X0065170Y0197274D01*
X0065170Y0195676D02*
X0010170Y0195676D01*
X0010170Y0197274D02*
X0049776Y0197274D01*
X0048178Y0198873D02*
X0010170Y0198873D01*
X0010170Y0200471D02*
X0048170Y0200471D01*
X0048170Y0200620D02*
X0052370Y0200620D01*
X0052370Y0200620D01*
X0052370Y0204820D01*
X0050630Y0204820D01*
X0048170Y0202360D01*
X0048170Y0200620D01*
X0048170Y0202070D02*
X0010170Y0202070D01*
X0010170Y0203668D02*
X0049479Y0203668D01*
X0052370Y0203668D02*
X0052370Y0203668D01*
X0052370Y0204820D02*
X0052370Y0200620D01*
X0052370Y0200620D01*
X0056570Y0200620D01*
X0056570Y0202360D01*
X0054110Y0204820D01*
X0052370Y0204820D01*
X0052370Y0202070D02*
X0052370Y0202070D01*
X0052370Y0200471D02*
X0052370Y0200471D01*
X0052370Y0198873D02*
X0052370Y0198873D01*
X0052370Y0197274D02*
X0052370Y0197274D01*
X0056562Y0198873D02*
X0065170Y0198873D01*
X0065170Y0200471D02*
X0056570Y0200471D01*
X0056570Y0202070D02*
X0065708Y0202070D01*
X0067307Y0203668D02*
X0055262Y0203668D01*
X0068905Y0205267D02*
X0010170Y0205267D01*
X0010170Y0206865D02*
X0070504Y0206865D01*
X0065170Y0194077D02*
X0059287Y0194077D01*
X0060885Y0192479D02*
X0065170Y0192479D01*
X0064519Y0190880D02*
X0061170Y0190880D01*
X0061170Y0189282D02*
X0062920Y0189282D01*
X0061322Y0187683D02*
X0059807Y0187683D01*
X0064347Y0184486D02*
X0088125Y0184486D01*
X0089723Y0186085D02*
X0065946Y0186085D01*
X0062749Y0182888D02*
X0076864Y0182888D01*
X0076170Y0181289D02*
X0061150Y0181289D01*
X0059552Y0179691D02*
X0076242Y0179691D01*
X0077124Y0178092D02*
X0057616Y0178092D01*
X0051582Y0173297D02*
X0050068Y0173297D01*
X0051170Y0171698D02*
X0053181Y0171698D01*
X0053570Y0170099D02*
X0051170Y0170099D01*
X0050625Y0168501D02*
X0054115Y0168501D01*
X0055714Y0166902D02*
X0049570Y0166902D01*
X0049570Y0165304D02*
X0059575Y0165304D01*
X0061173Y0163705D02*
X0049659Y0163705D01*
X0051170Y0162107D02*
X0072772Y0162107D01*
X0074370Y0160508D02*
X0051170Y0160508D01*
X0052191Y0158910D02*
X0075969Y0158910D01*
X0078633Y0157311D02*
X0053790Y0157311D01*
X0055389Y0155713D02*
X0079503Y0155713D01*
X0078570Y0163705D02*
X0077396Y0163705D01*
X0102370Y0170620D02*
X0102370Y0170620D01*
X0106570Y0170620D01*
X0106570Y0172360D01*
X0104110Y0174820D01*
X0102370Y0174820D01*
X0102370Y0170620D01*
X0102370Y0171698D02*
X0102370Y0171698D01*
X0102370Y0173297D02*
X0102370Y0173297D01*
X0105633Y0173297D02*
X0114531Y0173297D01*
X0112933Y0171698D02*
X0106570Y0171698D01*
X0106570Y0170099D02*
X0111334Y0170099D01*
X0109736Y0168501D02*
X0106191Y0168501D01*
X0104592Y0166902D02*
X0108680Y0166902D01*
X0108470Y0165304D02*
X0105460Y0165304D01*
X0106170Y0163705D02*
X0108470Y0163705D01*
X0108470Y0162107D02*
X0106170Y0162107D01*
X0106170Y0160508D02*
X0108470Y0160508D01*
X0108570Y0158910D02*
X0106170Y0158910D01*
X0106107Y0157311D02*
X0108633Y0157311D01*
X0109503Y0155713D02*
X0105237Y0155713D01*
X0115237Y0155713D02*
X0119503Y0155713D01*
X0118633Y0157311D02*
X0116107Y0157311D01*
X0116170Y0158910D02*
X0118570Y0158910D01*
X0118570Y0160508D02*
X0116270Y0160508D01*
X0116270Y0162107D02*
X0118570Y0162107D01*
X0118570Y0163705D02*
X0116270Y0163705D01*
X0117569Y0165304D02*
X0119280Y0165304D01*
X0125460Y0165304D02*
X0129280Y0165304D01*
X0128570Y0163705D02*
X0126170Y0163705D01*
X0126170Y0162107D02*
X0128570Y0162107D01*
X0128570Y0160508D02*
X0126170Y0160508D01*
X0126170Y0158910D02*
X0128570Y0158910D01*
X0128633Y0157311D02*
X0126107Y0157311D01*
X0125237Y0155713D02*
X0129503Y0155713D01*
X0136170Y0162107D02*
X0138570Y0162107D01*
X0138570Y0163705D02*
X0136170Y0163705D01*
X0140625Y0168501D02*
X0144115Y0168501D01*
X0143570Y0170099D02*
X0141170Y0170099D01*
X0141170Y0171698D02*
X0143570Y0171698D01*
X0144673Y0173297D02*
X0140068Y0173297D01*
X0147370Y0170620D02*
X0162370Y0170620D01*
X0177370Y0155620D01*
X0179570Y0155713D02*
X0269352Y0155713D01*
X0267753Y0154114D02*
X0213002Y0154114D01*
X0212213Y0154114D02*
X0212213Y0154114D01*
X0212213Y0154201D02*
X0211860Y0154201D01*
X0211168Y0154064D01*
X0210516Y0153794D01*
X0209930Y0153402D01*
X0209431Y0152903D01*
X0209039Y0152316D01*
X0208965Y0152137D01*
X0208281Y0152820D01*
X0194826Y0152820D01*
X0194330Y0153317D01*
X0193160Y0153801D01*
X0191895Y0153801D01*
X0190726Y0153317D01*
X0189831Y0152422D01*
X0189346Y0151253D01*
X0189346Y0149987D01*
X0189831Y0148818D01*
X0190726Y0147923D01*
X0191895Y0147439D01*
X0193160Y0147439D01*
X0194330Y0147923D01*
X0194826Y0148420D01*
X0206459Y0148420D01*
X0220170Y0134709D01*
X0220170Y0118794D01*
X0218570Y0117194D01*
X0218570Y0114046D01*
X0220796Y0111820D01*
X0218570Y0114152D02*
X0179728Y0114152D01*
X0179728Y0115750D02*
X0218570Y0115750D01*
X0218725Y0117349D02*
X0179728Y0117349D01*
X0180278Y0118947D02*
X0194462Y0118947D01*
X0194516Y0118818D02*
X0195411Y0117923D01*
X0196580Y0117439D01*
X0197845Y0117439D01*
X0199015Y0117923D01*
X0199909Y0118818D01*
X0200394Y0119987D01*
X0200394Y0121253D01*
X0199909Y0122422D01*
X0199015Y0123317D01*
X0197845Y0123801D01*
X0196580Y0123801D01*
X0195411Y0123317D01*
X0194516Y0122422D01*
X0194031Y0121253D01*
X0194031Y0119987D01*
X0194516Y0118818D01*
X0194031Y0120546D02*
X0180709Y0120546D01*
X0180339Y0122144D02*
X0194401Y0122144D01*
X0196439Y0123743D02*
X0178302Y0123743D01*
X0176754Y0123743D02*
X0164621Y0123743D01*
X0166170Y0122144D02*
X0174716Y0122144D01*
X0174346Y0120546D02*
X0166170Y0120546D01*
X0166071Y0118947D02*
X0174777Y0118947D01*
X0175328Y0117349D02*
X0164473Y0117349D01*
X0160268Y0117349D02*
X0159570Y0117349D01*
X0159570Y0115750D02*
X0175328Y0115750D01*
X0175328Y0114152D02*
X0159013Y0114152D01*
X0157414Y0112553D02*
X0175328Y0112553D01*
X0175328Y0110955D02*
X0155816Y0110955D01*
X0154217Y0109356D02*
X0175328Y0109356D01*
X0175328Y0107758D02*
X0152619Y0107758D01*
X0151020Y0106159D02*
X0175328Y0106159D01*
X0175328Y0104561D02*
X0149422Y0104561D01*
X0147823Y0102962D02*
X0175328Y0102962D01*
X0175328Y0101364D02*
X0146225Y0101364D01*
X0144626Y0099765D02*
X0175328Y0099765D01*
X0175328Y0098166D02*
X0143028Y0098166D01*
X0141429Y0096568D02*
X0175328Y0096568D01*
X0179728Y0096568D02*
X0195170Y0096568D01*
X0195170Y0098166D02*
X0179728Y0098166D01*
X0179728Y0099765D02*
X0195170Y0099765D01*
X0195170Y0101364D02*
X0179728Y0101364D01*
X0179728Y0102962D02*
X0195170Y0102962D01*
X0195170Y0104561D02*
X0179728Y0104561D01*
X0179728Y0106159D02*
X0195170Y0106159D01*
X0194690Y0107758D02*
X0188392Y0107758D01*
X0186348Y0107758D02*
X0179728Y0107758D01*
X0179728Y0109356D02*
X0184516Y0109356D01*
X0184189Y0110955D02*
X0179728Y0110955D01*
X0179728Y0112553D02*
X0184662Y0112553D01*
X0190224Y0109356D02*
X0194189Y0109356D01*
X0200050Y0107758D02*
X0255170Y0107758D01*
X0255170Y0109356D02*
X0200551Y0109356D01*
X0200551Y0110955D02*
X0255170Y0110955D01*
X0255170Y0112553D02*
X0254677Y0112553D01*
X0257370Y0115620D02*
X0257370Y0090620D01*
X0237370Y0070620D01*
X0237370Y0060305D01*
X0232670Y0059802D02*
X0232228Y0059802D01*
X0232228Y0058204D02*
X0232670Y0058204D01*
X0232670Y0056605D02*
X0232228Y0056605D01*
X0232228Y0056070D02*
X0231512Y0054343D01*
X0230190Y0053021D01*
X0228462Y0052305D01*
X0226593Y0052305D01*
X0224865Y0053021D01*
X0223543Y0054343D01*
X0222828Y0056070D01*
X0222828Y0064540D01*
X0223543Y0066267D01*
X0223577Y0066302D01*
X0216459Y0073420D01*
X0215544Y0073420D01*
X0213944Y0071820D01*
X0210796Y0071820D01*
X0208570Y0074046D01*
X0208570Y0077194D01*
X0210796Y0079420D01*
X0213944Y0079420D01*
X0215544Y0077820D01*
X0218281Y0077820D01*
X0219570Y0076531D01*
X0227796Y0068305D01*
X0228462Y0068305D01*
X0230190Y0067590D01*
X0231512Y0066267D01*
X0232228Y0064540D01*
X0232228Y0056070D01*
X0231787Y0055007D02*
X0233111Y0055007D01*
X0234320Y0053408D02*
X0230577Y0053408D01*
X0224478Y0053408D02*
X0190262Y0053408D01*
X0191472Y0055007D02*
X0223268Y0055007D01*
X0222828Y0056605D02*
X0191913Y0056605D01*
X0191913Y0058204D02*
X0222828Y0058204D01*
X0222828Y0059802D02*
X0191913Y0059802D01*
X0191913Y0061401D02*
X0222828Y0061401D01*
X0222828Y0062999D02*
X0191913Y0062999D01*
X0191889Y0064598D02*
X0222851Y0064598D01*
X0223514Y0066196D02*
X0191227Y0066196D01*
X0189570Y0067795D02*
X0222084Y0067795D01*
X0220486Y0069393D02*
X0189570Y0069393D01*
X0189570Y0070992D02*
X0218887Y0070992D01*
X0217289Y0072590D02*
X0214714Y0072590D01*
X0212370Y0075620D02*
X0217370Y0075620D01*
X0227528Y0065463D01*
X0227528Y0060305D01*
X0232228Y0061401D02*
X0232670Y0061401D01*
X0232670Y0062999D02*
X0232228Y0062999D01*
X0232204Y0064598D02*
X0232694Y0064598D01*
X0233356Y0066196D02*
X0231542Y0066196D01*
X0229695Y0067795D02*
X0235170Y0067795D01*
X0235170Y0069393D02*
X0226708Y0069393D01*
X0225110Y0070992D02*
X0235170Y0070992D01*
X0236229Y0072590D02*
X0223511Y0072590D01*
X0221913Y0074189D02*
X0237828Y0074189D01*
X0239426Y0075787D02*
X0220314Y0075787D01*
X0218716Y0077386D02*
X0241025Y0077386D01*
X0242623Y0078984D02*
X0214380Y0078984D01*
X0210360Y0078984D02*
X0189380Y0078984D01*
X0190444Y0080583D02*
X0244222Y0080583D01*
X0245820Y0082181D02*
X0192043Y0082181D01*
X0193641Y0083780D02*
X0247419Y0083780D01*
X0249017Y0085378D02*
X0195240Y0085378D01*
X0196838Y0086977D02*
X0205074Y0086977D01*
X0205630Y0086420D02*
X0207370Y0086420D01*
X0207370Y0090620D01*
X0207370Y0090620D01*
X0203170Y0090620D01*
X0203170Y0088880D01*
X0205630Y0086420D01*
X0207370Y0086420D02*
X0209110Y0086420D01*
X0211570Y0088880D01*
X0211570Y0090620D01*
X0207370Y0090620D01*
X0207370Y0090620D01*
X0202370Y0085620D01*
X0202370Y0045620D01*
X0167370Y0045620D01*
X0097370Y0045620D01*
X0092370Y0050620D01*
X0092370Y0046420D01*
X0094110Y0046420D01*
X0096570Y0048880D01*
X0096570Y0050620D01*
X0092370Y0050620D01*
X0092370Y0050620D01*
X0092370Y0054820D01*
X0092370Y0050620D01*
X0092370Y0050620D01*
X0096570Y0050620D01*
X0096570Y0052360D01*
X0096570Y0051810D02*
X0263170Y0051810D01*
X0263170Y0052360D02*
X0263170Y0050620D01*
X0263170Y0048880D01*
X0265630Y0046420D01*
X0267370Y0046420D01*
X0267370Y0050620D01*
X0267370Y0050620D01*
X0263170Y0050620D01*
X0267370Y0050620D01*
X0267370Y0050620D01*
X0272370Y0045620D01*
X0282370Y0045620D01*
X0285638Y0048888D01*
X0302370Y0048888D01*
X0382370Y0048888D01*
X0395638Y0048888D01*
X0397370Y0050620D01*
X0397370Y0120620D01*
X0392370Y0125620D01*
X0392370Y0125620D01*
X0392370Y0120670D01*
X0390320Y0120670D01*
X0387420Y0123570D01*
X0387420Y0125620D01*
X0392370Y0125620D01*
X0392370Y0125620D01*
X0397370Y0130620D01*
X0397370Y0145620D01*
X0382370Y0145620D01*
X0377370Y0140620D01*
X0357370Y0140620D01*
X0357370Y0140620D01*
X0357370Y0136420D01*
X0354640Y0136420D01*
X0353987Y0136523D01*
X0353358Y0136728D01*
X0352769Y0137028D01*
X0352234Y0137416D01*
X0351766Y0137884D01*
X0351378Y0138419D01*
X0351078Y0139008D01*
X0350873Y0139637D01*
X0350770Y0140290D01*
X0350770Y0140620D01*
X0357370Y0140620D01*
X0357370Y0140620D01*
X0357370Y0150620D01*
X0357370Y0150620D01*
X0357370Y0146420D01*
X0354640Y0146420D01*
X0353987Y0146523D01*
X0353358Y0146728D01*
X0352769Y0147028D01*
X0352234Y0147416D01*
X0351766Y0147884D01*
X0351378Y0148419D01*
X0351078Y0149008D01*
X0350873Y0149637D01*
X0350770Y0150290D01*
X0350770Y0150620D01*
X0357370Y0150620D01*
X0357370Y0150620D01*
X0347370Y0150620D01*
X0337370Y0160620D01*
X0332370Y0160620D01*
X0332370Y0160620D01*
X0332370Y0156420D01*
X0330630Y0156420D01*
X0328170Y0158880D01*
X0328170Y0160620D01*
X0332370Y0160620D01*
X0332370Y0160620D01*
X0332370Y0156420D01*
X0334110Y0156420D01*
X0336570Y0158880D01*
X0336570Y0160620D01*
X0332370Y0160620D01*
X0328170Y0160620D01*
X0328170Y0162360D01*
X0330630Y0164820D01*
X0332370Y0164820D01*
X0332370Y0160620D01*
X0332370Y0160620D01*
X0332370Y0160620D01*
X0336570Y0160620D01*
X0336570Y0162360D01*
X0334110Y0164820D01*
X0332370Y0164820D01*
X0332370Y0160620D01*
X0332370Y0160508D02*
X0332370Y0160508D01*
X0332370Y0158910D02*
X0332370Y0158910D01*
X0332370Y0157311D02*
X0332370Y0157311D01*
X0329739Y0157311D02*
X0304570Y0157311D01*
X0304570Y0155713D02*
X0366762Y0155713D01*
X0368360Y0154114D02*
X0362106Y0154114D01*
X0361971Y0154212D02*
X0361382Y0154512D01*
X0360754Y0154717D01*
X0360101Y0154820D01*
X0357370Y0154820D01*
X0354640Y0154820D01*
X0353987Y0154717D01*
X0353358Y0154512D01*
X0352769Y0154212D01*
X0352234Y0153824D01*
X0351766Y0153356D01*
X0351378Y0152821D01*
X0351078Y0152232D01*
X0350873Y0151604D01*
X0350770Y0150951D01*
X0350770Y0150620D01*
X0357370Y0150620D01*
X0357370Y0146420D01*
X0360101Y0146420D01*
X0360754Y0146523D01*
X0361382Y0146728D01*
X0361971Y0147028D01*
X0362506Y0147416D01*
X0362974Y0147884D01*
X0363362Y0148419D01*
X0363662Y0149008D01*
X0363867Y0149637D01*
X0363970Y0150290D01*
X0363970Y0150620D01*
X0357370Y0150620D01*
X0357370Y0154820D01*
X0357370Y0150620D01*
X0357370Y0150620D01*
X0357370Y0150620D01*
X0363970Y0150620D01*
X0363970Y0150951D01*
X0363867Y0151604D01*
X0363662Y0152232D01*
X0363362Y0152821D01*
X0362974Y0153356D01*
X0362506Y0153824D01*
X0361971Y0154212D01*
X0363518Y0152516D02*
X0369959Y0152516D01*
X0370161Y0152314D02*
X0370161Y0152314D01*
X0371557Y0150917D02*
X0363970Y0150917D01*
X0363763Y0149319D02*
X0373156Y0149319D01*
X0374754Y0147720D02*
X0362810Y0147720D01*
X0361382Y0144512D02*
X0360754Y0144717D01*
X0360101Y0144820D01*
X0357370Y0144820D01*
X0354640Y0144820D01*
X0353987Y0144717D01*
X0353358Y0144512D01*
X0352769Y0144212D01*
X0352234Y0143824D01*
X0351766Y0143356D01*
X0351378Y0142821D01*
X0351078Y0142232D01*
X0350873Y0141604D01*
X0350770Y0140951D01*
X0350770Y0140620D01*
X0357370Y0140620D01*
X0357370Y0136420D01*
X0360101Y0136420D01*
X0360754Y0136523D01*
X0361382Y0136728D01*
X0361971Y0137028D01*
X0362506Y0137416D01*
X0362974Y0137884D01*
X0363362Y0138419D01*
X0363662Y0139008D01*
X0363867Y0139637D01*
X0363970Y0140290D01*
X0363970Y0140620D01*
X0357370Y0140620D01*
X0357370Y0144820D01*
X0357370Y0140620D01*
X0357370Y0140620D01*
X0357370Y0140620D01*
X0363970Y0140620D01*
X0363970Y0140951D01*
X0363867Y0141604D01*
X0363662Y0142232D01*
X0363362Y0142821D01*
X0362974Y0143356D01*
X0362506Y0143824D01*
X0361971Y0144212D01*
X0361382Y0144512D01*
X0361349Y0144523D02*
X0398271Y0144523D01*
X0397370Y0145620D02*
X0397370Y0160620D01*
X0392370Y0165620D01*
X0392370Y0160670D01*
X0392760Y0160670D01*
X0393529Y0160792D01*
X0394270Y0161033D01*
X0394964Y0161386D01*
X0395595Y0161844D01*
X0396146Y0162395D01*
X0396604Y0163026D01*
X0396957Y0163720D01*
X0397198Y0164461D01*
X0397320Y0165230D01*
X0397320Y0165620D01*
X0392370Y0165620D01*
X0392370Y0165620D01*
X0392370Y0170570D01*
X0392370Y0165620D01*
X0392370Y0165620D01*
X0397320Y0165620D01*
X0397320Y0166010D01*
X0397198Y0166779D01*
X0396957Y0167520D01*
X0396604Y0168214D01*
X0396146Y0168845D01*
X0395595Y0169396D01*
X0394964Y0169854D01*
X0394270Y0170207D01*
X0392370Y0170099D02*
X0392370Y0170099D01*
X0392370Y0168501D02*
X0392370Y0168501D01*
X0392370Y0166902D02*
X0392370Y0166902D01*
X0392370Y0165304D02*
X0392370Y0165304D01*
X0392370Y0163705D02*
X0392370Y0163705D01*
X0392370Y0162107D02*
X0392370Y0162107D01*
X0388883Y0162107D02*
X0385292Y0162107D01*
X0386890Y0163705D02*
X0387790Y0163705D01*
X0387420Y0165304D02*
X0386920Y0165304D01*
X0386920Y0166902D02*
X0387582Y0166902D01*
X0388345Y0168501D02*
X0385924Y0168501D01*
X0384325Y0170099D02*
X0390258Y0170099D01*
X0396396Y0168501D02*
X0398271Y0168501D01*
X0398271Y0166902D02*
X0397158Y0166902D01*
X0397320Y0165304D02*
X0398271Y0165304D01*
X0398271Y0163705D02*
X0396950Y0163705D01*
X0395857Y0162107D02*
X0398271Y0162107D01*
X0398271Y0160508D02*
X0377774Y0160508D01*
X0376270Y0158910D02*
X0398271Y0158910D01*
X0398271Y0157311D02*
X0376270Y0157311D01*
X0377793Y0155713D02*
X0398271Y0155713D01*
X0398271Y0154114D02*
X0391264Y0154114D01*
X0393098Y0152516D02*
X0398271Y0152516D01*
X0398271Y0150917D02*
X0393570Y0150917D01*
X0393344Y0149319D02*
X0398271Y0149319D01*
X0398271Y0147720D02*
X0392244Y0147720D01*
X0398271Y0146122D02*
X0309570Y0146122D01*
X0309570Y0144523D02*
X0353392Y0144523D01*
X0351453Y0142925D02*
X0309570Y0142925D01*
X0309570Y0141326D02*
X0350830Y0141326D01*
X0350859Y0139728D02*
X0309570Y0139728D01*
X0309570Y0138129D02*
X0351588Y0138129D01*
X0353964Y0136531D02*
X0309570Y0136531D01*
X0309570Y0134932D02*
X0398271Y0134932D01*
X0398271Y0133334D02*
X0367430Y0133334D01*
X0366923Y0133842D02*
X0365526Y0134420D01*
X0359214Y0134420D01*
X0357818Y0133842D01*
X0356749Y0132773D01*
X0356170Y0131376D01*
X0356170Y0129864D01*
X0356749Y0128468D01*
X0357818Y0127399D01*
X0359214Y0126820D01*
X0365526Y0126820D01*
X0366923Y0127399D01*
X0367992Y0128468D01*
X0368570Y0129864D01*
X0368570Y0131376D01*
X0367992Y0132773D01*
X0366923Y0133842D01*
X0368421Y0131735D02*
X0398271Y0131735D01*
X0398271Y0130137D02*
X0394854Y0130137D01*
X0394420Y0130570D02*
X0392370Y0130570D01*
X0390320Y0130570D01*
X0387420Y0127670D01*
X0387420Y0125620D01*
X0392370Y0125620D01*
X0392370Y0120670D01*
X0394420Y0120670D01*
X0397320Y0123570D01*
X0397320Y0125620D01*
X0392370Y0125620D01*
X0392370Y0125620D01*
X0392370Y0130570D01*
X0392370Y0125620D01*
X0392370Y0125620D01*
X0397320Y0125620D01*
X0397320Y0127670D01*
X0394420Y0130570D01*
X0392370Y0130137D02*
X0392370Y0130137D01*
X0392370Y0128538D02*
X0392370Y0128538D01*
X0392370Y0126940D02*
X0392370Y0126940D01*
X0392370Y0125341D02*
X0392370Y0125341D01*
X0392370Y0123743D02*
X0392370Y0123743D01*
X0392370Y0122144D02*
X0392370Y0122144D01*
X0388846Y0122144D02*
X0385329Y0122144D01*
X0384947Y0121763D02*
X0386227Y0123043D01*
X0386920Y0124715D01*
X0386920Y0126525D01*
X0386227Y0128197D01*
X0384947Y0129477D01*
X0383275Y0130170D01*
X0381465Y0130170D01*
X0379793Y0129477D01*
X0378513Y0128197D01*
X0377820Y0126525D01*
X0377820Y0124715D01*
X0378513Y0123043D01*
X0379793Y0121763D01*
X0381465Y0121070D01*
X0383275Y0121070D01*
X0384947Y0121763D01*
X0386517Y0123743D02*
X0387420Y0123743D01*
X0387420Y0125341D02*
X0386920Y0125341D01*
X0386748Y0126940D02*
X0387420Y0126940D01*
X0388288Y0128538D02*
X0385887Y0128538D01*
X0383356Y0130137D02*
X0389886Y0130137D01*
X0396452Y0128538D02*
X0398271Y0128538D01*
X0398271Y0126940D02*
X0397320Y0126940D01*
X0397320Y0125341D02*
X0398271Y0125341D01*
X0398271Y0123743D02*
X0397320Y0123743D01*
X0398271Y0122144D02*
X0395895Y0122144D01*
X0398271Y0120546D02*
X0368570Y0120546D01*
X0368570Y0119864D02*
X0368570Y0121376D01*
X0367992Y0122773D01*
X0366923Y0123842D01*
X0365526Y0124420D01*
X0359214Y0124420D01*
X0357818Y0123842D01*
X0356749Y0122773D01*
X0356170Y0121376D01*
X0356170Y0119864D01*
X0356749Y0118468D01*
X0357818Y0117399D01*
X0359214Y0116820D01*
X0365526Y0116820D01*
X0366923Y0117399D01*
X0367992Y0118468D01*
X0368570Y0119864D01*
X0368190Y0118947D02*
X0398271Y0118947D01*
X0398271Y0117349D02*
X0366802Y0117349D01*
X0368252Y0122144D02*
X0379411Y0122144D01*
X0378223Y0123743D02*
X0367021Y0123743D01*
X0365815Y0126940D02*
X0377992Y0126940D01*
X0377820Y0125341D02*
X0339570Y0125341D01*
X0339570Y0126531D02*
X0336170Y0129931D01*
X0336170Y0132194D01*
X0333944Y0134420D01*
X0330796Y0134420D01*
X0328570Y0132194D01*
X0328570Y0129046D01*
X0330796Y0126820D01*
X0333059Y0126820D01*
X0335170Y0124709D01*
X0335170Y0113194D01*
X0333944Y0114420D01*
X0330796Y0114420D01*
X0328570Y0112194D01*
X0328570Y0109046D01*
X0330796Y0106820D01*
X0333944Y0106820D01*
X0335170Y0108046D01*
X0335170Y0104709D01*
X0336459Y0103420D01*
X0338959Y0100920D01*
X0344196Y0100920D01*
X0344906Y0100210D01*
X0334633Y0100210D01*
X0331832Y0099050D01*
X0329688Y0096906D01*
X0328528Y0094105D01*
X0328528Y0091073D01*
X0329688Y0088271D01*
X0331832Y0086128D01*
X0334633Y0084967D01*
X0350107Y0084967D01*
X0352908Y0086128D01*
X0355052Y0088271D01*
X0356213Y0091073D01*
X0356213Y0094105D01*
X0355052Y0096906D01*
X0352908Y0099050D01*
X0350107Y0100210D01*
X0349834Y0100210D01*
X0351170Y0101546D01*
X0351170Y0104694D01*
X0348944Y0106920D01*
X0345796Y0106920D01*
X0344196Y0105320D01*
X0340781Y0105320D01*
X0339570Y0106531D01*
X0339570Y0108046D01*
X0340796Y0106820D01*
X0343944Y0106820D01*
X0346170Y0109046D01*
X0346170Y0112194D01*
X0343944Y0114420D01*
X0340796Y0114420D01*
X0339570Y0113194D01*
X0339570Y0126531D01*
X0339162Y0126940D02*
X0358925Y0126940D01*
X0356719Y0128538D02*
X0337563Y0128538D01*
X0336170Y0130137D02*
X0356170Y0130137D01*
X0356319Y0131735D02*
X0336170Y0131735D01*
X0335030Y0133334D02*
X0357310Y0133334D01*
X0357370Y0136531D02*
X0357370Y0136531D01*
X0357370Y0138129D02*
X0357370Y0138129D01*
X0357370Y0139728D02*
X0357370Y0139728D01*
X0357370Y0141326D02*
X0357370Y0141326D01*
X0357370Y0142925D02*
X0357370Y0142925D01*
X0357370Y0144523D02*
X0357370Y0144523D01*
X0357370Y0147720D02*
X0357370Y0147720D01*
X0357370Y0149319D02*
X0357370Y0149319D01*
X0357370Y0150917D02*
X0357370Y0150917D01*
X0357370Y0152516D02*
X0357370Y0152516D01*
X0357370Y0154114D02*
X0357370Y0154114D01*
X0355167Y0157311D02*
X0335001Y0157311D01*
X0336570Y0158910D02*
X0353565Y0158910D01*
X0351966Y0160508D02*
X0336570Y0160508D01*
X0336570Y0162107D02*
X0350368Y0162107D01*
X0348942Y0163705D02*
X0335224Y0163705D01*
X0332370Y0163705D02*
X0332370Y0163705D01*
X0332370Y0162107D02*
X0332370Y0162107D01*
X0329516Y0163705D02*
X0304659Y0163705D01*
X0306170Y0162107D02*
X0328170Y0162107D01*
X0328170Y0160508D02*
X0306170Y0160508D01*
X0306034Y0158910D02*
X0328170Y0158910D01*
X0348470Y0165304D02*
X0300797Y0165304D01*
X0299199Y0166902D02*
X0348470Y0166902D01*
X0348470Y0168501D02*
X0297600Y0168501D01*
X0296002Y0170099D02*
X0348470Y0170099D01*
X0348470Y0171698D02*
X0294403Y0171698D01*
X0292370Y0170620D02*
X0287370Y0170620D01*
X0277370Y0170620D01*
X0277370Y0160620D01*
X0267370Y0150620D01*
X0267370Y0140620D01*
X0263570Y0141326D02*
X0261170Y0141326D01*
X0261170Y0139728D02*
X0263570Y0139728D01*
X0263570Y0138129D02*
X0261170Y0138129D01*
X0261170Y0137464D02*
X0261170Y0143776D01*
X0260592Y0145173D01*
X0259523Y0146242D01*
X0258126Y0146820D01*
X0256614Y0146820D01*
X0255218Y0146242D01*
X0254149Y0145173D01*
X0253570Y0143776D01*
X0253570Y0137464D01*
X0254149Y0136068D01*
X0255218Y0134999D01*
X0256614Y0134420D01*
X0258126Y0134420D01*
X0259523Y0134999D01*
X0260592Y0136068D01*
X0261170Y0137464D01*
X0260783Y0136531D02*
X0263957Y0136531D01*
X0265378Y0134932D02*
X0259362Y0134932D01*
X0255378Y0134932D02*
X0249362Y0134932D01*
X0249523Y0134999D02*
X0250592Y0136068D01*
X0251170Y0137464D01*
X0251170Y0143776D01*
X0250592Y0145173D01*
X0249523Y0146242D01*
X0248126Y0146820D01*
X0246614Y0146820D01*
X0245218Y0146242D01*
X0244149Y0145173D01*
X0243570Y0143776D01*
X0243570Y0137464D01*
X0244149Y0136068D01*
X0245218Y0134999D01*
X0245649Y0134820D01*
X0245630Y0134820D01*
X0243170Y0132360D01*
X0243170Y0130620D01*
X0247370Y0130620D01*
X0247370Y0130620D01*
X0247370Y0130620D01*
X0251570Y0130620D01*
X0251570Y0132360D01*
X0249110Y0134820D01*
X0249092Y0134820D01*
X0249523Y0134999D01*
X0250596Y0133334D02*
X0264710Y0133334D01*
X0263570Y0131735D02*
X0251570Y0131735D01*
X0251570Y0130137D02*
X0263570Y0130137D01*
X0264078Y0128538D02*
X0251228Y0128538D01*
X0243512Y0128538D02*
X0239826Y0128538D01*
X0239570Y0130137D02*
X0243170Y0130137D01*
X0243170Y0131735D02*
X0239570Y0131735D01*
X0239570Y0133334D02*
X0244144Y0133334D01*
X0245378Y0134932D02*
X0239570Y0134932D01*
X0240783Y0136531D02*
X0243957Y0136531D01*
X0243570Y0138129D02*
X0241170Y0138129D01*
X0241170Y0139728D02*
X0243570Y0139728D01*
X0243570Y0141326D02*
X0241170Y0141326D01*
X0241170Y0142925D02*
X0243570Y0142925D01*
X0243880Y0144523D02*
X0240860Y0144523D01*
X0239642Y0146122D02*
X0245098Y0146122D01*
X0249642Y0146122D02*
X0255098Y0146122D01*
X0253880Y0144523D02*
X0250860Y0144523D01*
X0251170Y0142925D02*
X0253570Y0142925D01*
X0253570Y0141326D02*
X0251170Y0141326D01*
X0251170Y0139728D02*
X0253570Y0139728D01*
X0253570Y0138129D02*
X0251170Y0138129D01*
X0250783Y0136531D02*
X0253957Y0136531D01*
X0261170Y0142925D02*
X0263570Y0142925D01*
X0263880Y0144523D02*
X0260860Y0144523D01*
X0259642Y0146122D02*
X0265098Y0146122D01*
X0265170Y0147720D02*
X0214319Y0147720D01*
X0214980Y0146122D02*
X0225098Y0146122D01*
X0223880Y0144523D02*
X0216578Y0144523D01*
X0218177Y0142925D02*
X0223570Y0142925D01*
X0223570Y0141326D02*
X0219775Y0141326D01*
X0221374Y0139728D02*
X0223570Y0139728D01*
X0223570Y0138129D02*
X0222972Y0138129D01*
X0222370Y0135620D02*
X0222370Y0115620D01*
X0226170Y0115750D02*
X0248570Y0115750D01*
X0248570Y0114152D02*
X0226170Y0114152D01*
X0224677Y0112553D02*
X0250063Y0112553D01*
X0248725Y0117349D02*
X0226016Y0117349D01*
X0224570Y0118947D02*
X0250323Y0118947D01*
X0254417Y0118947D02*
X0257586Y0118947D01*
X0259184Y0120546D02*
X0224570Y0120546D01*
X0224570Y0122144D02*
X0235472Y0122144D01*
X0233873Y0123743D02*
X0224570Y0123743D01*
X0224570Y0125341D02*
X0233570Y0125341D01*
X0233570Y0126940D02*
X0224570Y0126940D01*
X0224570Y0128538D02*
X0234914Y0128538D01*
X0235170Y0130137D02*
X0224570Y0130137D01*
X0224570Y0131735D02*
X0235170Y0131735D01*
X0235170Y0133334D02*
X0224570Y0133334D01*
X0224570Y0134932D02*
X0225378Y0134932D01*
X0222370Y0135620D02*
X0207370Y0150620D01*
X0192528Y0150620D01*
X0193840Y0147720D02*
X0207159Y0147720D01*
X0208757Y0146122D02*
X0175826Y0146122D01*
X0174227Y0144523D02*
X0210356Y0144523D01*
X0211954Y0142925D02*
X0205242Y0142925D01*
X0205152Y0143060D02*
X0204653Y0143559D01*
X0204066Y0143951D01*
X0203415Y0144221D01*
X0202723Y0144359D01*
X0202370Y0144359D01*
X0202017Y0144359D01*
X0201326Y0144221D01*
X0200674Y0143951D01*
X0200087Y0143559D01*
X0199588Y0143060D01*
X0199197Y0142474D01*
X0198927Y0141822D01*
X0198789Y0141130D01*
X0198789Y0140778D01*
X0202370Y0140778D01*
X0202370Y0144359D01*
X0202370Y0140778D01*
X0202370Y0140778D01*
X0202370Y0140777D01*
X0202370Y0140777D01*
X0202370Y0137196D01*
X0202017Y0137196D01*
X0201326Y0137334D01*
X0200674Y0137604D01*
X0200087Y0137996D01*
X0199588Y0138495D01*
X0199197Y0139081D01*
X0198927Y0139733D01*
X0198789Y0140425D01*
X0198789Y0140777D01*
X0202370Y0140777D01*
X0202370Y0137196D01*
X0202723Y0137196D01*
X0203415Y0137334D01*
X0204066Y0137604D01*
X0204653Y0137996D01*
X0205152Y0138495D01*
X0205544Y0139081D01*
X0205814Y0139733D01*
X0205951Y0140425D01*
X0205951Y0140777D01*
X0202370Y0140777D01*
X0202370Y0140778D01*
X0205951Y0140778D01*
X0205951Y0141130D01*
X0205814Y0141822D01*
X0205544Y0142474D01*
X0205152Y0143060D01*
X0205912Y0141326D02*
X0213553Y0141326D01*
X0215151Y0139728D02*
X0205811Y0139728D01*
X0204786Y0138129D02*
X0216750Y0138129D01*
X0218348Y0136531D02*
X0159570Y0136531D01*
X0159570Y0138129D02*
X0165520Y0138129D01*
X0164362Y0139728D02*
X0159570Y0139728D01*
X0159570Y0141326D02*
X0164189Y0141326D01*
X0169221Y0138129D02*
X0199954Y0138129D01*
X0198929Y0139728D02*
X0170378Y0139728D01*
X0171030Y0141326D02*
X0198828Y0141326D01*
X0199498Y0142925D02*
X0172629Y0142925D01*
X0178525Y0147720D02*
X0191216Y0147720D01*
X0189623Y0149319D02*
X0180117Y0149319D01*
X0180394Y0150917D02*
X0189346Y0150917D01*
X0189925Y0152516D02*
X0179816Y0152516D01*
X0179570Y0154114D02*
X0211424Y0154114D01*
X0212213Y0154201D02*
X0212213Y0150620D01*
X0212213Y0150620D01*
X0212213Y0150917D02*
X0212213Y0150917D01*
X0212213Y0152516D02*
X0212213Y0152516D01*
X0215253Y0152516D02*
X0266155Y0152516D01*
X0265170Y0150917D02*
X0215794Y0150917D01*
X0215550Y0149319D02*
X0265170Y0149319D01*
X0269570Y0149319D02*
X0300560Y0149319D01*
X0300170Y0150917D02*
X0270779Y0150917D01*
X0272377Y0152516D02*
X0300170Y0152516D01*
X0300170Y0154114D02*
X0273976Y0154114D01*
X0275574Y0155713D02*
X0300170Y0155713D01*
X0300170Y0157311D02*
X0277173Y0157311D01*
X0278771Y0158910D02*
X0298706Y0158910D01*
X0298570Y0160508D02*
X0279570Y0160508D01*
X0279570Y0162107D02*
X0297772Y0162107D01*
X0296173Y0163705D02*
X0279570Y0163705D01*
X0279828Y0165304D02*
X0284912Y0165304D01*
X0283803Y0166902D02*
X0280937Y0166902D01*
X0289828Y0165304D02*
X0294575Y0165304D01*
X0292976Y0166902D02*
X0290937Y0166902D01*
X0292370Y0170620D02*
X0302370Y0160620D01*
X0302370Y0150620D01*
X0307370Y0145620D01*
X0307370Y0125620D01*
X0312370Y0120620D01*
X0317370Y0120620D01*
X0322370Y0115620D01*
X0322370Y0090620D01*
X0327370Y0085620D01*
X0327370Y0075620D01*
X0332370Y0070620D01*
X0342370Y0070620D01*
X0342370Y0069754D01*
X0352199Y0062999D02*
X0356638Y0062999D01*
X0358236Y0064598D02*
X0354213Y0064598D01*
X0355367Y0066196D02*
X0359835Y0066196D01*
X0361434Y0067795D02*
X0356029Y0067795D01*
X0356213Y0069393D02*
X0363032Y0069393D01*
X0364631Y0070992D02*
X0356213Y0070992D01*
X0355666Y0072590D02*
X0369074Y0072590D01*
X0369806Y0074189D02*
X0354935Y0074189D01*
X0353336Y0075787D02*
X0371404Y0075787D01*
X0366504Y0069754D02*
X0357370Y0060620D01*
X0332370Y0060620D01*
X0317370Y0075620D01*
X0317370Y0100620D01*
X0297370Y0120620D01*
X0287370Y0120620D01*
X0282370Y0125620D01*
X0237370Y0125620D01*
X0237370Y0140620D01*
X0227370Y0140620D01*
X0231170Y0142925D02*
X0233570Y0142925D01*
X0233880Y0144523D02*
X0230860Y0144523D01*
X0229642Y0146122D02*
X0235098Y0146122D01*
X0233570Y0138129D02*
X0231170Y0138129D01*
X0230783Y0136531D02*
X0233957Y0136531D01*
X0235170Y0134932D02*
X0229362Y0134932D01*
X0220170Y0133334D02*
X0159570Y0133334D01*
X0159570Y0134932D02*
X0219947Y0134932D01*
X0220170Y0131735D02*
X0159570Y0131735D01*
X0159570Y0130137D02*
X0220170Y0130137D01*
X0220170Y0128538D02*
X0210392Y0128538D01*
X0211570Y0127360D02*
X0209110Y0129820D01*
X0207370Y0129820D01*
X0205630Y0129820D01*
X0203170Y0127360D01*
X0203170Y0125620D01*
X0203170Y0123880D01*
X0205630Y0121420D01*
X0207370Y0121420D01*
X0207370Y0125620D01*
X0207370Y0125620D01*
X0203170Y0125620D01*
X0207370Y0125620D01*
X0207370Y0125620D01*
X0207370Y0090620D01*
X0207370Y0086420D01*
X0207370Y0086977D02*
X0207370Y0086977D01*
X0207370Y0088575D02*
X0207370Y0088575D01*
X0207370Y0090174D02*
X0207370Y0090174D01*
X0207370Y0090620D02*
X0207370Y0090620D01*
X0203170Y0090620D01*
X0203170Y0092360D01*
X0205630Y0094820D01*
X0207370Y0094820D01*
X0207370Y0090620D01*
X0207370Y0090620D01*
X0211570Y0090620D01*
X0211570Y0092360D01*
X0209110Y0094820D01*
X0207370Y0094820D01*
X0207370Y0090620D01*
X0207370Y0091772D02*
X0207370Y0091772D01*
X0207370Y0093371D02*
X0207370Y0093371D01*
X0204181Y0093371D02*
X0199570Y0093371D01*
X0199570Y0094969D02*
X0255170Y0094969D01*
X0255170Y0093371D02*
X0210559Y0093371D01*
X0211570Y0091772D02*
X0255170Y0091772D01*
X0253813Y0090174D02*
X0211570Y0090174D01*
X0211265Y0088575D02*
X0252214Y0088575D01*
X0250616Y0086977D02*
X0209667Y0086977D01*
X0203475Y0088575D02*
X0198437Y0088575D01*
X0199570Y0090174D02*
X0203170Y0090174D01*
X0203170Y0091772D02*
X0199570Y0091772D01*
X0195170Y0091772D02*
X0181170Y0091772D01*
X0181170Y0090174D02*
X0193813Y0090174D01*
X0192214Y0088575D02*
X0180699Y0088575D01*
X0179101Y0086977D02*
X0190616Y0086977D01*
X0189017Y0085378D02*
X0104570Y0085378D01*
X0104570Y0083780D02*
X0187419Y0083780D01*
X0190978Y0077386D02*
X0208762Y0077386D01*
X0208570Y0075787D02*
X0191170Y0075787D01*
X0191170Y0074189D02*
X0208570Y0074189D01*
X0210026Y0072590D02*
X0189714Y0072590D01*
X0187370Y0075620D02*
X0187370Y0060463D01*
X0187213Y0060305D01*
X0186898Y0060620D01*
X0177370Y0060620D01*
X0177370Y0060305D01*
X0182070Y0058204D02*
X0182513Y0058204D01*
X0182513Y0056605D02*
X0182070Y0056605D01*
X0181630Y0055007D02*
X0182953Y0055007D01*
X0184163Y0053408D02*
X0180420Y0053408D01*
X0174320Y0053408D02*
X0171143Y0053408D01*
X0171418Y0053683D02*
X0171889Y0054332D01*
X0172254Y0055047D01*
X0172502Y0055811D01*
X0172628Y0056604D01*
X0172628Y0060121D01*
X0167712Y0060121D01*
X0167712Y0060489D01*
X0172628Y0060489D01*
X0172628Y0064006D01*
X0172502Y0064799D01*
X0172254Y0065563D01*
X0171889Y0066278D01*
X0171418Y0066928D01*
X0170850Y0067495D01*
X0170201Y0067967D01*
X0169485Y0068331D01*
X0168722Y0068580D01*
X0167929Y0068705D01*
X0167712Y0068705D01*
X0167712Y0060489D01*
X0167343Y0060489D01*
X0167343Y0060121D01*
X0162428Y0060121D01*
X0162428Y0056604D01*
X0162553Y0055811D01*
X0162801Y0055047D01*
X0163166Y0054332D01*
X0163638Y0053683D01*
X0164205Y0053115D01*
X0164855Y0052643D01*
X0165570Y0052279D01*
X0166333Y0052031D01*
X0167126Y0051905D01*
X0167343Y0051905D01*
X0167343Y0060121D01*
X0167712Y0060121D01*
X0167712Y0051905D01*
X0167929Y0051905D01*
X0168722Y0052031D01*
X0169485Y0052279D01*
X0170201Y0052643D01*
X0170850Y0053115D01*
X0171418Y0053683D01*
X0172233Y0055007D02*
X0173111Y0055007D01*
X0172670Y0056605D02*
X0172628Y0056605D01*
X0172628Y0058204D02*
X0172670Y0058204D01*
X0172628Y0059802D02*
X0172670Y0059802D01*
X0172628Y0061401D02*
X0172670Y0061401D01*
X0172628Y0062999D02*
X0172670Y0062999D01*
X0172694Y0064598D02*
X0172534Y0064598D01*
X0171931Y0066196D02*
X0173356Y0066196D01*
X0175203Y0067795D02*
X0170438Y0067795D01*
X0167712Y0067795D02*
X0167343Y0067795D01*
X0167343Y0068705D02*
X0167126Y0068705D01*
X0166333Y0068580D01*
X0165570Y0068331D01*
X0164855Y0067967D01*
X0164205Y0067495D01*
X0163638Y0066928D01*
X0163166Y0066278D01*
X0162801Y0065563D01*
X0162553Y0064799D01*
X0162428Y0064006D01*
X0162428Y0060489D01*
X0167343Y0060489D01*
X0167343Y0068705D01*
X0167343Y0066196D02*
X0167712Y0066196D01*
X0167712Y0064598D02*
X0167343Y0064598D01*
X0167343Y0062999D02*
X0167712Y0062999D01*
X0167712Y0061401D02*
X0167343Y0061401D01*
X0167528Y0060305D02*
X0167528Y0045778D01*
X0167370Y0045620D01*
X0167370Y0060148D01*
X0167528Y0060305D01*
X0167343Y0059802D02*
X0167712Y0059802D01*
X0167712Y0058204D02*
X0167343Y0058204D01*
X0167343Y0056605D02*
X0167712Y0056605D01*
X0167712Y0055007D02*
X0167343Y0055007D01*
X0167343Y0053408D02*
X0167712Y0053408D01*
X0163912Y0053408D02*
X0135262Y0053408D01*
X0136472Y0055007D02*
X0162822Y0055007D01*
X0162428Y0056605D02*
X0136913Y0056605D01*
X0136913Y0058204D02*
X0162428Y0058204D01*
X0162428Y0059802D02*
X0136913Y0059802D01*
X0136913Y0061401D02*
X0162428Y0061401D01*
X0162428Y0062999D02*
X0136913Y0062999D01*
X0136889Y0064598D02*
X0162521Y0064598D01*
X0163124Y0066196D02*
X0136227Y0066196D01*
X0134380Y0067795D02*
X0164618Y0067795D01*
X0159714Y0072590D02*
X0185026Y0072590D01*
X0185170Y0070992D02*
X0124570Y0070992D01*
X0124570Y0069393D02*
X0185170Y0069393D01*
X0185046Y0067795D02*
X0179537Y0067795D01*
X0181384Y0066196D02*
X0183199Y0066196D01*
X0182537Y0064598D02*
X0182046Y0064598D01*
X0182070Y0062999D02*
X0182513Y0062999D01*
X0183570Y0074189D02*
X0174050Y0074189D01*
X0175649Y0075787D02*
X0183570Y0075787D01*
X0183762Y0077386D02*
X0177247Y0077386D01*
X0174222Y0080583D02*
X0105519Y0080583D01*
X0104570Y0082181D02*
X0175820Y0082181D01*
X0172623Y0078984D02*
X0159380Y0078984D01*
X0177370Y0090620D02*
X0177528Y0090778D01*
X0177528Y0120620D01*
X0160119Y0123743D02*
X0159570Y0123743D01*
X0159570Y0125341D02*
X0203170Y0125341D01*
X0203170Y0126940D02*
X0159570Y0126940D01*
X0159570Y0128538D02*
X0204349Y0128538D01*
X0207370Y0128538D02*
X0207370Y0128538D01*
X0207370Y0129820D02*
X0207370Y0125620D01*
X0207370Y0130620D01*
X0202370Y0135620D01*
X0202370Y0140778D01*
X0202370Y0141326D02*
X0202370Y0141326D01*
X0202370Y0139728D02*
X0202370Y0139728D01*
X0202370Y0138129D02*
X0202370Y0138129D01*
X0202370Y0142925D02*
X0202370Y0142925D01*
X0208586Y0152516D02*
X0209172Y0152516D01*
X0174115Y0168501D02*
X0167600Y0168501D01*
X0166002Y0170099D02*
X0173570Y0170099D01*
X0173570Y0171698D02*
X0164403Y0171698D01*
X0174673Y0173297D02*
X0150068Y0173297D01*
X0149026Y0166902D02*
X0162976Y0166902D01*
X0119064Y0177829D02*
X0119064Y0177829D01*
X0095946Y0186085D02*
X0227319Y0186085D01*
X0230707Y0174895D02*
X0234034Y0174895D01*
X0233570Y0173297D02*
X0231170Y0173297D01*
X0231170Y0171698D02*
X0233570Y0171698D01*
X0223570Y0173297D02*
X0220068Y0173297D01*
X0269570Y0147720D02*
X0302159Y0147720D01*
X0303757Y0146122D02*
X0289642Y0146122D01*
X0289523Y0146242D02*
X0288126Y0146820D01*
X0286614Y0146820D01*
X0285218Y0146242D01*
X0284149Y0145173D01*
X0283570Y0143776D01*
X0283570Y0137464D01*
X0284149Y0136068D01*
X0285218Y0134999D01*
X0286614Y0134420D01*
X0288126Y0134420D01*
X0289523Y0134999D01*
X0290592Y0136068D01*
X0291170Y0137464D01*
X0291170Y0143776D01*
X0290592Y0145173D01*
X0289523Y0146242D01*
X0290860Y0144523D02*
X0305170Y0144523D01*
X0305170Y0142925D02*
X0291170Y0142925D01*
X0291170Y0141326D02*
X0305170Y0141326D01*
X0305170Y0139728D02*
X0291170Y0139728D01*
X0291170Y0138129D02*
X0305170Y0138129D01*
X0305170Y0136531D02*
X0290783Y0136531D01*
X0289362Y0134932D02*
X0305170Y0134932D01*
X0305170Y0133334D02*
X0292430Y0133334D01*
X0293421Y0131735D02*
X0305170Y0131735D01*
X0305170Y0130137D02*
X0293570Y0130137D01*
X0293021Y0128538D02*
X0305170Y0128538D01*
X0305170Y0126940D02*
X0290815Y0126940D01*
X0287359Y0123743D02*
X0306136Y0123743D01*
X0305170Y0125341D02*
X0285760Y0125341D01*
X0281719Y0128538D02*
X0270662Y0128538D01*
X0271170Y0130137D02*
X0281170Y0130137D01*
X0281319Y0131735D02*
X0271170Y0131735D01*
X0270030Y0133334D02*
X0282310Y0133334D01*
X0280592Y0136068D02*
X0281170Y0137464D01*
X0281170Y0143776D01*
X0280592Y0145173D01*
X0279523Y0146242D01*
X0278126Y0146820D01*
X0276614Y0146820D01*
X0275218Y0146242D01*
X0274149Y0145173D01*
X0273570Y0143776D01*
X0273570Y0137464D01*
X0274149Y0136068D01*
X0275218Y0134999D01*
X0276614Y0134420D01*
X0278126Y0134420D01*
X0279523Y0134999D01*
X0280592Y0136068D01*
X0280783Y0136531D02*
X0283957Y0136531D01*
X0283570Y0138129D02*
X0281170Y0138129D01*
X0281170Y0139728D02*
X0283570Y0139728D01*
X0283570Y0141326D02*
X0281170Y0141326D01*
X0281170Y0142925D02*
X0283570Y0142925D01*
X0283880Y0144523D02*
X0280860Y0144523D01*
X0279642Y0146122D02*
X0285098Y0146122D01*
X0275098Y0146122D02*
X0269642Y0146122D01*
X0270860Y0144523D02*
X0273880Y0144523D01*
X0273570Y0142925D02*
X0271170Y0142925D01*
X0271170Y0141326D02*
X0273570Y0141326D01*
X0273570Y0139728D02*
X0271170Y0139728D01*
X0271170Y0138129D02*
X0273570Y0138129D01*
X0273957Y0136531D02*
X0270783Y0136531D01*
X0269362Y0134932D02*
X0275378Y0134932D01*
X0279362Y0134932D02*
X0285378Y0134932D01*
X0282735Y0122144D02*
X0280345Y0122144D01*
X0280551Y0120546D02*
X0284333Y0120546D01*
X0285932Y0118947D02*
X0280196Y0118947D01*
X0277370Y0120620D02*
X0262370Y0120620D01*
X0257370Y0115620D01*
X0259570Y0114152D02*
X0300727Y0114152D01*
X0299129Y0115750D02*
X0260611Y0115750D01*
X0262210Y0117349D02*
X0297530Y0117349D01*
X0300556Y0120546D02*
X0309333Y0120546D01*
X0307735Y0122144D02*
X0298957Y0122144D01*
X0302154Y0118947D02*
X0310932Y0118947D01*
X0317530Y0117349D02*
X0303753Y0117349D01*
X0305351Y0115750D02*
X0319129Y0115750D01*
X0320170Y0114152D02*
X0306950Y0114152D01*
X0308548Y0112553D02*
X0320170Y0112553D01*
X0320170Y0110955D02*
X0310147Y0110955D01*
X0311745Y0109356D02*
X0320170Y0109356D01*
X0320170Y0107758D02*
X0313344Y0107758D01*
X0314942Y0106159D02*
X0320170Y0106159D01*
X0320170Y0104561D02*
X0316541Y0104561D01*
X0318139Y0102962D02*
X0320170Y0102962D01*
X0320170Y0101364D02*
X0319570Y0101364D01*
X0319570Y0099765D02*
X0320170Y0099765D01*
X0320170Y0098166D02*
X0319570Y0098166D01*
X0319570Y0096568D02*
X0320170Y0096568D01*
X0320170Y0094969D02*
X0319570Y0094969D01*
X0319570Y0093371D02*
X0320170Y0093371D01*
X0320170Y0091772D02*
X0319570Y0091772D01*
X0319570Y0090174D02*
X0320170Y0090174D01*
X0319570Y0088575D02*
X0321303Y0088575D01*
X0322902Y0086977D02*
X0319570Y0086977D01*
X0319570Y0085378D02*
X0324500Y0085378D01*
X0325170Y0083780D02*
X0319570Y0083780D01*
X0319570Y0082181D02*
X0325170Y0082181D01*
X0325170Y0080583D02*
X0319570Y0080583D01*
X0319570Y0078984D02*
X0325170Y0078984D01*
X0325170Y0077386D02*
X0319570Y0077386D01*
X0320314Y0075787D02*
X0325170Y0075787D01*
X0325690Y0074189D02*
X0321913Y0074189D01*
X0323511Y0072590D02*
X0327289Y0072590D01*
X0328528Y0070992D02*
X0325110Y0070992D01*
X0326708Y0069393D02*
X0328528Y0069393D01*
X0328711Y0067795D02*
X0328307Y0067795D01*
X0325281Y0064598D02*
X0314213Y0064598D01*
X0315052Y0065437D02*
X0316213Y0068238D01*
X0316213Y0071270D01*
X0315052Y0074071D01*
X0312908Y0076215D01*
X0310107Y0077375D01*
X0294633Y0077375D01*
X0291832Y0076215D01*
X0289688Y0074071D01*
X0288528Y0071270D01*
X0288528Y0068238D01*
X0289688Y0065437D01*
X0291832Y0063293D01*
X0294633Y0062133D01*
X0310107Y0062133D01*
X0312908Y0063293D01*
X0315052Y0065437D01*
X0315367Y0066196D02*
X0323683Y0066196D01*
X0322084Y0067795D02*
X0316029Y0067795D01*
X0316213Y0069393D02*
X0320486Y0069393D01*
X0318887Y0070992D02*
X0316213Y0070992D01*
X0315666Y0072590D02*
X0317289Y0072590D01*
X0316459Y0073420D02*
X0316459Y0073420D01*
X0315690Y0074189D02*
X0314935Y0074189D01*
X0315170Y0075787D02*
X0313336Y0075787D01*
X0315170Y0077386D02*
X0247247Y0077386D01*
X0248846Y0078984D02*
X0315170Y0078984D01*
X0315170Y0080583D02*
X0250444Y0080583D01*
X0252043Y0082181D02*
X0315170Y0082181D01*
X0315170Y0083780D02*
X0253641Y0083780D01*
X0255240Y0085378D02*
X0293640Y0085378D01*
X0290982Y0086977D02*
X0256838Y0086977D01*
X0258437Y0088575D02*
X0289562Y0088575D01*
X0288900Y0090174D02*
X0259570Y0090174D01*
X0259570Y0091772D02*
X0288528Y0091772D01*
X0288528Y0093371D02*
X0280495Y0093371D01*
X0281170Y0094046D02*
X0278944Y0091820D01*
X0275796Y0091820D01*
X0273570Y0094046D01*
X0273570Y0097194D01*
X0275796Y0099420D01*
X0278944Y0099420D01*
X0281170Y0097194D01*
X0281170Y0094046D01*
X0281170Y0094969D02*
X0288886Y0094969D01*
X0289548Y0096568D02*
X0281170Y0096568D01*
X0280198Y0098166D02*
X0290949Y0098166D01*
X0293559Y0099765D02*
X0259570Y0099765D01*
X0259570Y0098166D02*
X0264542Y0098166D01*
X0263570Y0097194D02*
X0263570Y0094046D01*
X0265796Y0091820D01*
X0268944Y0091820D01*
X0271170Y0094046D01*
X0271170Y0097194D01*
X0268944Y0099420D01*
X0265796Y0099420D01*
X0263570Y0097194D01*
X0263570Y0096568D02*
X0259570Y0096568D01*
X0259570Y0094969D02*
X0263570Y0094969D01*
X0264245Y0093371D02*
X0259570Y0093371D01*
X0255170Y0096568D02*
X0199570Y0096568D01*
X0199570Y0098166D02*
X0255170Y0098166D01*
X0255170Y0099765D02*
X0199570Y0099765D01*
X0199570Y0101364D02*
X0255170Y0101364D01*
X0255170Y0102962D02*
X0199570Y0102962D01*
X0199570Y0104561D02*
X0255170Y0104561D01*
X0255170Y0106159D02*
X0199570Y0106159D01*
X0195170Y0094969D02*
X0179728Y0094969D01*
X0179993Y0093371D02*
X0195170Y0093371D01*
X0239570Y0069393D02*
X0265769Y0069393D01*
X0265796Y0069420D02*
X0264196Y0067820D01*
X0256459Y0067820D01*
X0255170Y0066531D01*
X0251913Y0063274D01*
X0251913Y0064540D01*
X0251197Y0066267D01*
X0249875Y0067590D01*
X0248147Y0068305D01*
X0246278Y0068305D01*
X0244550Y0067590D01*
X0243228Y0066267D01*
X0242513Y0064540D01*
X0242513Y0056070D01*
X0243228Y0054343D01*
X0244550Y0053021D01*
X0246278Y0052305D01*
X0248147Y0052305D01*
X0249875Y0053021D01*
X0251197Y0054343D01*
X0251913Y0056070D01*
X0251913Y0058105D01*
X0252966Y0058105D01*
X0258281Y0063420D01*
X0264196Y0063420D01*
X0265796Y0061820D01*
X0268944Y0061820D01*
X0271170Y0064046D01*
X0271170Y0067194D01*
X0268944Y0069420D01*
X0265796Y0069420D01*
X0268971Y0069393D02*
X0275769Y0069393D01*
X0275796Y0069420D02*
X0273570Y0067194D01*
X0273570Y0064046D01*
X0275170Y0062446D01*
X0275170Y0053794D01*
X0273570Y0052194D01*
X0273570Y0049046D01*
X0275796Y0046820D01*
X0278944Y0046820D01*
X0281170Y0049046D01*
X0281170Y0052194D01*
X0279570Y0053794D01*
X0279570Y0062446D01*
X0281170Y0064046D01*
X0281170Y0067194D01*
X0278944Y0069420D01*
X0275796Y0069420D01*
X0274171Y0067795D02*
X0270569Y0067795D01*
X0271170Y0066196D02*
X0273570Y0066196D01*
X0273570Y0064598D02*
X0271170Y0064598D01*
X0270123Y0062999D02*
X0274617Y0062999D01*
X0275170Y0061401D02*
X0256262Y0061401D01*
X0257861Y0062999D02*
X0264617Y0062999D01*
X0267370Y0065620D02*
X0257370Y0065620D01*
X0252055Y0060305D01*
X0247213Y0060305D01*
X0242513Y0059802D02*
X0242070Y0059802D01*
X0242070Y0058204D02*
X0242513Y0058204D01*
X0242513Y0056605D02*
X0242070Y0056605D01*
X0241630Y0055007D02*
X0242953Y0055007D01*
X0244163Y0053408D02*
X0240420Y0053408D01*
X0250262Y0053408D02*
X0264218Y0053408D01*
X0263170Y0052360D02*
X0265630Y0054820D01*
X0267370Y0054820D01*
X0267370Y0050620D01*
X0262370Y0045620D01*
X0212370Y0045620D01*
X0208170Y0045620D01*
X0208170Y0043880D01*
X0208630Y0043420D01*
X0010170Y0043420D01*
X0010170Y0214985D01*
X0398271Y0214985D01*
X0398271Y0043420D01*
X0394467Y0043420D01*
X0394635Y0043588D01*
X0395275Y0044422D01*
X0395801Y0045332D01*
X0396203Y0046304D01*
X0396475Y0047320D01*
X0396576Y0048088D01*
X0383170Y0048088D01*
X0383170Y0049688D01*
X0381570Y0049688D01*
X0381570Y0056909D01*
X0375623Y0056909D01*
X0374581Y0056772D01*
X0373565Y0056500D01*
X0372593Y0056097D01*
X0371683Y0055572D01*
X0370849Y0054931D01*
X0370105Y0054188D01*
X0369465Y0053354D01*
X0368939Y0052443D01*
X0368537Y0051472D01*
X0368265Y0050456D01*
X0368164Y0049688D01*
X0381570Y0049688D01*
X0381570Y0048088D01*
X0368164Y0048088D01*
X0368265Y0047320D01*
X0368537Y0046304D01*
X0368939Y0045332D01*
X0369465Y0044422D01*
X0370105Y0043588D01*
X0370273Y0043420D01*
X0354467Y0043420D01*
X0354635Y0043588D01*
X0355275Y0044422D01*
X0355801Y0045332D01*
X0356203Y0046304D01*
X0356475Y0047320D01*
X0356576Y0048088D01*
X0343170Y0048088D01*
X0343170Y0049688D01*
X0341570Y0049688D01*
X0341570Y0056909D01*
X0335623Y0056909D01*
X0334581Y0056772D01*
X0333565Y0056500D01*
X0332593Y0056097D01*
X0331683Y0055572D01*
X0330849Y0054931D01*
X0330105Y0054188D01*
X0329465Y0053354D01*
X0328939Y0052443D01*
X0328537Y0051472D01*
X0328265Y0050456D01*
X0328164Y0049688D01*
X0341570Y0049688D01*
X0341570Y0048088D01*
X0328164Y0048088D01*
X0328265Y0047320D01*
X0328537Y0046304D01*
X0328939Y0045332D01*
X0329465Y0044422D01*
X0330105Y0043588D01*
X0330273Y0043420D01*
X0314467Y0043420D01*
X0314635Y0043588D01*
X0315275Y0044422D01*
X0315801Y0045332D01*
X0316203Y0046304D01*
X0316475Y0047320D01*
X0316576Y0048088D01*
X0303170Y0048088D01*
X0303170Y0049688D01*
X0301570Y0049688D01*
X0301570Y0056909D01*
X0295623Y0056909D01*
X0294581Y0056772D01*
X0293565Y0056500D01*
X0292593Y0056097D01*
X0291683Y0055572D01*
X0290849Y0054931D01*
X0290105Y0054188D01*
X0289465Y0053354D01*
X0288939Y0052443D01*
X0288537Y0051472D01*
X0288265Y0050456D01*
X0288164Y0049688D01*
X0301570Y0049688D01*
X0301570Y0048088D01*
X0288164Y0048088D01*
X0288265Y0047320D01*
X0288537Y0046304D01*
X0288939Y0045332D01*
X0289465Y0044422D01*
X0290105Y0043588D01*
X0290273Y0043420D01*
X0216110Y0043420D01*
X0216570Y0043880D01*
X0216570Y0045620D01*
X0212370Y0045620D01*
X0212370Y0045620D01*
X0202370Y0045620D01*
X0208170Y0045620D02*
X0208170Y0047360D01*
X0210630Y0049820D01*
X0212370Y0049820D01*
X0212370Y0045620D01*
X0208170Y0045620D01*
X0208170Y0045416D02*
X0010170Y0045416D01*
X0010170Y0047014D02*
X0062710Y0047014D01*
X0064036Y0047014D02*
X0065586Y0047014D01*
X0066912Y0047014D02*
X0080602Y0047014D01*
X0079004Y0048613D02*
X0069359Y0048613D01*
X0070454Y0050211D02*
X0078570Y0050211D01*
X0078570Y0051810D02*
X0070965Y0051810D01*
X0071061Y0053408D02*
X0079784Y0053408D01*
X0080170Y0055007D02*
X0071061Y0055007D01*
X0071061Y0058204D02*
X0079412Y0058204D01*
X0080170Y0056605D02*
X0065586Y0056605D01*
X0064036Y0056605D02*
X0025779Y0056605D01*
X0025779Y0055007D02*
X0058561Y0055007D01*
X0058561Y0053408D02*
X0025779Y0053408D01*
X0025779Y0051810D02*
X0058657Y0051810D01*
X0059168Y0050211D02*
X0025146Y0050211D01*
X0024888Y0049589D02*
X0025779Y0051739D01*
X0025779Y0062966D01*
X0024888Y0065116D01*
X0023243Y0066761D01*
X0021093Y0067652D01*
X0018766Y0067652D01*
X0016616Y0066761D01*
X0014970Y0065116D01*
X0014080Y0062966D01*
X0014080Y0051739D01*
X0014970Y0049589D01*
X0016616Y0047944D01*
X0018766Y0047053D01*
X0021093Y0047053D01*
X0023243Y0047944D01*
X0024888Y0049589D01*
X0023912Y0048613D02*
X0060263Y0048613D01*
X0064036Y0048613D02*
X0065586Y0048613D01*
X0065586Y0050211D02*
X0064036Y0050211D01*
X0064036Y0051810D02*
X0065586Y0051810D01*
X0065586Y0053408D02*
X0064036Y0053408D01*
X0064036Y0055007D02*
X0065586Y0055007D01*
X0065586Y0058204D02*
X0064036Y0058204D01*
X0064036Y0059802D02*
X0065586Y0059802D01*
X0065586Y0061401D02*
X0064036Y0061401D01*
X0064036Y0062999D02*
X0065586Y0062999D01*
X0065586Y0064598D02*
X0064036Y0064598D01*
X0064036Y0066196D02*
X0065586Y0066196D01*
X0060367Y0066196D02*
X0023807Y0066196D01*
X0025103Y0064598D02*
X0059221Y0064598D01*
X0058673Y0062999D02*
X0025765Y0062999D01*
X0025779Y0061401D02*
X0058561Y0061401D01*
X0058561Y0059802D02*
X0025779Y0059802D01*
X0025779Y0058204D02*
X0058561Y0058204D01*
X0071061Y0059802D02*
X0078570Y0059802D01*
X0078570Y0061401D02*
X0071061Y0061401D01*
X0070949Y0062999D02*
X0079375Y0062999D01*
X0082370Y0060620D02*
X0082370Y0050620D01*
X0084956Y0053408D02*
X0089218Y0053408D01*
X0088170Y0051810D02*
X0086170Y0051810D01*
X0086170Y0050211D02*
X0088170Y0050211D01*
X0088438Y0048613D02*
X0085737Y0048613D01*
X0084138Y0047014D02*
X0090036Y0047014D01*
X0092370Y0047014D02*
X0092370Y0047014D01*
X0092370Y0048613D02*
X0092370Y0048613D01*
X0092370Y0050211D02*
X0092370Y0050211D01*
X0092370Y0051810D02*
X0092370Y0051810D01*
X0092370Y0053408D02*
X0092370Y0053408D01*
X0096570Y0050211D02*
X0263170Y0050211D01*
X0263438Y0048613D02*
X0215317Y0048613D01*
X0214110Y0049820D02*
X0216570Y0047360D01*
X0216570Y0045620D01*
X0212370Y0045620D01*
X0212370Y0045620D01*
X0212370Y0045620D01*
X0212370Y0049820D01*
X0214110Y0049820D01*
X0212370Y0048613D02*
X0212370Y0048613D01*
X0212370Y0047014D02*
X0212370Y0047014D01*
X0209423Y0048613D02*
X0096302Y0048613D01*
X0094704Y0047014D02*
X0208170Y0047014D01*
X0208233Y0043817D02*
X0010170Y0043817D01*
X0010170Y0048613D02*
X0015947Y0048613D01*
X0014712Y0050211D02*
X0010170Y0050211D01*
X0010170Y0051810D02*
X0014080Y0051810D01*
X0014080Y0053408D02*
X0010170Y0053408D01*
X0010170Y0055007D02*
X0014080Y0055007D01*
X0014080Y0056605D02*
X0010170Y0056605D01*
X0010170Y0058204D02*
X0014080Y0058204D01*
X0014080Y0059802D02*
X0010170Y0059802D01*
X0010170Y0061401D02*
X0014080Y0061401D01*
X0014093Y0062999D02*
X0010170Y0062999D01*
X0010170Y0064598D02*
X0014756Y0064598D01*
X0016051Y0066196D02*
X0010170Y0066196D01*
X0010170Y0096568D02*
X0090170Y0096568D01*
X0090170Y0098166D02*
X0068347Y0098166D01*
X0068125Y0097944D02*
X0069770Y0099589D01*
X0070661Y0101739D01*
X0070661Y0112966D01*
X0069770Y0115116D01*
X0068125Y0116761D01*
X0067011Y0117222D01*
X0067011Y0119090D01*
X0049570Y0136531D01*
X0049570Y0147446D01*
X0051170Y0149046D01*
X0051170Y0152194D01*
X0048944Y0154420D01*
X0045796Y0154420D01*
X0044196Y0152820D01*
X0038281Y0152820D01*
X0031170Y0159931D01*
X0031170Y0162194D01*
X0028944Y0164420D01*
X0025796Y0164420D01*
X0023570Y0162194D01*
X0023570Y0159046D01*
X0025796Y0156820D01*
X0028059Y0156820D01*
X0035170Y0149709D01*
X0035170Y0149709D01*
X0036459Y0148420D01*
X0044196Y0148420D01*
X0045170Y0147446D01*
X0045170Y0134709D01*
X0062611Y0117268D01*
X0062611Y0117222D01*
X0061497Y0116761D01*
X0059852Y0115116D01*
X0058961Y0112966D01*
X0058961Y0101739D01*
X0059852Y0099589D01*
X0061497Y0097944D01*
X0063647Y0097053D01*
X0065975Y0097053D01*
X0068125Y0097944D01*
X0069843Y0099765D02*
X0090114Y0099765D01*
X0088515Y0101364D02*
X0070505Y0101364D01*
X0070661Y0102962D02*
X0086917Y0102962D01*
X0085318Y0104561D02*
X0070661Y0104561D01*
X0070661Y0106159D02*
X0083720Y0106159D01*
X0082121Y0107758D02*
X0070661Y0107758D01*
X0070661Y0109356D02*
X0080523Y0109356D01*
X0078924Y0110955D02*
X0070661Y0110955D01*
X0070661Y0112553D02*
X0077326Y0112553D01*
X0075727Y0114152D02*
X0070169Y0114152D01*
X0069135Y0115750D02*
X0074129Y0115750D01*
X0072530Y0117349D02*
X0067011Y0117349D01*
X0067011Y0118947D02*
X0070932Y0118947D01*
X0069333Y0120546D02*
X0065556Y0120546D01*
X0063957Y0122144D02*
X0067735Y0122144D01*
X0066136Y0123743D02*
X0062359Y0123743D01*
X0060760Y0125341D02*
X0064538Y0125341D01*
X0062939Y0126940D02*
X0059162Y0126940D01*
X0057563Y0128538D02*
X0061341Y0128538D01*
X0061459Y0128420D02*
X0061459Y0128420D01*
X0060170Y0130137D02*
X0055965Y0130137D01*
X0054366Y0131735D02*
X0060170Y0131735D01*
X0060170Y0133334D02*
X0052768Y0133334D01*
X0051169Y0134932D02*
X0060170Y0134932D01*
X0060170Y0136531D02*
X0049571Y0136531D01*
X0049570Y0138129D02*
X0060170Y0138129D01*
X0060170Y0139728D02*
X0049570Y0139728D01*
X0049570Y0141326D02*
X0060170Y0141326D01*
X0060170Y0142925D02*
X0049570Y0142925D01*
X0049570Y0144523D02*
X0060170Y0144523D01*
X0058757Y0146122D02*
X0049570Y0146122D01*
X0049844Y0147720D02*
X0057159Y0147720D01*
X0055560Y0149319D02*
X0051170Y0149319D01*
X0051170Y0150917D02*
X0053962Y0150917D01*
X0052363Y0152516D02*
X0050848Y0152516D01*
X0050764Y0154114D02*
X0049250Y0154114D01*
X0049166Y0155713D02*
X0035389Y0155713D01*
X0036987Y0154114D02*
X0045490Y0154114D01*
X0045305Y0157311D02*
X0033790Y0157311D01*
X0032191Y0158910D02*
X0043706Y0158910D01*
X0043570Y0160508D02*
X0031170Y0160508D01*
X0031170Y0162107D02*
X0043570Y0162107D01*
X0045081Y0163705D02*
X0029659Y0163705D01*
X0027370Y0160620D02*
X0037370Y0150620D01*
X0047370Y0150620D01*
X0047370Y0135620D01*
X0064811Y0118179D01*
X0064811Y0107352D01*
X0058961Y0107758D02*
X0020704Y0107758D01*
X0020704Y0108127D02*
X0026179Y0108127D01*
X0026179Y0112294D01*
X0026025Y0113265D01*
X0025721Y0114201D01*
X0025274Y0115077D01*
X0024696Y0115873D01*
X0024000Y0116569D01*
X0023205Y0117147D01*
X0022328Y0117594D01*
X0021393Y0117898D01*
X0020704Y0118007D01*
X0020704Y0108127D01*
X0020704Y0106578D01*
X0026179Y0106578D01*
X0026179Y0102411D01*
X0026025Y0101439D01*
X0025721Y0100504D01*
X0025274Y0099627D01*
X0024696Y0098831D01*
X0024000Y0098136D01*
X0023205Y0097558D01*
X0022328Y0097111D01*
X0021393Y0096807D01*
X0020704Y0096698D01*
X0020704Y0106577D01*
X0019154Y0106577D01*
X0019154Y0096698D01*
X0018466Y0096807D01*
X0017530Y0097111D01*
X0016654Y0097558D01*
X0015858Y0098136D01*
X0015162Y0098831D01*
X0014584Y0099627D01*
X0014137Y0100504D01*
X0013833Y0101439D01*
X0013680Y0102411D01*
X0013680Y0106578D01*
X0019154Y0106578D01*
X0019154Y0108127D01*
X0013680Y0108127D01*
X0013680Y0112294D01*
X0013833Y0113265D01*
X0014137Y0114201D01*
X0014584Y0115077D01*
X0015162Y0115873D01*
X0015858Y0116569D01*
X0016654Y0117147D01*
X0017530Y0117594D01*
X0018466Y0117898D01*
X0019154Y0118007D01*
X0019154Y0108127D01*
X0020704Y0108127D01*
X0020704Y0109356D02*
X0019154Y0109356D01*
X0019154Y0107758D02*
X0010170Y0107758D01*
X0010170Y0109356D02*
X0013680Y0109356D01*
X0013680Y0110955D02*
X0010170Y0110955D01*
X0010170Y0112553D02*
X0013721Y0112553D01*
X0014121Y0114152D02*
X0010170Y0114152D01*
X0010170Y0115750D02*
X0015073Y0115750D01*
X0017049Y0117349D02*
X0010170Y0117349D01*
X0010170Y0118947D02*
X0039751Y0118947D01*
X0040952Y0118450D02*
X0038331Y0119536D01*
X0036325Y0121541D01*
X0035239Y0124162D01*
X0035239Y0126999D01*
X0036325Y0129620D01*
X0038331Y0131626D01*
X0040952Y0132711D01*
X0043788Y0132711D01*
X0046409Y0131626D01*
X0048415Y0129620D01*
X0049501Y0126999D01*
X0049501Y0124162D01*
X0048415Y0121541D01*
X0046409Y0119536D01*
X0043788Y0118450D01*
X0040952Y0118450D01*
X0044989Y0118947D02*
X0060932Y0118947D01*
X0062530Y0117349D02*
X0022809Y0117349D01*
X0020704Y0117349D02*
X0019154Y0117349D01*
X0019154Y0115750D02*
X0020704Y0115750D01*
X0020704Y0114152D02*
X0019154Y0114152D01*
X0019154Y0112553D02*
X0020704Y0112553D01*
X0020704Y0110955D02*
X0019154Y0110955D01*
X0019154Y0106159D02*
X0020704Y0106159D01*
X0020704Y0104561D02*
X0019154Y0104561D01*
X0019154Y0102962D02*
X0020704Y0102962D01*
X0020704Y0101364D02*
X0019154Y0101364D01*
X0019154Y0099765D02*
X0020704Y0099765D01*
X0020704Y0098166D02*
X0019154Y0098166D01*
X0015827Y0098166D02*
X0010170Y0098166D01*
X0010170Y0099765D02*
X0014514Y0099765D01*
X0013858Y0101364D02*
X0010170Y0101364D01*
X0010170Y0102962D02*
X0013680Y0102962D01*
X0013680Y0104561D02*
X0010170Y0104561D01*
X0010170Y0106159D02*
X0013680Y0106159D01*
X0026179Y0106159D02*
X0058961Y0106159D01*
X0058961Y0104561D02*
X0026179Y0104561D01*
X0026179Y0102962D02*
X0058961Y0102962D01*
X0059117Y0101364D02*
X0026000Y0101364D01*
X0025344Y0099765D02*
X0059779Y0099765D01*
X0061275Y0098166D02*
X0024031Y0098166D01*
X0026179Y0109356D02*
X0058961Y0109356D01*
X0058961Y0110955D02*
X0026179Y0110955D01*
X0026138Y0112553D02*
X0058961Y0112553D01*
X0059453Y0114152D02*
X0025737Y0114152D01*
X0024786Y0115750D02*
X0060487Y0115750D01*
X0059333Y0120546D02*
X0047419Y0120546D01*
X0048665Y0122144D02*
X0057735Y0122144D01*
X0056136Y0123743D02*
X0049327Y0123743D01*
X0049501Y0125341D02*
X0054538Y0125341D01*
X0052939Y0126940D02*
X0049501Y0126940D01*
X0048863Y0128538D02*
X0051341Y0128538D01*
X0049742Y0130137D02*
X0047898Y0130137D01*
X0048144Y0131735D02*
X0046145Y0131735D01*
X0046545Y0133334D02*
X0010170Y0133334D01*
X0010170Y0134932D02*
X0045170Y0134932D01*
X0045170Y0136531D02*
X0010170Y0136531D01*
X0010170Y0138129D02*
X0045170Y0138129D01*
X0045170Y0139728D02*
X0010170Y0139728D01*
X0010170Y0141326D02*
X0045170Y0141326D01*
X0045170Y0142925D02*
X0010170Y0142925D01*
X0010170Y0144523D02*
X0045170Y0144523D01*
X0045170Y0146122D02*
X0010170Y0146122D01*
X0010170Y0147720D02*
X0014330Y0147720D01*
X0013170Y0149319D02*
X0010170Y0149319D01*
X0010170Y0150917D02*
X0013170Y0150917D01*
X0013170Y0150620D02*
X0017370Y0150620D01*
X0017370Y0146420D01*
X0019110Y0146420D01*
X0021570Y0148880D01*
X0021570Y0150620D01*
X0017370Y0150620D01*
X0017370Y0150620D01*
X0017370Y0154820D01*
X0015630Y0154820D01*
X0013170Y0152360D01*
X0013170Y0150620D01*
X0013326Y0152516D02*
X0010170Y0152516D01*
X0010170Y0154114D02*
X0014925Y0154114D01*
X0017370Y0154114D02*
X0017370Y0154114D01*
X0017370Y0154820D02*
X0019110Y0154820D01*
X0021570Y0152360D01*
X0021570Y0150620D01*
X0017370Y0150620D01*
X0017370Y0150620D01*
X0017370Y0154820D01*
X0017370Y0152516D02*
X0017370Y0152516D01*
X0017370Y0150917D02*
X0017370Y0150917D01*
X0017370Y0149319D02*
X0017370Y0149319D01*
X0017370Y0147720D02*
X0017370Y0147720D01*
X0020410Y0147720D02*
X0044896Y0147720D01*
X0035560Y0149319D02*
X0021570Y0149319D01*
X0021570Y0150917D02*
X0033962Y0150917D01*
X0032363Y0152516D02*
X0021414Y0152516D01*
X0019815Y0154114D02*
X0030765Y0154114D01*
X0029166Y0155713D02*
X0010170Y0155713D01*
X0010170Y0157311D02*
X0025305Y0157311D01*
X0023706Y0158910D02*
X0010170Y0158910D01*
X0010170Y0160508D02*
X0023570Y0160508D01*
X0023570Y0162107D02*
X0010170Y0162107D01*
X0010170Y0163705D02*
X0025081Y0163705D01*
X0015148Y0166902D02*
X0010170Y0166902D01*
X0010170Y0165304D02*
X0045170Y0165304D01*
X0013549Y0168501D02*
X0010170Y0168501D01*
X0010170Y0170099D02*
X0013170Y0170099D01*
X0013170Y0171698D02*
X0010170Y0171698D01*
X0079807Y0187683D02*
X0091322Y0187683D01*
X0092920Y0189282D02*
X0081170Y0189282D01*
X0081170Y0190880D02*
X0093570Y0190880D01*
X0093855Y0192479D02*
X0080885Y0192479D01*
X0079570Y0194077D02*
X0095453Y0194077D01*
X0097370Y0190620D02*
X0087370Y0180620D01*
X0010170Y0214858D02*
X0398271Y0214858D01*
X0372470Y0203668D02*
X0372270Y0203668D01*
X0372270Y0202070D02*
X0372470Y0202070D01*
X0372470Y0198873D02*
X0372270Y0198873D01*
X0372270Y0197274D02*
X0372470Y0197274D01*
X0372470Y0195676D02*
X0376910Y0195676D01*
X0376870Y0197274D02*
X0378270Y0197274D01*
X0362470Y0197274D02*
X0362270Y0197274D01*
X0362270Y0198873D02*
X0362470Y0198873D01*
X0362470Y0202070D02*
X0362270Y0202070D01*
X0362270Y0203668D02*
X0362470Y0203668D01*
X0362470Y0205267D02*
X0362270Y0205267D01*
X0352470Y0203668D02*
X0352270Y0203668D01*
X0352270Y0202070D02*
X0352470Y0202070D01*
X0352470Y0198873D02*
X0352270Y0198873D01*
X0352270Y0197274D02*
X0352470Y0197274D01*
X0352470Y0194077D02*
X0352270Y0194077D01*
X0352270Y0192479D02*
X0352470Y0192479D01*
X0349148Y0192479D02*
X0345027Y0192479D01*
X0346470Y0194077D02*
X0347870Y0194077D01*
X0348228Y0184486D02*
X0365721Y0184486D01*
X0364122Y0182888D02*
X0350618Y0182888D01*
X0352216Y0181289D02*
X0362524Y0181289D01*
X0360925Y0179691D02*
X0353815Y0179691D01*
X0354579Y0178926D02*
X0354579Y0178926D01*
X0355414Y0178092D02*
X0359327Y0178092D01*
X0358511Y0176494D02*
X0356230Y0176494D01*
X0356270Y0174895D02*
X0358470Y0174895D01*
X0357273Y0173297D02*
X0356270Y0173297D01*
X0356270Y0171698D02*
X0356303Y0171698D01*
X0356270Y0168501D02*
X0356735Y0168501D01*
X0356603Y0166902D02*
X0359015Y0166902D01*
X0358202Y0165304D02*
X0366539Y0165304D01*
X0365725Y0166902D02*
X0368137Y0166902D01*
X0368005Y0168501D02*
X0369736Y0168501D01*
X0368570Y0170099D02*
X0380415Y0170099D01*
X0352634Y0154114D02*
X0304570Y0154114D01*
X0304570Y0152516D02*
X0351222Y0152516D01*
X0350770Y0150917D02*
X0305184Y0150917D01*
X0306783Y0149319D02*
X0350977Y0149319D01*
X0351930Y0147720D02*
X0308381Y0147720D01*
X0314214Y0134420D02*
X0312818Y0133842D01*
X0311749Y0132773D01*
X0311170Y0131376D01*
X0311170Y0129864D01*
X0311749Y0128468D01*
X0312818Y0127399D01*
X0314214Y0126820D01*
X0320526Y0126820D01*
X0321923Y0127399D01*
X0322992Y0128468D01*
X0323570Y0129864D01*
X0323570Y0131376D01*
X0322992Y0132773D01*
X0321923Y0133842D01*
X0320526Y0134420D01*
X0314214Y0134420D01*
X0312310Y0133334D02*
X0309570Y0133334D01*
X0309570Y0131735D02*
X0311319Y0131735D01*
X0311170Y0130137D02*
X0309570Y0130137D01*
X0309570Y0128538D02*
X0311719Y0128538D01*
X0309570Y0126940D02*
X0313925Y0126940D01*
X0310760Y0125341D02*
X0334538Y0125341D01*
X0335170Y0123743D02*
X0312359Y0123743D01*
X0318957Y0122144D02*
X0335170Y0122144D01*
X0335170Y0120546D02*
X0320556Y0120546D01*
X0322154Y0118947D02*
X0335170Y0118947D01*
X0335170Y0117349D02*
X0323753Y0117349D01*
X0324570Y0115750D02*
X0335170Y0115750D01*
X0335170Y0114152D02*
X0334213Y0114152D01*
X0330528Y0114152D02*
X0324570Y0114152D01*
X0324570Y0112553D02*
X0328929Y0112553D01*
X0328570Y0110955D02*
X0324570Y0110955D01*
X0324570Y0109356D02*
X0328570Y0109356D01*
X0329859Y0107758D02*
X0324570Y0107758D01*
X0324570Y0106159D02*
X0335170Y0106159D01*
X0335170Y0107758D02*
X0334882Y0107758D01*
X0337370Y0105620D02*
X0337370Y0125620D01*
X0332370Y0130620D01*
X0329710Y0133334D02*
X0322430Y0133334D01*
X0323421Y0131735D02*
X0328570Y0131735D01*
X0328570Y0130137D02*
X0323570Y0130137D01*
X0323021Y0128538D02*
X0329078Y0128538D01*
X0330676Y0126940D02*
X0320815Y0126940D01*
X0339570Y0123743D02*
X0357719Y0123743D01*
X0356488Y0122144D02*
X0339570Y0122144D01*
X0339570Y0120546D02*
X0356170Y0120546D01*
X0356550Y0118947D02*
X0339570Y0118947D01*
X0339570Y0117349D02*
X0357938Y0117349D01*
X0353944Y0114420D02*
X0350796Y0114420D01*
X0348570Y0112194D01*
X0348570Y0109046D01*
X0350796Y0106820D01*
X0353944Y0106820D01*
X0356170Y0109046D01*
X0356170Y0112194D01*
X0353944Y0114420D01*
X0354213Y0114152D02*
X0398271Y0114152D01*
X0398271Y0115750D02*
X0339570Y0115750D01*
X0339570Y0114152D02*
X0340528Y0114152D01*
X0344213Y0114152D02*
X0350528Y0114152D01*
X0348929Y0112553D02*
X0345811Y0112553D01*
X0346170Y0110955D02*
X0348570Y0110955D01*
X0348570Y0109356D02*
X0346170Y0109356D01*
X0344882Y0107758D02*
X0349859Y0107758D01*
X0349705Y0106159D02*
X0398271Y0106159D01*
X0398271Y0104561D02*
X0351170Y0104561D01*
X0351170Y0102962D02*
X0398271Y0102962D01*
X0398271Y0101364D02*
X0350987Y0101364D01*
X0351181Y0099765D02*
X0373559Y0099765D01*
X0374633Y0100210D02*
X0371832Y0099050D01*
X0369688Y0096906D01*
X0368528Y0094105D01*
X0368528Y0091073D01*
X0369688Y0088271D01*
X0371832Y0086128D01*
X0374633Y0084967D01*
X0390107Y0084967D01*
X0392908Y0086128D01*
X0395052Y0088271D01*
X0396213Y0091073D01*
X0396213Y0094105D01*
X0395052Y0096906D01*
X0392908Y0099050D01*
X0390107Y0100210D01*
X0374633Y0100210D01*
X0370949Y0098166D02*
X0353792Y0098166D01*
X0355192Y0096568D02*
X0369548Y0096568D01*
X0368886Y0094969D02*
X0355854Y0094969D01*
X0356213Y0093371D02*
X0368528Y0093371D01*
X0368528Y0091772D02*
X0356213Y0091772D01*
X0355840Y0090174D02*
X0368900Y0090174D01*
X0369562Y0088575D02*
X0355178Y0088575D01*
X0353758Y0086977D02*
X0370982Y0086977D01*
X0373640Y0085378D02*
X0351100Y0085378D01*
X0333640Y0085378D02*
X0329570Y0085378D01*
X0329570Y0083780D02*
X0398271Y0083780D01*
X0398271Y0085378D02*
X0391100Y0085378D01*
X0393758Y0086977D02*
X0398271Y0086977D01*
X0398271Y0088575D02*
X0395178Y0088575D01*
X0395840Y0090174D02*
X0398271Y0090174D01*
X0398271Y0091772D02*
X0396213Y0091772D01*
X0396213Y0093371D02*
X0398271Y0093371D01*
X0398271Y0094969D02*
X0395854Y0094969D01*
X0395192Y0096568D02*
X0398271Y0096568D01*
X0398271Y0098166D02*
X0393792Y0098166D01*
X0391181Y0099765D02*
X0398271Y0099765D01*
X0398271Y0107758D02*
X0354882Y0107758D01*
X0356170Y0109356D02*
X0398271Y0109356D01*
X0398271Y0110955D02*
X0356170Y0110955D01*
X0355811Y0112553D02*
X0398271Y0112553D01*
X0378854Y0128538D02*
X0368021Y0128538D01*
X0368570Y0130137D02*
X0381385Y0130137D01*
X0384214Y0136820D02*
X0382818Y0137399D01*
X0381749Y0138468D01*
X0381170Y0139864D01*
X0381170Y0141376D01*
X0381749Y0142773D01*
X0382818Y0143842D01*
X0384214Y0144420D01*
X0390526Y0144420D01*
X0391923Y0143842D01*
X0392992Y0142773D01*
X0393570Y0141376D01*
X0393570Y0139864D01*
X0392992Y0138468D01*
X0391923Y0137399D01*
X0390526Y0136820D01*
X0384214Y0136820D01*
X0382087Y0138129D02*
X0363152Y0138129D01*
X0363881Y0139728D02*
X0381227Y0139728D01*
X0381170Y0141326D02*
X0363911Y0141326D01*
X0363287Y0142925D02*
X0381901Y0142925D01*
X0392839Y0142925D02*
X0398271Y0142925D01*
X0398271Y0141326D02*
X0393570Y0141326D01*
X0393514Y0139728D02*
X0398271Y0139728D01*
X0398271Y0138129D02*
X0392653Y0138129D01*
X0398271Y0136531D02*
X0360776Y0136531D01*
X0339859Y0107758D02*
X0339570Y0107758D01*
X0339942Y0106159D02*
X0345035Y0106159D01*
X0339870Y0103120D02*
X0337370Y0105620D01*
X0335318Y0104561D02*
X0324570Y0104561D01*
X0324570Y0102962D02*
X0336917Y0102962D01*
X0338515Y0101364D02*
X0324570Y0101364D01*
X0324570Y0099765D02*
X0333559Y0099765D01*
X0330949Y0098166D02*
X0324570Y0098166D01*
X0324570Y0096568D02*
X0329548Y0096568D01*
X0328886Y0094969D02*
X0324570Y0094969D01*
X0324570Y0093371D02*
X0328528Y0093371D01*
X0328528Y0091772D02*
X0324570Y0091772D01*
X0325927Y0090174D02*
X0328900Y0090174D01*
X0329562Y0088575D02*
X0327526Y0088575D01*
X0329125Y0086977D02*
X0330982Y0086977D01*
X0329570Y0082181D02*
X0398271Y0082181D01*
X0398271Y0080583D02*
X0329570Y0080583D01*
X0329570Y0078984D02*
X0398271Y0078984D01*
X0398271Y0077386D02*
X0329570Y0077386D01*
X0330314Y0075787D02*
X0331404Y0075787D01*
X0315170Y0085378D02*
X0311100Y0085378D01*
X0313758Y0086977D02*
X0315170Y0086977D01*
X0315170Y0098166D02*
X0313792Y0098166D01*
X0315114Y0099765D02*
X0311181Y0099765D01*
X0313515Y0101364D02*
X0259570Y0101364D01*
X0259570Y0102962D02*
X0311917Y0102962D01*
X0310318Y0104561D02*
X0259570Y0104561D01*
X0259570Y0106159D02*
X0308720Y0106159D01*
X0307121Y0107758D02*
X0259570Y0107758D01*
X0259570Y0109356D02*
X0305523Y0109356D01*
X0303924Y0110955D02*
X0259570Y0110955D01*
X0259570Y0112553D02*
X0302326Y0112553D01*
X0274542Y0098166D02*
X0270198Y0098166D01*
X0271170Y0096568D02*
X0273570Y0096568D01*
X0273570Y0094969D02*
X0271170Y0094969D01*
X0270495Y0093371D02*
X0274245Y0093371D01*
X0291404Y0075787D02*
X0245649Y0075787D01*
X0244050Y0074189D02*
X0289806Y0074189D01*
X0289074Y0072590D02*
X0242452Y0072590D01*
X0240853Y0070992D02*
X0288528Y0070992D01*
X0288528Y0069393D02*
X0278971Y0069393D01*
X0280569Y0067795D02*
X0288711Y0067795D01*
X0289373Y0066196D02*
X0281170Y0066196D01*
X0281170Y0064598D02*
X0290527Y0064598D01*
X0292541Y0062999D02*
X0280123Y0062999D01*
X0279570Y0061401D02*
X0328478Y0061401D01*
X0326880Y0062999D02*
X0312199Y0062999D01*
X0310781Y0056605D02*
X0333959Y0056605D01*
X0330947Y0055007D02*
X0313793Y0055007D01*
X0313891Y0054931D02*
X0313057Y0055572D01*
X0312147Y0056097D01*
X0311175Y0056500D01*
X0310160Y0056772D01*
X0309117Y0056909D01*
X0303170Y0056909D01*
X0303170Y0049688D01*
X0316576Y0049688D01*
X0316475Y0050456D01*
X0316203Y0051472D01*
X0315801Y0052443D01*
X0315275Y0053354D01*
X0314635Y0054188D01*
X0313891Y0054931D01*
X0315233Y0053408D02*
X0329507Y0053408D01*
X0328677Y0051810D02*
X0316063Y0051810D01*
X0316508Y0050211D02*
X0328233Y0050211D01*
X0328347Y0047014D02*
X0316393Y0047014D01*
X0315835Y0045416D02*
X0328905Y0045416D01*
X0329929Y0043817D02*
X0314811Y0043817D01*
X0303170Y0048613D02*
X0341570Y0048613D01*
X0341570Y0050211D02*
X0343170Y0050211D01*
X0343170Y0049688D02*
X0343170Y0056909D01*
X0349117Y0056909D01*
X0350160Y0056772D01*
X0351175Y0056500D01*
X0352147Y0056097D01*
X0353057Y0055572D01*
X0353891Y0054931D01*
X0354635Y0054188D01*
X0355275Y0053354D01*
X0355801Y0052443D01*
X0356203Y0051472D01*
X0356475Y0050456D01*
X0356576Y0049688D01*
X0343170Y0049688D01*
X0343170Y0048613D02*
X0381570Y0048613D01*
X0381570Y0050211D02*
X0383170Y0050211D01*
X0383170Y0049688D02*
X0383170Y0056909D01*
X0389117Y0056909D01*
X0390160Y0056772D01*
X0391175Y0056500D01*
X0392147Y0056097D01*
X0393057Y0055572D01*
X0393891Y0054931D01*
X0394635Y0054188D01*
X0395275Y0053354D01*
X0395801Y0052443D01*
X0396203Y0051472D01*
X0396475Y0050456D01*
X0396576Y0049688D01*
X0383170Y0049688D01*
X0383170Y0048613D02*
X0398271Y0048613D01*
X0398271Y0050211D02*
X0396508Y0050211D01*
X0396063Y0051810D02*
X0398271Y0051810D01*
X0398271Y0053408D02*
X0395233Y0053408D01*
X0393793Y0055007D02*
X0398271Y0055007D01*
X0398271Y0056605D02*
X0390781Y0056605D01*
X0383170Y0056605D02*
X0381570Y0056605D01*
X0381570Y0055007D02*
X0383170Y0055007D01*
X0383170Y0053408D02*
X0381570Y0053408D01*
X0381570Y0051810D02*
X0383170Y0051810D01*
X0373959Y0056605D02*
X0350781Y0056605D01*
X0353793Y0055007D02*
X0370947Y0055007D01*
X0369507Y0053408D02*
X0355233Y0053408D01*
X0356063Y0051810D02*
X0368677Y0051810D01*
X0368233Y0050211D02*
X0356508Y0050211D01*
X0356393Y0047014D02*
X0368347Y0047014D01*
X0368905Y0045416D02*
X0355835Y0045416D01*
X0354811Y0043817D02*
X0369929Y0043817D01*
X0394811Y0043817D02*
X0398271Y0043817D01*
X0398271Y0045416D02*
X0395835Y0045416D01*
X0396393Y0047014D02*
X0398271Y0047014D01*
X0398271Y0058204D02*
X0279570Y0058204D01*
X0279570Y0059802D02*
X0330077Y0059802D01*
X0341570Y0056605D02*
X0343170Y0056605D01*
X0343170Y0055007D02*
X0341570Y0055007D01*
X0341570Y0053408D02*
X0343170Y0053408D01*
X0343170Y0051810D02*
X0341570Y0051810D01*
X0359663Y0059802D02*
X0398271Y0059802D01*
X0398271Y0061401D02*
X0361262Y0061401D01*
X0362861Y0062999D02*
X0372541Y0062999D01*
X0370527Y0064598D02*
X0364459Y0064598D01*
X0366058Y0066196D02*
X0369373Y0066196D01*
X0366504Y0069754D02*
X0382370Y0069754D01*
X0392199Y0062999D02*
X0398271Y0062999D01*
X0398271Y0064598D02*
X0394213Y0064598D01*
X0395367Y0066196D02*
X0398271Y0066196D01*
X0398271Y0067795D02*
X0396029Y0067795D01*
X0396213Y0069393D02*
X0398271Y0069393D01*
X0398271Y0070992D02*
X0396213Y0070992D01*
X0395666Y0072590D02*
X0398271Y0072590D01*
X0398271Y0074189D02*
X0394935Y0074189D01*
X0393336Y0075787D02*
X0398271Y0075787D01*
X0347370Y0103120D02*
X0339870Y0103120D01*
X0277370Y0065620D02*
X0277370Y0050620D01*
X0274784Y0053408D02*
X0270522Y0053408D01*
X0271570Y0052360D02*
X0269110Y0054820D01*
X0267370Y0054820D01*
X0267370Y0050620D01*
X0267370Y0046420D01*
X0269110Y0046420D01*
X0271570Y0048880D01*
X0271570Y0050620D01*
X0267370Y0050620D01*
X0267370Y0050620D01*
X0267370Y0050620D01*
X0271570Y0050620D01*
X0271570Y0052360D01*
X0271570Y0051810D02*
X0273570Y0051810D01*
X0273570Y0050211D02*
X0271570Y0050211D01*
X0271302Y0048613D02*
X0274004Y0048613D01*
X0275602Y0047014D02*
X0269704Y0047014D01*
X0267370Y0047014D02*
X0267370Y0047014D01*
X0267370Y0048613D02*
X0267370Y0048613D01*
X0267370Y0050211D02*
X0267370Y0050211D01*
X0267370Y0051810D02*
X0267370Y0051810D01*
X0267370Y0053408D02*
X0267370Y0053408D01*
X0275170Y0055007D02*
X0251472Y0055007D01*
X0251913Y0056605D02*
X0275170Y0056605D01*
X0275170Y0058204D02*
X0253065Y0058204D01*
X0254663Y0059802D02*
X0275170Y0059802D01*
X0279570Y0056605D02*
X0293959Y0056605D01*
X0290947Y0055007D02*
X0279570Y0055007D01*
X0279956Y0053408D02*
X0289507Y0053408D01*
X0288677Y0051810D02*
X0281170Y0051810D01*
X0281170Y0050211D02*
X0288233Y0050211D01*
X0288347Y0047014D02*
X0279138Y0047014D01*
X0280737Y0048613D02*
X0301570Y0048613D01*
X0301570Y0050211D02*
X0303170Y0050211D01*
X0303170Y0051810D02*
X0301570Y0051810D01*
X0301570Y0053408D02*
X0303170Y0053408D01*
X0303170Y0055007D02*
X0301570Y0055007D01*
X0301570Y0056605D02*
X0303170Y0056605D01*
X0288905Y0045416D02*
X0216570Y0045416D01*
X0216570Y0047014D02*
X0265036Y0047014D01*
X0289929Y0043817D02*
X0216507Y0043817D01*
X0242070Y0061401D02*
X0242513Y0061401D01*
X0242513Y0062999D02*
X0242070Y0062999D01*
X0242046Y0064598D02*
X0242537Y0064598D01*
X0243199Y0066196D02*
X0241384Y0066196D01*
X0239570Y0067795D02*
X0245046Y0067795D01*
X0249380Y0067795D02*
X0256434Y0067795D01*
X0254835Y0066196D02*
X0251227Y0066196D01*
X0251889Y0064598D02*
X0253236Y0064598D01*
X0220170Y0118947D02*
X0199963Y0118947D01*
X0200394Y0120546D02*
X0220170Y0120546D01*
X0220170Y0122144D02*
X0209834Y0122144D01*
X0209110Y0121420D02*
X0211570Y0123880D01*
X0211570Y0125620D01*
X0207370Y0125620D01*
X0207370Y0121420D01*
X0209110Y0121420D01*
X0207370Y0122144D02*
X0207370Y0122144D01*
X0207370Y0123743D02*
X0207370Y0123743D01*
X0207370Y0125341D02*
X0207370Y0125341D01*
X0207370Y0125620D02*
X0207370Y0125620D01*
X0207370Y0129820D01*
X0207370Y0126940D02*
X0207370Y0126940D01*
X0207370Y0125620D02*
X0207370Y0125620D01*
X0211570Y0125620D01*
X0211570Y0127360D01*
X0211570Y0126940D02*
X0220170Y0126940D01*
X0220170Y0125341D02*
X0211570Y0125341D01*
X0211432Y0123743D02*
X0220170Y0123743D01*
X0204906Y0122144D02*
X0200024Y0122144D01*
X0197987Y0123743D02*
X0203308Y0123743D01*
X0239268Y0122144D02*
X0260783Y0122144D01*
X0291170Y0173297D02*
X0348470Y0173297D01*
X0347580Y0174895D02*
X0290707Y0174895D01*
X0288914Y0176494D02*
X0345981Y0176494D01*
X0180751Y0206865D02*
X0171170Y0206865D01*
X0169900Y0208464D02*
X0179152Y0208464D01*
X0155170Y0136531D02*
X0143824Y0136531D01*
X0145691Y0134932D02*
X0155170Y0134932D01*
X0155170Y0133334D02*
X0146170Y0133334D01*
X0146170Y0131735D02*
X0155170Y0131735D01*
X0155170Y0130137D02*
X0146170Y0130137D01*
X0146170Y0128538D02*
X0155170Y0128538D01*
X0155170Y0126940D02*
X0145953Y0126940D01*
X0144865Y0125341D02*
X0155170Y0125341D01*
X0108787Y0126940D02*
X0106370Y0126940D01*
X0106570Y0128538D02*
X0108570Y0128538D01*
X0108570Y0130137D02*
X0106570Y0130137D01*
X0106570Y0131735D02*
X0108570Y0131735D01*
X0108570Y0133334D02*
X0106570Y0133334D01*
X0106110Y0134932D02*
X0109049Y0134932D01*
X0088570Y0122144D02*
X0073957Y0122144D01*
X0075556Y0120546D02*
X0088570Y0120546D01*
X0088669Y0118947D02*
X0077154Y0118947D01*
X0078753Y0117349D02*
X0090170Y0117349D01*
X0090170Y0115750D02*
X0080351Y0115750D01*
X0081950Y0114152D02*
X0090170Y0114152D01*
X0090170Y0112553D02*
X0083548Y0112553D01*
X0085147Y0110955D02*
X0090170Y0110955D01*
X0090523Y0109356D02*
X0086745Y0109356D01*
X0088344Y0107758D02*
X0092121Y0107758D01*
X0093720Y0106159D02*
X0089942Y0106159D01*
X0091541Y0104561D02*
X0095170Y0104561D01*
X0095170Y0102962D02*
X0093139Y0102962D01*
X0094570Y0101364D02*
X0095170Y0101364D01*
X0095170Y0099765D02*
X0094570Y0099765D01*
X0094570Y0098166D02*
X0095170Y0098166D01*
X0095170Y0096568D02*
X0094570Y0096568D01*
X0094570Y0094969D02*
X0095170Y0094969D01*
X0095170Y0093371D02*
X0094993Y0093371D01*
X0099570Y0099765D02*
X0100170Y0099765D01*
X0100170Y0101364D02*
X0099570Y0101364D01*
X0099570Y0102962D02*
X0100170Y0102962D01*
X0100170Y0104561D02*
X0099570Y0104561D01*
X0099570Y0106159D02*
X0100170Y0106159D01*
X0099859Y0107758D02*
X0098344Y0107758D01*
X0098570Y0109356D02*
X0096745Y0109356D01*
X0095147Y0110955D02*
X0098570Y0110955D01*
X0098929Y0112553D02*
X0094570Y0112553D01*
X0094570Y0114152D02*
X0100528Y0114152D01*
X0102370Y0110620D02*
X0102370Y0080620D01*
X0112528Y0070463D01*
X0112528Y0060305D01*
X0117228Y0059802D02*
X0117670Y0059802D01*
X0117670Y0058204D02*
X0117228Y0058204D01*
X0117228Y0056605D02*
X0117670Y0056605D01*
X0118111Y0055007D02*
X0116787Y0055007D01*
X0115577Y0053408D02*
X0119320Y0053408D01*
X0125420Y0053408D02*
X0129163Y0053408D01*
X0127953Y0055007D02*
X0126630Y0055007D01*
X0127070Y0056605D02*
X0127513Y0056605D01*
X0132213Y0060305D02*
X0122370Y0060305D01*
X0122370Y0075620D01*
X0118570Y0075787D02*
X0110314Y0075787D01*
X0111913Y0074189D02*
X0118570Y0074189D01*
X0120026Y0072590D02*
X0113511Y0072590D01*
X0114728Y0070992D02*
X0120170Y0070992D01*
X0120170Y0069393D02*
X0114728Y0069393D01*
X0114728Y0067795D02*
X0120170Y0067795D01*
X0118356Y0066196D02*
X0116542Y0066196D01*
X0117204Y0064598D02*
X0117694Y0064598D01*
X0117670Y0062999D02*
X0117228Y0062999D01*
X0117228Y0061401D02*
X0117670Y0061401D01*
X0124570Y0067795D02*
X0130046Y0067795D01*
X0128199Y0066196D02*
X0126384Y0066196D01*
X0127046Y0064598D02*
X0127537Y0064598D01*
X0127513Y0062999D02*
X0127070Y0062999D01*
X0118762Y0077386D02*
X0108716Y0077386D01*
X0107117Y0078984D02*
X0120360Y0078984D01*
X0102370Y0117349D02*
X0102370Y0117349D01*
X0102370Y0118947D02*
X0102370Y0118947D01*
X0038595Y0131735D02*
X0010170Y0131735D01*
X0010170Y0130137D02*
X0036842Y0130137D01*
X0035877Y0128538D02*
X0010170Y0128538D01*
X0010170Y0126940D02*
X0035239Y0126940D01*
X0035239Y0125341D02*
X0010170Y0125341D01*
X0010170Y0123743D02*
X0035413Y0123743D01*
X0036075Y0122144D02*
X0010170Y0122144D01*
X0010170Y0120546D02*
X0037321Y0120546D01*
D21*
X0197370Y0110620D03*
D22*
X0277370Y0120620D03*
D23*
X0352370Y0165620D02*
X0357370Y0160620D01*
X0362370Y0160620D01*
X0367370Y0160620D01*
X0372370Y0165620D01*
X0372370Y0160620D01*
X0377370Y0165620D01*
X0372370Y0165620D01*
X0377370Y0165620D02*
X0382370Y0165620D01*
X0372370Y0160620D02*
X0372370Y0155620D01*
X0377370Y0150620D01*
X0387370Y0150620D01*
X0372370Y0155620D02*
X0367370Y0160620D01*
X0362370Y0170620D02*
X0362370Y0175620D01*
X0382370Y0195620D01*
X0382370Y0205620D01*
X0352370Y0175620D02*
X0347370Y0180620D01*
X0267370Y0180620D01*
X0262370Y0180620D01*
X0257370Y0175620D01*
X0257370Y0170620D01*
X0257370Y0175620D02*
X0257370Y0180620D01*
X0262370Y0180620D01*
X0257370Y0185620D01*
X0257370Y0180620D01*
X0257370Y0185620D02*
X0252370Y0190620D01*
X0237370Y0190620D01*
X0227370Y0180620D01*
X0127370Y0180620D01*
X0122370Y0175620D01*
X0117370Y0170620D01*
X0112370Y0165620D01*
X0112370Y0160620D01*
X0117370Y0170620D02*
X0122370Y0170620D01*
X0122370Y0175620D01*
X0352370Y0175620D02*
X0352370Y0165620D01*
M02*
